<svg version="1.1" id="Layer_1" xmlns="http://www.w3.org/2000/svg" xmlns:xlink="http://www.w3.org/1999/xlink" x="0px" y="0px"
	 width="100%" viewBox="0 0 1600 896" enable-background="new 0 0 1600 896" xml:space="preserve">
<path fill="#12222F" opacity="1.000000" stroke="none" 
	d="
M1080.000000,897.000000 
	C720.000000,897.000000 360.500000,897.000000 1.000000,897.000000 
	C1.000000,598.333313 1.000000,299.666656 1.000000,1.000000 
	C534.333313,1.000000 1067.666626,1.000000 1601.000000,1.000000 
	C1601.000000,299.666656 1601.000000,598.333313 1601.000000,897.000000 
	C1427.500000,897.000000 1254.000000,897.000000 1080.000000,897.000000 
M640.678528,488.685883 
	C640.481018,490.631104 639.899353,492.629333 640.159241,494.511383 
	C640.885681,499.771881 641.191528,504.819824 636.509338,509.244537 
	C636.047913,509.580658 635.586426,509.916779 634.476990,509.914642 
	C630.008240,508.334351 625.631348,506.240448 621.027283,505.417358 
	C619.087036,505.070557 615.601685,506.836609 614.651001,508.619354 
	C610.619873,516.178467 613.517944,521.153381 622.052979,521.578308 
	C624.430725,521.696594 626.917297,520.203125 629.307495,519.322937 
	C631.261169,518.603516 633.145752,517.696289 635.410339,517.229126 
	C635.645752,517.464539 635.884766,517.696228 636.321655,518.601746 
	C638.302490,519.565613 640.191162,520.911804 642.282837,521.416138 
	C647.083557,522.573608 650.447266,524.773254 651.308167,530.077515 
	C651.576782,531.732056 652.624390,533.872986 653.968994,534.629395 
	C658.692200,537.286377 660.059021,540.816589 658.059326,545.805908 
	C658.059326,545.805908 658.172852,545.871643 657.954956,546.722351 
	C657.507629,549.623108 656.092224,552.790649 656.803528,555.372192 
	C658.586304,561.842651 662.274414,567.412048 667.656494,571.662415 
	C671.147522,574.419312 674.630493,573.668335 677.622192,571.038330 
	C681.804626,567.361572 689.352905,567.942871 690.725403,560.682861 
	C690.803162,560.271179 691.885254,560.109253 692.411255,559.713196 
	C698.055481,555.463562 703.681885,551.190063 709.539001,546.752075 
	C701.772766,538.946472 702.450012,530.265503 705.709106,521.307190 
	C706.564026,518.957153 709.226746,516.096069 708.547852,514.643799 
	C707.638977,512.699646 704.289612,511.889465 701.978149,510.610504 
	C700.520874,509.804169 699.073486,508.972290 697.573364,508.252533 
	C688.483948,503.891388 683.511841,505.755219 679.543884,514.938171 
	C679.231628,515.660889 678.698303,516.288086 678.291931,516.921997 
	C672.880554,514.693542 667.104614,502.835175 668.750549,497.768341 
	C669.041321,496.873138 669.444275,495.904724 669.356689,495.013245 
	C668.458496,485.871399 667.292725,476.752350 666.572876,467.597748 
	C666.144531,462.150024 663.076599,458.479309 657.602844,458.234467 
	C652.281799,457.996429 646.951477,457.897247 641.624756,457.880341 
	C637.643982,457.867706 635.382690,460.949585 635.821106,463.969360 
	C636.854614,471.087952 635.917908,478.790985 640.783081,485.777222 
	C640.849243,486.492157 640.915344,487.207062 640.678528,488.685883 
M734.358154,378.292816 
	C733.975159,378.416687 733.592163,378.540558 732.693420,378.330841 
	C731.326721,378.630035 729.406677,378.458069 728.684692,379.306122 
	C724.512024,384.207245 720.377686,389.180298 716.724304,394.470123 
	C714.371582,397.876709 713.284546,401.628876 719.500549,402.684448 
	C720.651611,402.879913 721.520813,404.383636 722.670837,405.004150 
	C726.001282,406.801178 729.273254,408.851410 732.820496,410.064270 
	C737.051147,411.510803 742.627380,407.180939 743.655579,402.736847 
	C744.099487,400.818573 745.678833,399.142670 746.832214,397.416626 
	C747.522278,396.383850 748.814331,395.576080 749.093689,394.478363 
	C750.020630,390.835358 741.530762,378.371979 737.805603,377.774078 
	C736.908203,377.630035 735.912537,378.098114 734.358154,378.292816 
M879.210876,483.160645 
	C881.585022,483.729645 884.078613,484.011658 886.303772,484.938446 
	C889.255066,486.167603 891.149719,485.744019 891.880859,482.503693 
	C893.194092,476.684204 894.596069,470.870422 895.478699,464.981964 
	C895.628174,463.985168 893.458618,461.733551 892.195129,461.597595 
	C887.922424,461.137909 883.555664,461.131073 879.269165,461.485779 
	C878.035950,461.587830 876.361694,463.292603 875.912964,464.610901 
	C874.688599,468.207855 874.240356,472.066956 873.043579,475.675964 
	C872.071533,478.607391 873.049500,479.881714 875.654175,480.971893 
	C876.947144,481.513000 877.862732,482.955780 879.140564,484.510620 
	C878.862183,484.400116 878.583862,484.289581 878.305481,484.179108 
	C878.532043,484.125885 878.758545,484.072662 879.210876,483.160645 
M639.310120,391.666046 
	C639.714172,394.895660 640.701294,398.179871 640.405151,401.343964 
	C639.712891,408.740967 638.372559,416.075897 637.360291,423.444977 
	C636.884583,426.907501 636.449341,430.382782 636.199097,433.866913 
	C635.958801,437.211548 637.616516,439.566132 640.997559,439.638763 
	C647.138489,439.770660 653.295654,439.573029 659.433472,439.263123 
	C663.245300,439.070648 664.730774,436.696198 664.955322,432.913605 
	C665.279785,427.450104 666.081421,422.014374 666.698364,416.568970 
	C667.260193,411.610046 667.601685,406.609253 668.494324,401.709656 
	C669.338745,397.074432 670.289795,392.344604 672.092041,388.031708 
	C673.718445,384.139526 676.453979,384.259338 679.506226,387.283600 
	C680.987671,388.751495 682.727478,390.216736 684.632507,390.951477 
	C690.754761,393.312836 696.942078,392.392212 702.501770,389.443878 
	C705.471497,387.869019 709.074768,385.325958 707.545105,380.904877 
	C706.473755,377.808563 704.628601,374.944153 702.892761,372.121521 
	C699.826050,367.134735 700.114258,364.557281 704.569092,360.640381 
	C705.567505,359.762543 706.785950,359.110046 707.686218,358.150330 
	C709.963806,355.722290 709.261597,354.361389 705.857605,353.489838 
	C705.470093,352.733582 705.082581,351.977325 704.616028,350.524048 
	C703.591370,349.089508 702.820435,347.340546 701.498840,346.274017 
	C695.299988,341.271698 689.243896,335.995453 682.553894,331.731628 
	C677.793335,328.697449 673.674377,323.450775 667.140076,324.583801 
	C662.986877,334.131683 652.189697,341.392548 658.619080,353.132080 
	C659.263611,353.079437 660.247742,352.999054 661.231873,352.918671 
	C661.100037,353.990173 661.292664,355.258270 660.782288,356.100342 
	C658.027649,360.645386 654.942200,364.993744 652.271729,369.584991 
	C649.295044,374.702637 645.918335,378.903687 639.217957,378.559174 
	C638.325745,378.513336 637.182678,379.041748 636.514343,379.679749 
	C633.378784,382.673401 630.862183,381.737305 627.885010,379.163239 
	C624.537842,376.269379 617.589966,377.362732 615.393921,380.884003 
	C613.338135,384.180542 612.365234,387.625580 615.891785,390.775848 
	C619.192200,393.724030 625.122925,394.538818 627.721008,391.765472 
	C630.231323,389.085846 632.575073,388.745819 635.669312,390.274597 
	C636.669250,390.768646 637.928040,390.738861 639.310120,391.666046 
M966.882202,390.075775 
	C968.746948,390.638550 970.596252,391.260498 972.479980,391.750153 
	C975.309448,392.485657 978.164978,393.694092 981.005981,393.684509 
	C985.850769,393.668213 988.734375,390.573059 988.796021,386.348419 
	C988.872009,381.137360 986.398132,377.684296 981.374817,377.514374 
	C978.445190,377.415283 975.478027,379.045074 972.492004,379.744263 
	C970.877991,380.122192 969.071899,380.655060 967.557617,380.283051 
	C964.275208,379.476746 961.109619,378.174011 957.927368,376.990509 
	C956.563538,376.483246 954.879089,376.105347 954.019165,375.092377 
	C947.637024,367.574646 942.635498,359.449280 945.103027,348.943756 
	C946.484802,343.060852 944.704834,338.221710 941.206665,333.600372 
	C939.348450,331.145538 938.138550,328.203308 936.310059,325.721191 
	C935.566528,324.711914 933.760986,323.576721 932.780640,323.828827 
	C930.320557,324.461426 927.662598,325.406952 925.804871,327.044708 
	C923.039062,329.483002 920.374023,329.920471 917.111206,328.685883 
	C916.127441,328.313660 915.037170,328.222809 914.473572,328.103882 
	C913.586670,331.276886 913.668640,334.920044 911.896851,336.558624 
	C907.243164,340.862274 901.622070,344.096466 896.683289,348.120972 
	C890.523315,353.140717 890.827881,356.859344 897.299377,361.336304 
	C902.150635,364.692413 902.690063,368.067749 898.980103,372.592438 
	C897.612183,374.260742 895.985352,375.714081 894.565979,377.343353 
	C891.000549,381.436066 891.647461,385.597290 896.524536,387.919586 
	C899.498535,389.335785 902.760010,390.231842 905.972412,391.045990 
	C912.043457,392.584625 917.843323,392.969055 921.984375,386.757263 
	C923.584351,384.357361 926.285034,383.274933 928.091248,386.172028 
	C930.948669,390.755096 934.219055,395.367035 932.943054,401.431335 
	C932.586121,403.127808 932.982300,405.028046 933.248291,406.802582 
	C934.478760,415.013702 936.048462,423.183807 936.975342,431.427246 
	C937.641174,437.348511 939.020752,439.438599 945.110291,439.749298 
	C949.577332,439.977264 954.138611,439.042328 958.545532,439.567749 
	C962.750244,440.069061 964.729492,438.252350 966.301758,434.810333 
	C966.399597,434.534088 966.410156,434.251526 965.927185,433.125610 
	C965.466736,430.402222 965.308105,427.580841 964.464111,424.982025 
	C963.551270,422.171448 961.998535,419.568726 960.442078,416.323059 
	C960.415161,415.912628 960.388184,415.502167 960.861206,414.564728 
	C961.184875,412.485809 962.137512,410.269623 961.719116,408.352661 
	C960.215576,401.463776 960.895630,395.296326 966.882202,390.075775 
M895.410828,545.302979 
	C891.393311,547.675537 894.081360,550.040894 896.139587,550.715820 
	C902.211731,552.706970 904.389404,560.385498 911.434387,560.779297 
	C912.092957,560.816101 913.212952,562.204590 913.206238,562.957336 
	C913.166016,567.414673 915.505371,568.414124 919.501099,568.348877 
	C921.022949,568.324036 922.594666,570.047913 924.107239,571.031006 
	C927.558899,573.274353 931.162537,574.611206 934.554382,571.247925 
	C941.647034,564.215027 948.017639,556.921875 944.653137,545.558899 
	C943.933289,543.127686 944.541748,539.926697 945.514526,537.466187 
	C946.735474,534.377808 949.527100,531.887512 950.629517,528.780273 
	C952.541626,523.390991 955.427002,520.175659 961.550476,520.845215 
	C962.826660,520.984741 964.433655,520.898865 965.436523,520.234802 
	C969.065857,517.831543 971.711060,518.643616 975.290283,521.021851 
	C977.431458,522.444519 981.824585,521.853394 984.508301,520.633484 
	C986.524536,519.716919 988.445740,516.444214 988.645691,514.071838 
	C989.307617,506.220734 982.316467,502.640076 974.281677,506.349854 
	C966.686096,509.856842 962.102966,506.186615 961.667358,497.794312 
	C961.117310,487.197937 964.248474,477.437347 966.587585,467.446411 
	C967.883728,461.910248 965.461182,458.477905 959.642578,458.182007 
	C955.486145,457.970612 951.311523,458.144104 947.150208,457.997223 
	C940.918701,457.777313 936.247192,460.832794 935.624573,466.960785 
	C934.585815,477.184784 933.942810,487.484528 933.862000,497.758118 
	C933.805908,504.892792 929.370972,513.953430 923.388977,516.559692 
	C922.031311,513.981689 921.213257,510.832947 919.209534,508.938232 
	C914.232605,504.232208 908.595642,506.243286 903.422791,508.853943 
	C892.320251,514.457214 891.617981,516.730896 899.484070,526.148560 
	C902.812256,530.133240 901.608215,532.664856 899.531311,536.204773 
	C897.998352,538.817566 897.329224,541.937256 896.235779,545.063538 
	C896.235779,545.063538 896.039429,545.183777 895.410828,545.302979 
M844.493652,536.738586 
	C845.581604,535.981506 847.690552,535.041199 847.592896,534.496887 
	C846.924927,530.774780 846.211365,526.952576 844.703735,523.517578 
	C842.909119,519.428772 835.587524,517.365662 831.367493,518.978638 
	C826.903442,520.684998 822.359131,522.185913 817.825806,523.704590 
	C815.244995,524.569153 812.261536,524.746826 810.073730,526.175049 
	C802.978271,530.806885 798.986267,530.989319 791.689087,526.377441 
	C789.907898,525.251648 787.937561,524.319458 785.932983,523.676025 
	C782.414124,522.546387 778.714417,521.948853 775.248535,520.692444 
	C769.946655,518.770508 764.544373,515.507690 759.723999,520.984863 
	C757.796387,523.175232 757.038574,526.433594 755.890137,529.263367 
	C753.206055,535.877258 753.563538,536.775024 759.933472,540.250671 
	C761.248718,540.968323 762.839294,541.391174 763.855896,542.400391 
	C765.704102,544.235107 768.333618,546.262939 768.619568,548.471497 
	C769.101501,552.192810 765.611389,553.235229 762.478821,554.452759 
	C759.350342,555.668579 754.572693,557.520569 754.128723,559.797668 
	C753.041870,565.372131 749.980164,569.183777 746.864075,573.437927 
	C744.483704,576.687500 744.282043,580.672668 748.027466,583.718872 
	C753.377991,588.070374 756.119568,588.504944 760.076477,584.022522 
	C764.317078,579.218811 767.840515,573.748535 771.369568,568.367493 
	C772.691162,566.352356 773.157654,563.773315 773.994995,561.444580 
	C774.837097,559.102600 775.176453,556.386292 776.613831,554.504211 
	C778.182373,552.450134 780.991089,549.613831 782.843018,549.891724 
	C785.994751,550.364685 788.260620,553.206787 788.109192,557.242126 
	C787.884583,563.229919 788.125916,569.233582 788.033997,575.228455 
	C787.952698,580.527161 789.046936,586.358948 787.215210,591.006897 
	C783.581543,600.227295 785.778076,609.430237 785.224121,618.607239 
	C785.060303,621.320374 786.791626,622.602966 789.456970,622.059326 
	C795.055847,620.917419 800.630798,625.301880 806.225891,622.082153 
	C806.462830,621.945740 806.877502,622.110901 807.208313,622.145691 
	C813.653503,622.824707 817.179688,619.604370 816.760742,613.137817 
	C816.262878,605.453308 816.931519,597.897156 814.883484,590.039307 
	C812.821472,582.128052 814.382996,573.257935 814.465576,564.809021 
	C814.501282,561.152405 814.623169,557.476868 815.043457,553.848999 
	C815.540039,549.563049 817.899414,548.572205 821.658386,550.681763 
	C825.849365,553.033752 827.147156,556.905212 828.171875,561.323120 
	C829.005737,564.918213 830.652161,568.455750 832.576233,571.632446 
	C834.769470,575.253784 837.350037,578.775635 840.370911,581.715210 
	C842.534546,583.820679 845.618774,585.957886 848.437561,586.172424 
	C852.220581,586.460449 856.043274,583.795166 856.184082,579.816528 
	C856.289856,576.827271 854.002380,573.695679 852.569336,570.729431 
	C851.558655,568.637512 849.331116,566.785583 849.164612,564.705017 
	C848.799683,560.144470 846.434875,557.785217 842.548889,556.295593 
	C840.843201,555.641663 839.031067,555.132874 837.497925,554.185059 
	C831.857605,550.698181 831.946594,546.300476 837.340454,542.616516 
	C839.695618,541.007935 841.604370,538.745728 843.731445,536.699097 
	C843.731445,536.699097 843.813843,536.692444 844.493652,536.738586 
M804.543518,275.577972 
	C801.219360,275.424957 797.894348,275.127167 794.571228,275.147095 
	C785.957214,275.198761 784.694946,276.151459 785.177673,284.546082 
	C785.782471,295.062225 787.516296,305.519623 787.968018,316.036499 
	C788.330994,324.485168 787.351685,332.983154 787.272522,341.462128 
	C787.221985,346.870209 785.426086,348.798187 780.507935,346.732574 
	C778.343079,345.823364 776.586914,343.026733 775.490845,340.690277 
	C773.600281,336.660065 772.872620,332.041534 770.733337,328.181824 
	C768.198364,323.608093 765.056091,319.221313 761.445923,315.454102 
	C759.546326,313.471832 755.501465,311.423523 753.472290,312.187164 
	C750.467102,313.318085 747.058105,316.595642 746.329102,319.573334 
	C745.705994,322.118286 748.533081,325.566711 749.989807,328.539215 
	C750.819946,330.233276 752.708740,331.727203 752.814270,333.393921 
	C753.063538,337.331451 755.210693,339.463074 758.366760,340.995758 
	C760.308350,341.938690 762.430664,342.523438 764.331604,343.532990 
	C768.467407,345.729340 770.164490,350.988800 767.247742,352.779449 
	C763.645081,354.991211 759.666748,356.591003 754.501465,359.114410 
	C754.717285,362.097137 754.228577,366.490509 755.545593,370.251587 
	C756.743164,373.671509 759.926758,376.386902 762.191589,379.444885 
	C764.245605,382.218231 765.957703,382.407990 769.209229,380.375702 
	C773.590210,377.637512 778.763611,376.116760 783.683228,374.308319 
	C786.972900,373.099060 790.941162,373.056976 793.673950,371.154297 
	C799.140381,367.348358 803.941040,367.590485 809.414551,370.851868 
	C812.631409,372.768585 816.374329,373.803680 819.883667,375.227844 
	C824.578186,377.132904 829.219788,379.195343 834.009399,380.821106 
	C835.276611,381.251282 837.216187,380.693420 838.481689,379.959351 
	C843.313904,377.156403 844.753479,372.187714 846.543274,367.270477 
	C848.761780,361.175293 848.718323,360.219879 842.988342,357.395355 
	C841.198303,356.513000 839.414124,355.541046 837.519531,354.963165 
	C831.685364,353.183655 830.892944,351.386475 834.657776,346.580688 
	C836.114136,344.721680 838.452087,343.529236 840.455017,342.128479 
	C842.881042,340.431793 845.859924,339.254852 847.731628,337.099304 
	C850.595825,333.800812 852.684326,329.835083 855.162842,326.193909 
	C858.142090,321.817078 857.250671,316.493256 852.963806,313.453461 
	C848.176086,310.058502 844.031616,310.838348 840.626404,315.873383 
	C839.327759,317.793640 838.640137,320.369019 836.941162,321.732941 
	C831.005920,326.497650 827.905945,332.356262 827.146423,340.004517 
	C826.628906,345.215942 823.311401,347.459869 819.085327,346.962952 
	C813.749023,346.335419 814.854309,342.095703 814.955139,338.843811 
	C815.500427,321.264771 816.371094,303.695404 816.861511,286.115204 
	C817.135498,276.294006 815.220093,274.756226 804.543518,275.577972 
M606.983948,437.070343 
	C605.914795,438.149994 604.055542,439.141846 603.923950,440.325684 
	C603.521973,443.942719 603.801270,447.633728 603.785645,451.295837 
	C603.743347,461.204773 603.738708,461.338074 613.894043,461.226471 
	C616.918762,461.193237 620.598206,461.070953 622.800598,459.419586 
	C626.403931,456.717712 629.042847,452.729584 631.881348,449.518433 
	C626.321960,440.638885 619.800415,434.634674 608.882446,437.055328 
	C608.564514,437.125824 608.218384,437.068817 606.983948,437.070343 
M706.082275,432.564209 
	C706.197266,433.959045 706.312195,435.353912 706.443359,436.945526 
	C712.127319,436.945526 717.279480,437.027771 722.425232,436.881989 
	C723.571472,436.849487 725.530579,436.214050 725.696838,435.517609 
	C727.030457,429.930359 728.023560,424.261871 729.083191,418.811768 
	C723.783936,416.830505 719.114014,415.107422 714.462341,413.336182 
	C711.956116,412.381866 710.360474,412.806549 709.757629,415.751190 
	C708.659668,421.114105 707.378967,426.439606 706.082275,432.564209 
M721.826538,506.119446 
	C724.923828,510.001373 727.867676,514.024292 731.219666,517.672058 
	C732.126160,518.658447 735.133911,519.340698 735.704590,518.747070 
	C739.687012,514.604187 743.947449,510.439331 746.566956,505.464417 
	C747.284363,504.101929 742.717102,499.948608 740.562561,497.085358 
	C739.370544,495.501099 738.409668,493.574829 736.865356,492.476929 
	C735.629333,491.598267 733.244507,490.948303 732.106567,491.562469 
	C727.484863,494.056946 723.147400,497.078064 718.280090,500.175476 
	C719.371765,501.955627 720.453857,503.720184 721.826538,506.119446 
M872.537354,515.221741 
	C876.235779,510.428802 879.934204,505.635895 883.939636,500.445160 
	C878.506775,496.934723 874.009277,493.834808 869.278259,491.145752 
	C868.399292,490.646149 866.085693,491.361542 865.281738,492.267944 
	C861.988281,495.981049 858.932251,499.919220 856.013977,503.938110 
	C855.436096,504.733978 855.348755,506.617401 855.897644,507.371887 
	C858.125610,510.434662 860.513306,513.426697 863.169495,516.122131 
	C867.592224,520.610352 867.698120,520.505981 872.537354,515.221741 
M728.433411,480.255066 
	C728.372864,478.017548 728.988403,475.460541 728.113037,473.608093 
	C726.214233,469.589844 728.941650,463.182770 723.591492,461.480225 
	C719.368103,460.136292 714.371033,461.287201 709.719849,461.202759 
	C706.443237,461.143250 705.598267,462.959869 706.157532,465.691376 
	C707.355103,471.540497 708.677002,477.365021 710.017273,483.183624 
	C710.658752,485.967987 712.284851,486.379547 714.874695,485.321320 
	C719.153137,483.573151 723.556213,482.130066 728.433411,480.255066 
M975.346863,456.214142 
	C981.364807,465.426697 990.170227,460.022400 998.251648,461.511688 
	C998.251648,453.719238 998.336365,446.922852 998.158875,440.133331 
	C998.132690,439.131622 996.841248,437.293274 996.174805,437.311249 
	C988.744324,437.511597 980.790588,434.379730 974.827148,442.510101 
	C969.739136,449.446899 969.163147,449.024414 975.346863,456.214142 
M886.535400,413.513947 
	C882.805786,414.910767 878.999451,416.141510 875.393188,417.805603 
	C874.308960,418.305908 873.004272,420.094391 873.115723,421.154480 
	C874.732178,436.532898 876.539490,437.926819 891.641968,437.119080 
	C895.272949,436.924896 896.485107,435.390747 895.819153,432.135864 
	C894.690308,426.618958 893.265564,421.160675 892.216797,415.630035 
	C891.568970,412.213531 889.685791,412.248444 886.535400,413.513947 
M855.219116,387.619659 
	C850.407410,392.183960 850.493713,393.564209 855.182922,397.921967 
	C856.554382,399.196381 857.559082,401.038635 858.284790,402.804413 
	C861.188599,409.870483 869.299500,412.350555 875.545410,407.927155 
	C879.499023,405.127258 883.421631,402.283569 888.208740,398.849274 
	C886.194397,395.912384 884.019958,392.709625 881.809998,389.531616 
	C880.410828,387.519531 878.661438,385.691559 877.587341,383.524200 
	C874.577148,377.450195 868.489990,374.935425 862.774170,378.600800 
	C859.818604,380.496094 858.016541,384.190094 855.219116,387.619659 
M705.421448,564.238403 
	C708.518799,569.032227 713.774170,570.187012 716.036560,566.192322 
	C717.189270,564.156982 717.589539,560.378113 716.428101,558.717590 
	C715.251648,557.035400 711.625305,556.141052 709.258789,556.430176 
	C705.550537,556.883301 704.420593,559.953064 705.421448,564.238403 
M896.960693,559.980774 
	C895.625427,555.988586 892.712036,555.004089 889.064453,556.264343 
	C885.627930,557.451599 884.109924,560.200684 884.813904,563.759949 
	C885.454163,566.997253 887.786011,568.513550 891.031433,568.244873 
	C894.972534,567.918579 896.944275,565.594055 897.053467,561.664124 
	C897.062683,561.332092 897.048828,560.999390 896.960693,559.980774 
M748.531921,598.505493 
	C748.833923,599.952637 748.899780,601.503601 749.482056,602.827515 
	C751.272888,606.899048 758.454773,609.106262 761.259888,606.431091 
	C764.242737,603.586243 764.370117,600.026672 763.106323,596.327148 
	C761.941711,592.918518 759.204041,592.039490 756.000977,592.214417 
	C752.358887,592.413452 748.950989,593.089294 748.531921,598.505493 
M898.186890,367.597290 
	C898.132874,367.591949 898.078796,367.586639 898.186890,367.597290 
z"/>
<path fill="#2AAADB" opacity="1.000000" stroke="none" 
	d="
M704.695007,351.221069 
	C705.082581,351.977325 705.470093,352.733582 705.747559,354.066956 
	C700.464172,361.319580 695.377502,368.066101 690.026550,374.596039 
	C689.197205,375.608124 686.852051,376.416748 685.728088,375.980194 
	C678.498352,373.171967 678.538391,373.044617 674.334045,379.522919 
	C672.158447,382.875244 669.912537,386.188751 667.904114,389.639496 
	C667.015076,391.167053 666.277100,392.951385 666.083008,394.687622 
	C664.642151,407.577362 663.416626,420.491455 661.920044,433.374237 
	C661.779358,434.585510 660.279358,436.563873 659.337402,436.607483 
	C653.066528,436.897614 646.775696,436.757904 639.556091,436.757904 
	C640.304443,428.428925 640.997864,420.711029 641.778687,412.752747 
	C641.854248,412.342224 641.842529,412.172119 641.916382,411.588196 
	C642.766663,403.530182 643.531311,395.885895 644.504517,387.902344 
	C650.629395,378.142731 656.455139,368.663879 662.493713,359.322601 
	C666.542053,353.059967 666.598083,353.230621 661.067566,347.984955 
	C659.829102,346.810303 658.223145,344.081512 658.713867,343.334961 
	C662.397827,337.729797 666.564697,332.442078 670.658081,326.951019 
	C682.525818,335.413330 693.610413,343.317200 704.695007,351.221069 
z"/>
<path fill="#2AAADB" opacity="1.000000" stroke="none" 
	d="
M960.361206,415.091736 
	C960.388184,415.502167 960.415161,415.912628 960.538696,417.010193 
	C961.020996,422.840729 961.386169,427.985748 961.801086,433.126801 
	C962.000427,435.596375 961.110413,436.850647 958.450928,436.806763 
	C953.457397,436.724426 948.448608,436.996826 943.475098,436.674438 
	C942.210632,436.592499 940.162048,434.964142 939.989502,433.817993 
	C938.479065,423.788239 936.415039,413.714783 936.323792,403.637909 
	C936.248718,395.347229 934.051392,388.649414 929.374512,382.008423 
	C923.075745,373.064331 923.406372,372.831482 913.439575,376.845490 
	C908.015991,369.652130 902.449646,362.420715 897.146423,355.001312 
	C896.617126,354.260834 897.238281,351.853729 898.095825,351.117218 
	C901.243408,348.414032 904.709656,346.080597 908.067871,343.624359 
	C915.680969,338.056000 923.301147,332.497345 930.744446,327.061829 
	C931.532410,327.594635 931.872314,327.725311 932.067017,327.971039 
	C934.648987,331.229340 937.389648,334.380585 939.741333,337.798920 
	C945.376526,345.990021 945.791138,343.845612 938.503235,350.161804 
	C936.231995,352.130219 935.518860,353.625153 937.441650,356.362396 
	C942.695068,363.841156 947.672119,371.514008 952.853210,379.378906 
	C953.241333,379.875702 953.534912,380.103638 953.778564,380.292969 
	C953.728638,380.254395 953.651672,380.354401 953.741699,380.690308 
	C955.222900,384.020477 956.614136,387.014771 957.917847,390.458771 
	C958.273254,395.610779 958.716064,400.313049 959.139404,405.324036 
	C959.335144,405.965729 959.550415,406.298737 959.602234,407.020905 
	C959.746277,409.970612 960.053711,412.531189 960.361206,415.091736 
z"/>
<path fill="#0D374F" opacity="1.000000" stroke="none" 
	d="
M804.965942,275.598572 
	C815.220093,274.756226 817.135498,276.294006 816.861511,286.115204 
	C816.371094,303.695404 815.500427,321.264771 814.955139,338.843811 
	C814.854309,342.095703 813.749023,346.335419 819.085327,346.962952 
	C823.311401,347.459869 826.628906,345.215942 827.146423,340.004517 
	C827.905945,332.356262 831.005920,326.497650 836.941162,321.732941 
	C838.640137,320.369019 839.327759,317.793640 840.626404,315.873383 
	C844.031616,310.838348 848.176086,310.058502 852.963806,313.453461 
	C857.250671,316.493256 858.142090,321.817078 855.162842,326.193909 
	C852.684326,329.835083 850.595825,333.800812 847.731628,337.099304 
	C845.859924,339.254852 842.881042,340.431793 840.455017,342.128479 
	C838.452087,343.529236 836.114136,344.721680 834.657776,346.580688 
	C830.892944,351.386475 831.685364,353.183655 837.519531,354.963165 
	C839.414124,355.541046 841.198303,356.513000 842.988342,357.395355 
	C848.718323,360.219879 848.761780,361.175293 846.543274,367.270477 
	C844.753479,372.187714 843.313904,377.156403 838.481689,379.959351 
	C837.216187,380.693420 835.276611,381.251282 834.009399,380.821106 
	C829.219788,379.195343 824.578186,377.132904 819.883667,375.227844 
	C816.374329,373.803680 812.631409,372.768585 809.414551,370.851868 
	C803.941040,367.590485 799.140381,367.348358 793.673950,371.154297 
	C790.941162,373.056976 786.972900,373.099060 783.683228,374.308319 
	C778.763611,376.116760 773.590210,377.637512 769.209229,380.375702 
	C765.957703,382.407990 764.245605,382.218231 762.191589,379.444885 
	C759.926758,376.386902 756.743164,373.671509 755.545593,370.251587 
	C754.228577,366.490509 754.717285,362.097137 754.501465,359.114410 
	C759.666748,356.591003 763.645081,354.991211 767.247742,352.779449 
	C770.164490,350.988800 768.467407,345.729340 764.331604,343.532990 
	C762.430664,342.523438 760.308350,341.938690 758.366760,340.995758 
	C755.210693,339.463074 753.063538,337.331451 752.814270,333.393921 
	C752.708740,331.727203 750.819946,330.233276 749.989807,328.539215 
	C748.533081,325.566711 745.705994,322.118286 746.329102,319.573334 
	C747.058105,316.595642 750.467102,313.318085 753.472290,312.187164 
	C755.501465,311.423523 759.546326,313.471832 761.445923,315.454102 
	C765.056091,319.221313 768.198364,323.608093 770.733337,328.181824 
	C772.872620,332.041534 773.600281,336.660065 775.490845,340.690277 
	C776.586914,343.026733 778.343079,345.823364 780.507935,346.732574 
	C785.426086,348.798187 787.221985,346.870209 787.272522,341.462128 
	C787.351685,332.983154 788.330994,324.485168 787.968018,316.036499 
	C787.516296,305.519623 785.782471,295.062225 785.177673,284.546082 
	C784.694946,276.151459 785.957214,275.198761 794.571228,275.147095 
	C797.894348,275.127167 801.219360,275.424957 804.965942,275.598572 
M814.126648,282.777802 
	C814.517944,279.304504 812.944458,278.043549 809.507874,278.154510 
	C803.854492,278.336945 798.182251,278.388519 792.534485,278.131866 
	C788.707764,277.958008 787.600891,279.477173 787.810486,283.097168 
	C788.299500,291.543488 788.624512,299.890381 789.901062,308.380035 
	C791.784607,320.907227 790.240967,333.938354 790.334595,346.753571 
	C790.359863,350.220398 789.100281,351.275818 785.660828,352.198700 
	C775.972168,354.798462 766.505798,358.226593 756.350464,361.523376 
	C758.953308,366.484344 761.039612,370.236206 762.906494,374.094299 
	C764.257996,376.887390 765.915894,377.424286 768.886353,376.305450 
	C778.063843,372.848755 787.297302,369.509644 796.646118,366.559265 
	C799.251404,365.737030 802.569519,365.694885 805.152832,366.540527 
	C815.660278,369.980103 826.009338,373.903687 836.847290,377.803772 
	C839.622864,372.654480 842.410706,367.482483 845.635132,361.500427 
	C835.831848,358.209229 827.030579,354.639832 817.899109,352.441650 
	C813.160339,351.300934 811.396606,349.797729 811.812195,345.041473 
	C813.086609,330.458344 809.927856,315.739716 813.872498,301.137543 
	C815.339722,295.706024 814.123962,289.549774 814.126648,282.777802 
M757.297729,315.197662 
	C753.275085,313.503326 750.040283,314.928955 749.041077,318.784332 
	C748.557678,320.649445 750.055420,324.008301 751.725159,325.231110 
	C754.519592,327.277588 757.497070,325.735077 759.321594,322.912598 
	C761.115295,320.137939 760.535889,317.569000 757.297729,315.197662 
M842.389954,321.137512 
	C844.399780,322.765778 846.209656,325.067261 848.501038,325.747742 
	C849.706787,326.105835 852.584167,323.945007 853.188782,322.347260 
	C853.799377,320.733337 853.130188,317.857574 851.922180,316.551971 
	C850.715332,315.247711 847.614258,314.176971 846.303833,314.856293 
	C844.495911,315.793488 843.588806,318.468170 842.389954,321.137512 
z"/>
<path fill="#0D374F" opacity="1.000000" stroke="none" 
	d="
M843.715881,536.780334 
	C841.604370,538.745728 839.695618,541.007935 837.340454,542.616516 
	C831.946594,546.300476 831.857605,550.698181 837.497925,554.185059 
	C839.031067,555.132874 840.843201,555.641663 842.548889,556.295593 
	C846.434875,557.785217 848.799683,560.144470 849.164612,564.705017 
	C849.331116,566.785583 851.558655,568.637512 852.569336,570.729431 
	C854.002380,573.695679 856.289856,576.827271 856.184082,579.816528 
	C856.043274,583.795166 852.220581,586.460449 848.437561,586.172424 
	C845.618774,585.957886 842.534546,583.820679 840.370911,581.715210 
	C837.350037,578.775635 834.769470,575.253784 832.576233,571.632446 
	C830.652161,568.455750 829.005737,564.918213 828.171875,561.323120 
	C827.147156,556.905212 825.849365,553.033752 821.658386,550.681763 
	C817.899414,548.572205 815.540039,549.563049 815.043457,553.848999 
	C814.623169,557.476868 814.501282,561.152405 814.465576,564.809021 
	C814.382996,573.257935 812.821472,582.128052 814.883484,590.039307 
	C816.931519,597.897156 816.262878,605.453308 816.760742,613.137817 
	C817.179688,619.604370 813.653503,622.824707 807.208313,622.145691 
	C806.877502,622.110901 806.462830,621.945740 806.225891,622.082153 
	C800.630798,625.301880 795.055847,620.917419 789.456970,622.059326 
	C786.791626,622.602966 785.060303,621.320374 785.224121,618.607239 
	C785.778076,609.430237 783.581543,600.227295 787.215210,591.006897 
	C789.046936,586.358948 787.952698,580.527161 788.033997,575.228455 
	C788.125916,569.233582 787.884583,563.229919 788.109192,557.242126 
	C788.260620,553.206787 785.994751,550.364685 782.843018,549.891724 
	C780.991089,549.613831 778.182373,552.450134 776.613831,554.504211 
	C775.176453,556.386292 774.837097,559.102600 773.994995,561.444580 
	C773.157654,563.773315 772.691162,566.352356 771.369568,568.367493 
	C767.840515,573.748535 764.317078,579.218811 760.076477,584.022522 
	C756.119568,588.504944 753.377991,588.070374 748.027466,583.718872 
	C744.282043,580.672668 744.483704,576.687500 746.864075,573.437927 
	C749.980164,569.183777 753.041870,565.372131 754.128723,559.797668 
	C754.572693,557.520569 759.350342,555.668579 762.478821,554.452759 
	C765.611389,553.235229 769.101501,552.192810 768.619568,548.471497 
	C768.333618,546.262939 765.704102,544.235107 763.855896,542.400391 
	C762.839294,541.391174 761.248718,540.968323 759.933472,540.250671 
	C753.563538,536.775024 753.206055,535.877258 755.890137,529.263367 
	C757.038574,526.433594 757.796387,523.175232 759.723999,520.984863 
	C764.544373,515.507690 769.946655,518.770508 775.248535,520.692444 
	C778.714417,521.948853 782.414124,522.546387 785.932983,523.676025 
	C787.937561,524.319458 789.907898,525.251648 791.689087,526.377441 
	C798.986267,530.989319 802.978271,530.806885 810.073730,526.175049 
	C812.261536,524.746826 815.244995,524.569153 817.825806,523.704590 
	C822.359131,522.185913 826.903442,520.684998 831.367493,518.978638 
	C835.587524,517.365662 842.909119,519.428772 844.703735,523.517578 
	C846.211365,526.952576 846.924927,530.774780 847.592896,534.496887 
	C847.690552,535.041199 845.581604,535.981506 844.316406,536.434814 
	C842.592468,532.315247 841.013977,528.511902 839.508423,524.679810 
	C838.144104,521.207214 836.060120,520.496155 832.471252,521.848206 
	C823.300720,525.302917 814.022461,528.487244 804.700562,531.512695 
	C802.647461,532.179016 800.055481,532.325867 798.020203,531.703125 
	C790.395996,529.370300 782.851257,526.751038 775.367249,523.993286 
	C764.955933,520.156921 764.983887,520.058533 759.925842,529.681824 
	C759.012268,531.420105 758.182861,533.202759 756.784424,536.040894 
	C766.395813,539.321106 775.469421,542.985962 784.866333,545.383423 
	C789.518433,546.570312 790.883606,548.383057 790.479553,552.713928 
	C789.106018,567.435730 792.579468,582.316833 788.196228,597.052063 
	C786.554504,602.570984 787.917542,608.961121 787.747070,614.949402 
	C787.656616,618.129761 789.264648,618.929565 792.060486,618.874146 
	C797.718140,618.761963 803.385132,618.616577 809.035583,618.826782 
	C812.924194,618.971497 814.422363,617.578979 814.214172,613.641663 
	C813.790771,605.635620 813.269470,597.700317 812.293091,589.695251 
	C810.713196,576.740906 811.960876,563.448547 811.872192,550.299927 
	C811.852417,547.359497 813.100037,546.361145 815.828918,545.735779 
	C820.998657,544.551086 826.093201,542.990967 831.147644,541.365112 
	C835.389709,540.000488 839.530334,538.320618 843.715881,536.780334 
M849.847778,583.414612 
	C852.804871,582.192932 854.728577,579.883057 853.558716,576.882812 
	C852.802612,574.943665 850.484131,572.610474 848.628357,572.382080 
	C846.726257,572.147766 843.872559,573.764465 842.604980,575.450439 
	C839.766541,579.225830 843.085571,583.210999 849.847778,583.414612 
M749.174805,581.169922 
	C751.964783,584.386047 755.154480,584.931519 758.206726,581.845154 
	C761.100830,578.918762 759.913574,575.753967 757.098999,573.713501 
	C755.657898,572.668640 752.858704,572.240479 751.268921,572.922363 
	C748.097656,574.282654 747.406067,577.244751 749.174805,581.169922 
z"/>
<path fill="#0D374F" opacity="1.000000" stroke="none" 
	d="
M896.275146,544.831116 
	C897.329224,541.937256 897.998352,538.817566 899.531311,536.204773 
	C901.608215,532.664856 902.812256,530.133240 899.484070,526.148560 
	C891.617981,516.730896 892.320251,514.457214 903.422791,508.853943 
	C908.595642,506.243286 914.232605,504.232208 919.209534,508.938232 
	C921.213257,510.832947 922.031311,513.981689 923.389893,516.559204 
	C929.370972,513.953430 933.805908,504.892792 933.862000,497.758118 
	C933.942810,487.484528 934.585815,477.184784 935.624573,466.960785 
	C936.247192,460.832794 940.918701,457.777313 947.150208,457.997223 
	C951.311523,458.144104 955.486145,457.970612 959.642578,458.182007 
	C965.461182,458.477905 967.883728,461.910248 966.587585,467.446411 
	C964.248474,477.437347 961.117310,487.197937 961.667358,497.794312 
	C962.102966,506.186615 966.686096,509.856842 974.281677,506.349854 
	C982.316467,502.640076 989.307617,506.220734 988.645691,514.071838 
	C988.445740,516.444214 986.524536,519.716919 984.508301,520.633484 
	C981.824585,521.853394 977.431458,522.444519 975.290283,521.021851 
	C971.711060,518.643616 969.065857,517.831543 965.436523,520.234802 
	C964.433655,520.898865 962.826660,520.984741 961.550476,520.845215 
	C955.427002,520.175659 952.541626,523.390991 950.629517,528.780273 
	C949.527100,531.887512 946.735474,534.377808 945.514526,537.466187 
	C944.541748,539.926697 943.933289,543.127686 944.653137,545.558899 
	C948.017639,556.921875 941.647034,564.215027 934.554382,571.247925 
	C931.162537,574.611206 927.558899,573.274353 924.107239,571.031006 
	C922.594666,570.047913 921.022949,568.324036 919.501099,568.348877 
	C915.505371,568.414124 913.166016,567.414673 913.206238,562.957336 
	C913.212952,562.204590 912.092957,560.816101 911.434387,560.779297 
	C904.389404,560.385498 902.211731,552.706970 896.139587,550.715820 
	C894.081360,550.040894 891.393311,547.675537 895.922729,545.498779 
	C906.675964,553.382324 916.863586,561.144165 927.233643,568.654236 
	C928.395142,569.495422 931.467896,569.666260 932.163330,568.860657 
	C936.475464,563.866272 940.361328,558.503906 944.627197,552.953247 
	C942.051086,550.857361 940.044373,549.156921 937.964172,547.551697 
	C935.927917,545.980286 935.435425,544.496399 937.101746,542.126831 
	C942.741577,534.106750 948.166687,525.935730 954.147278,517.867554 
	C956.910645,517.922058 959.371338,518.456055 961.439514,517.783325 
	C963.264038,517.189758 964.650391,515.249329 966.230225,513.903564 
	C964.777405,512.332336 963.502563,510.513062 961.799072,509.291260 
	C960.905457,508.650299 959.260803,509.056488 957.893555,508.542694 
	C958.043823,505.777344 958.236206,503.457123 958.471191,501.141205 
	C959.647766,489.545319 960.804443,477.947235 962.039001,466.357513 
	C962.390076,463.061737 961.451355,461.355927 957.763733,461.520508 
	C953.108093,461.728271 948.413635,461.317596 943.785095,461.728394 
	C942.404663,461.850922 940.228271,463.701508 940.049744,464.987122 
	C938.562073,475.700287 936.342590,486.485535 936.525879,497.211731 
	C936.740417,509.764923 928.087830,516.743713 922.647888,526.097961 
	C920.826599,525.036865 919.534729,524.543091 918.577271,523.678772 
	C915.463440,520.867981 913.356445,521.617126 911.044678,524.919983 
	C906.307922,531.687439 901.219055,538.208557 896.275146,544.831116 
M980.283142,508.206818 
	C976.900452,508.005219 974.530457,509.703979 974.386719,512.894897 
	C974.307922,514.643677 975.700867,517.288330 977.186462,518.045715 
	C978.685425,518.809875 981.524292,518.356079 983.061707,517.347168 
	C986.488037,515.098633 985.474243,511.238708 980.283142,508.206818 
M915.493591,565.467651 
	C915.493591,565.467651 915.513672,565.519775 915.493591,565.467651 
z"/>
<path fill="#0D374F" opacity="1.000000" stroke="none" 
	d="
M952.758606,379.110016 
	C947.672119,371.514008 942.695068,363.841156 937.441650,356.362396 
	C935.518860,353.625153 936.231995,352.130219 938.503235,350.161804 
	C945.791138,343.845612 945.376526,345.990021 939.741333,337.798920 
	C937.389648,334.380585 934.648987,331.229340 932.067017,327.971039 
	C931.872314,327.725311 931.532410,327.594635 930.744446,327.061829 
	C923.301147,332.497345 915.680969,338.056000 908.067871,343.624359 
	C904.709656,346.080597 901.243408,348.414032 898.095825,351.117218 
	C897.238281,351.853729 896.617126,354.260834 897.146423,355.001312 
	C902.449646,362.420715 908.015991,369.652130 913.439575,376.845490 
	C923.406372,372.831482 923.075745,373.064331 929.374512,382.008423 
	C934.051392,388.649414 936.248718,395.347229 936.323792,403.637909 
	C936.415039,413.714783 938.479065,423.788239 939.989502,433.817993 
	C940.162048,434.964142 942.210632,436.592499 943.475098,436.674438 
	C948.448608,436.996826 953.457397,436.724426 958.450928,436.806763 
	C961.110413,436.850647 962.000427,435.596375 961.801086,433.126801 
	C961.386169,427.985748 961.020996,422.840729 960.680176,417.286316 
	C961.998535,419.568726 963.551270,422.171448 964.464111,424.982025 
	C965.308105,427.580841 965.466736,430.402222 966.117188,433.657593 
	C966.291992,434.439117 966.256836,434.685516 966.201721,434.928711 
	C964.729492,438.252350 962.750244,440.069061 958.545532,439.567749 
	C954.138611,439.042328 949.577332,439.977264 945.110291,439.749298 
	C939.020752,439.438599 937.641174,437.348511 936.975342,431.427246 
	C936.048462,423.183807 934.478760,415.013702 933.248291,406.802582 
	C932.982300,405.028046 932.586121,403.127808 932.943054,401.431335 
	C934.219055,395.367035 930.948669,390.755096 928.091248,386.172028 
	C926.285034,383.274933 923.584351,384.357361 921.984375,386.757263 
	C917.843323,392.969055 912.043457,392.584625 905.972412,391.045990 
	C902.760010,390.231842 899.498535,389.335785 896.524536,387.919586 
	C891.647461,385.597290 891.000549,381.436066 894.565979,377.343353 
	C895.985352,375.714081 897.612183,374.260742 898.980103,372.592438 
	C902.690063,368.067749 902.150635,364.692413 897.299377,361.336304 
	C890.827881,356.859344 890.523315,353.140717 896.683289,348.120972 
	C901.622070,344.096466 907.243164,340.862274 911.896851,336.558624 
	C913.668640,334.920044 913.586670,331.276886 914.473572,328.103882 
	C915.037170,328.222809 916.127441,328.313660 917.111206,328.685883 
	C920.374023,329.920471 923.039062,329.483002 925.804871,327.044708 
	C927.662598,325.406952 930.320557,324.461426 932.780640,323.828827 
	C933.760986,323.576721 935.566528,324.711914 936.310059,325.721191 
	C938.138550,328.203308 939.348450,331.145538 941.206665,333.600372 
	C944.704834,338.221710 946.484802,343.060852 945.103027,348.943756 
	C942.635498,359.449280 947.637024,367.574646 954.019165,375.092377 
	C954.879089,376.105347 956.563538,376.483246 957.927368,376.990509 
	C961.109619,378.174011 964.275208,379.476746 967.557617,380.283051 
	C969.071899,380.655060 970.877991,380.122192 972.492004,379.744263 
	C975.478027,379.045074 978.445190,377.415283 981.374817,377.514374 
	C986.398132,377.684296 988.872009,381.137360 988.796021,386.348419 
	C988.734375,390.573059 985.850769,393.668213 981.005981,393.684509 
	C978.164978,393.694092 975.309448,392.485657 972.479980,391.750153 
	C970.596252,391.260498 968.746948,390.638550 966.429504,390.024872 
	C965.976807,389.973969 965.852905,389.839294 965.975098,389.537170 
	C968.243835,383.200104 966.320312,380.196960 960.123718,380.070190 
	C957.969177,380.026093 955.809204,380.251892 953.651672,380.354401 
	C953.651672,380.354401 953.728638,380.254395 953.630981,380.061462 
	C953.275146,379.615723 953.016846,379.362885 952.758606,379.110016 
M981.081543,390.800629 
	C984.403076,389.799927 985.634399,387.260223 984.805054,384.256775 
	C984.367188,382.671265 982.648010,380.767944 981.110474,380.292969 
	C977.554871,379.194550 974.935364,380.808319 974.178955,384.639801 
	C973.426270,388.452393 975.371765,390.392944 981.081543,390.800629 
M940.895081,355.171295 
	C940.990601,355.119965 941.086182,355.068634 941.181702,355.017303 
	C941.112122,354.938171 941.042542,354.859039 940.972961,354.779907 
	C940.911377,354.869690 940.849731,354.959503 940.895081,355.171295 
M923.951782,381.828735 
	C924.000122,381.831665 924.048523,381.834625 923.951782,381.828735 
z"/>
<path fill="#0D374F" opacity="1.000000" stroke="none" 
	d="
M658.072815,545.767761 
	C660.059021,540.816589 658.692200,537.286377 653.968994,534.629395 
	C652.624390,533.872986 651.576782,531.732056 651.308167,530.077515 
	C650.447266,524.773254 647.083557,522.573608 642.282837,521.416138 
	C640.191162,520.911804 638.302490,519.565613 636.634033,518.279053 
	C640.480835,517.847412 644.015198,517.738464 647.833557,517.792419 
	C654.180786,526.871216 660.244141,535.787109 666.570190,545.089355 
	C663.545044,547.803833 660.621948,550.426575 657.079590,553.605103 
	C661.367615,558.994141 665.476379,564.356323 669.894836,569.449829 
	C670.422852,570.058533 672.948608,569.668640 674.014771,568.950012 
	C678.841675,565.696350 683.501953,562.192017 688.174988,558.714478 
	C693.984192,554.391357 699.747009,550.005859 705.979248,545.308594 
	C700.144836,537.538513 694.867676,530.341064 689.326599,523.352905 
	C688.658203,522.509949 685.877380,522.073120 685.235718,522.678223 
	C680.068604,527.550720 677.483459,524.686890 674.878418,519.907288 
	C672.735596,515.975708 669.913757,512.419983 667.598999,508.573578 
	C666.688354,507.060303 665.993408,505.250305 665.789734,503.506622 
	C664.786926,494.921570 664.112061,486.297455 663.059509,477.719269 
	C662.409119,472.418884 663.034912,464.974854 659.912170,462.499634 
	C656.494629,459.790741 649.415955,461.777832 643.939148,461.561279 
	C640.603943,461.429443 639.534424,462.876984 639.864502,466.073425 
	C640.514038,472.362915 640.971069,478.672272 641.307983,484.985291 
	C641.108215,484.997192 640.713135,485.062012 640.713135,485.062012 
	C635.917908,478.790985 636.854614,471.087952 635.821106,463.969360 
	C635.382690,460.949585 637.643982,457.867706 641.624756,457.880341 
	C646.951477,457.897247 652.281799,457.996429 657.602844,458.234467 
	C663.076599,458.479309 666.144531,462.150024 666.572876,467.597748 
	C667.292725,476.752350 668.458496,485.871399 669.356689,495.013245 
	C669.444275,495.904724 669.041321,496.873138 668.750549,497.768341 
	C667.104614,502.835175 672.880554,514.693542 678.291931,516.921997 
	C678.698303,516.288086 679.231628,515.660889 679.543884,514.938171 
	C683.511841,505.755219 688.483948,503.891388 697.573364,508.252533 
	C699.073486,508.972290 700.520874,509.804169 701.978149,510.610504 
	C704.289612,511.889465 707.638977,512.699646 708.547852,514.643799 
	C709.226746,516.096069 706.564026,518.957153 705.709106,521.307190 
	C702.450012,530.265503 701.772766,538.946472 709.539001,546.752075 
	C703.681885,551.190063 698.055481,555.463562 692.411255,559.713196 
	C691.885254,560.109253 690.803162,560.271179 690.725403,560.682861 
	C689.352905,567.942871 681.804626,567.361572 677.622192,571.038330 
	C674.630493,573.668335 671.147522,574.419312 667.656494,571.662415 
	C662.274414,567.412048 658.586304,561.842651 656.803528,555.372192 
	C656.092224,552.790649 657.507629,549.623108 658.071899,546.304321 
	C658.188843,545.886353 658.072815,545.767761 658.072815,545.767761 
z"/>
<path fill="#0D374F" opacity="1.000000" stroke="none" 
	d="
M644.295959,388.241638 
	C643.531311,395.885895 642.766663,403.530182 641.835327,411.695740 
	C641.557495,412.479675 641.565063,412.738373 641.691284,412.993134 
	C640.997864,420.711029 640.304443,428.428925 639.556091,436.757904 
	C646.775696,436.757904 653.066528,436.897614 659.337402,436.607483 
	C660.279358,436.563873 661.779358,434.585510 661.920044,433.374237 
	C663.416626,420.491455 664.642151,407.577362 666.083008,394.687622 
	C666.277100,392.951385 667.015076,391.167053 667.904114,389.639496 
	C669.912537,386.188751 672.158447,382.875244 674.334045,379.522919 
	C678.538391,373.044617 678.498352,373.171967 685.728088,375.980194 
	C686.852051,376.416748 689.197205,375.608124 690.026550,374.596039 
	C695.377502,368.066101 700.464172,361.319580 705.833862,354.379303 
	C709.261597,354.361389 709.963806,355.722290 707.686218,358.150330 
	C706.785950,359.110046 705.567505,359.762543 704.569092,360.640381 
	C700.114258,364.557281 699.826050,367.134735 702.892761,372.121521 
	C704.628601,374.944153 706.473755,377.808563 707.545105,380.904877 
	C709.074768,385.325958 705.471497,387.869019 702.501770,389.443878 
	C696.942078,392.392212 690.754761,393.312836 684.632507,390.951477 
	C682.727478,390.216736 680.987671,388.751495 679.506226,387.283600 
	C676.453979,384.259338 673.718445,384.139526 672.092041,388.031708 
	C670.289795,392.344604 669.338745,397.074432 668.494324,401.709656 
	C667.601685,406.609253 667.260193,411.610046 666.698364,416.568970 
	C666.081421,422.014374 665.279785,427.450104 664.955322,432.913605 
	C664.730774,436.696198 663.245300,439.070648 659.433472,439.263123 
	C653.295654,439.573029 647.138489,439.770660 640.997559,439.638763 
	C637.616516,439.566132 635.958801,437.211548 636.199097,433.866913 
	C636.449341,430.382782 636.884583,426.907501 637.360291,423.444977 
	C638.372559,416.075897 639.712891,408.740967 640.405151,401.343964 
	C640.701294,398.179871 639.714172,394.895660 639.512329,391.272217 
	C641.241638,389.999451 642.768799,389.120544 644.295959,388.241638 
z"/>
<path fill="#10496A" opacity="1.000000" stroke="none" 
	d="
M644.504517,387.902344 
	C642.768799,389.120544 641.241638,389.999451 639.391479,390.913513 
	C637.928040,390.738861 636.669250,390.768646 635.669312,390.274597 
	C632.575073,388.745819 630.231323,389.085846 627.721008,391.765472 
	C625.122925,394.538818 619.192200,393.724030 615.891785,390.775848 
	C612.365234,387.625580 613.338135,384.180542 615.393921,380.884003 
	C617.589966,377.362732 624.537842,376.269379 627.885010,379.163239 
	C630.862183,381.737305 633.378784,382.673401 636.514343,379.679749 
	C637.182678,379.041748 638.325745,378.513336 639.217957,378.559174 
	C645.918335,378.903687 649.295044,374.702637 652.271729,369.584991 
	C654.942200,364.993744 658.027649,360.645386 660.782288,356.100342 
	C661.292664,355.258270 661.100037,353.990173 661.231873,352.918671 
	C660.247742,352.999054 659.263611,353.079437 658.619080,353.132080 
	C652.189697,341.392548 662.986877,334.131683 667.140076,324.583801 
	C673.674377,323.450775 677.793335,328.697449 682.553894,331.731628 
	C689.243896,335.995453 695.299988,341.271698 701.498840,346.274017 
	C702.820435,347.340546 703.591370,349.089508 704.655518,350.872559 
	C693.610413,343.317200 682.525818,335.413330 670.658081,326.951019 
	C666.564697,332.442078 662.397827,337.729797 658.713867,343.334961 
	C658.223145,344.081512 659.829102,346.810303 661.067566,347.984955 
	C666.598083,353.230621 666.542053,353.059967 662.493713,359.322601 
	C656.455139,368.663879 650.629395,378.142731 644.504517,387.902344 
M627.429871,387.803497 
	C626.753967,385.428070 626.505310,382.771332 625.209961,380.803711 
	C624.620911,379.908875 621.535706,379.676514 620.343689,380.399048 
	C618.726135,381.379456 617.085693,383.473633 616.870239,385.260742 
	C616.689392,386.760956 618.391968,389.756866 619.512329,389.884674 
	C621.945557,390.162231 624.539490,389.030273 627.429871,387.803497 
z"/>
<path fill="#2AAADA" opacity="1.000000" stroke="none" 
	d="
M607.434692,437.070801 
	C608.218384,437.068817 608.564514,437.125824 608.882446,437.055328 
	C619.800415,434.634674 626.321960,440.638885 631.881348,449.518433 
	C629.042847,452.729584 626.403931,456.717712 622.800598,459.419586 
	C620.598206,461.070953 616.918762,461.193237 613.894043,461.226471 
	C603.738708,461.338074 603.743347,461.204773 603.785645,451.295837 
	C603.801270,447.633728 603.521973,443.942719 603.923950,440.325684 
	C604.055542,439.141846 605.914795,438.149994 607.434692,437.070801 
z"/>
<path fill="#2AAADA" opacity="1.000000" stroke="none" 
	d="
M878.949036,483.990631 
	C877.862732,482.955780 876.947144,481.513000 875.654175,480.971893 
	C873.049500,479.881714 872.071533,478.607391 873.043579,475.675964 
	C874.240356,472.066956 874.688599,468.207855 875.912964,464.610901 
	C876.361694,463.292603 878.035950,461.587830 879.269165,461.485779 
	C883.555664,461.131073 887.922424,461.137909 892.195129,461.597595 
	C893.458618,461.733551 895.628174,463.985168 895.478699,464.981964 
	C894.596069,470.870422 893.194092,476.684204 891.880859,482.503693 
	C891.149719,485.744019 889.255066,486.167603 886.303772,484.938446 
	C884.078613,484.011658 881.585022,483.729645 879.097656,483.573669 
	C878.984436,483.986725 878.949036,483.990631 878.949036,483.990631 
z"/>
<path fill="#2AAADA" opacity="1.000000" stroke="none" 
	d="
M706.128357,432.172455 
	C707.378967,426.439606 708.659668,421.114105 709.757629,415.751190 
	C710.360474,412.806549 711.956116,412.381866 714.462341,413.336182 
	C719.114014,415.107422 723.783936,416.830505 729.083191,418.811768 
	C728.023560,424.261871 727.030457,429.930359 725.696838,435.517609 
	C725.530579,436.214050 723.571472,436.849487 722.425232,436.881989 
	C717.279480,437.027771 712.127319,436.945526 706.443359,436.945526 
	C706.312195,435.353912 706.197266,433.959045 706.128357,432.172455 
z"/>
<path fill="#3E9CC2" opacity="1.000000" stroke="none" 
	d="
M721.681274,505.802063 
	C720.453857,503.720184 719.371765,501.955627 718.280090,500.175476 
	C723.147400,497.078064 727.484863,494.056946 732.106567,491.562469 
	C733.244507,490.948303 735.629333,491.598267 736.865356,492.476929 
	C738.409668,493.574829 739.370544,495.501099 740.562561,497.085358 
	C742.717102,499.948608 747.284363,504.101929 746.566956,505.464417 
	C743.947449,510.439331 739.687012,514.604187 735.704590,518.747070 
	C735.133911,519.340698 732.126160,518.658447 731.219666,517.672058 
	C727.867676,514.024292 724.923828,510.001373 721.681274,505.802063 
M726.998474,507.488922 
	C727.579895,508.489502 728.094543,509.536682 728.753845,510.483002 
	C732.445496,515.781677 736.663147,515.160339 740.387146,509.873230 
	C743.723511,505.136475 740.693359,502.211945 738.672546,498.864807 
	C735.908997,494.287415 733.156311,494.036713 727.866638,497.548187 
	C723.663391,500.338501 723.389648,502.335571 726.998474,507.488922 
z"/>
<path fill="#3E9CC2" opacity="1.000000" stroke="none" 
	d="
M872.315063,515.465942 
	C867.698120,520.505981 867.592224,520.610352 863.169495,516.122131 
	C860.513306,513.426697 858.125610,510.434662 855.897644,507.371887 
	C855.348755,506.617401 855.436096,504.733978 856.013977,503.938110 
	C858.932251,499.919220 861.988281,495.981049 865.281738,492.267944 
	C866.085693,491.361542 868.399292,490.646149 869.278259,491.145752 
	C874.009277,493.834808 878.506775,496.934723 883.939636,500.445160 
	C879.934204,505.635895 876.235779,510.428802 872.315063,515.465942 
M872.397888,510.572144 
	C873.689575,508.555115 875.184448,506.633820 876.197144,504.485291 
	C876.806213,503.193085 877.238831,500.485382 876.767334,500.230072 
	C873.446716,498.432037 869.890137,496.012115 866.370300,495.949036 
	C863.114014,495.890686 859.609131,505.302643 860.941711,508.466309 
	C864.071289,515.895874 867.193420,516.670837 872.397888,510.572144 
z"/>
<path fill="#3E9CC2" opacity="1.000000" stroke="none" 
	d="
M728.170105,480.406738 
	C723.556213,482.130066 719.153137,483.573151 714.874695,485.321320 
	C712.284851,486.379547 710.658752,485.967987 710.017273,483.183624 
	C708.677002,477.365021 707.355103,471.540497 706.157532,465.691376 
	C705.598267,462.959869 706.443237,461.143250 709.719849,461.202759 
	C714.371033,461.287201 719.368103,460.136292 723.591492,461.480225 
	C728.941650,463.182770 726.214233,469.589844 728.113037,473.608093 
	C728.988403,475.460541 728.372864,478.017548 728.170105,480.406738 
M714.653137,482.612396 
	C717.474304,481.669281 720.401489,480.947815 723.064087,479.673370 
	C724.120483,479.167694 725.240112,477.414215 725.203064,476.265167 
	C725.096436,472.960541 724.590454,469.637665 723.912292,466.390717 
	C723.117554,462.585693 719.763245,462.563385 717.111206,463.123657 
	C714.481506,463.679169 710.027283,465.393890 709.988525,466.706879 
	C709.828674,472.126617 709.314392,478.059875 714.653137,482.612396 
z"/>
<path fill="#3E9CC2" opacity="1.000000" stroke="none" 
	d="
M975.110474,455.949982 
	C969.163147,449.024414 969.739136,449.446899 974.827148,442.510101 
	C980.790588,434.379730 988.744324,437.511597 996.174805,437.311249 
	C996.841248,437.293274 998.132690,439.131622 998.158875,440.133331 
	C998.336365,446.922852 998.251648,453.719238 998.251648,461.511688 
	C990.170227,460.022400 981.364807,465.426697 975.110474,455.949982 
M977.023315,444.398773 
	C974.606140,446.353638 974.233887,448.504578 975.661987,451.403107 
	C978.194763,456.543610 984.463867,459.647644 991.480103,459.030029 
	C994.659180,458.750214 995.792786,457.355591 995.503357,454.168213 
	C995.235413,451.217346 995.263489,448.191223 995.594971,445.247070 
	C995.972168,441.896210 994.856079,440.175720 991.441650,439.933197 
	C986.311157,439.568787 981.454468,440.062317 977.023315,444.398773 
z"/>
<path fill="#3E9CC2" opacity="1.000000" stroke="none" 
	d="
M886.846436,413.372253 
	C889.685791,412.248444 891.568970,412.213531 892.216797,415.630035 
	C893.265564,421.160675 894.690308,426.618958 895.819153,432.135864 
	C896.485107,435.390747 895.272949,436.924896 891.641968,437.119080 
	C876.539490,437.926819 874.732178,436.532898 873.115723,421.154480 
	C873.004272,420.094391 874.308960,418.305908 875.393188,417.805603 
	C878.999451,416.141510 882.805786,414.910767 886.846436,413.372253 
M892.070251,426.634491 
	C890.855530,415.722046 887.155396,413.916595 878.685547,419.733917 
	C874.621460,422.525299 876.974670,425.544556 877.698425,428.533173 
	C879.007935,433.940765 881.484314,435.531982 886.899780,434.987122 
	C891.658997,434.508301 892.158752,431.241272 892.070251,426.634491 
z"/>
<path fill="#0D374F" opacity="1.000000" stroke="none" 
	d="
M855.456177,387.345551 
	C858.016541,384.190094 859.818604,380.496094 862.774170,378.600800 
	C868.489990,374.935425 874.577148,377.450195 877.587341,383.524200 
	C878.661438,385.691559 880.410828,387.519531 881.809998,389.531616 
	C884.019958,392.709625 886.194397,395.912384 888.208740,398.849274 
	C883.421631,402.283569 879.499023,405.127258 875.545410,407.927155 
	C869.299500,412.350555 861.188599,409.870483 858.284790,402.804413 
	C857.559082,401.038635 856.554382,399.196381 855.182922,397.921967 
	C850.493713,393.564209 850.407410,392.183960 855.456177,387.345551 
M864.952576,404.082184 
	C864.952576,404.082184 864.861877,404.125305 864.965088,404.822906 
	C866.253601,405.722717 868.108582,407.689362 868.741028,407.353577 
	C873.792236,404.671692 878.611938,401.553833 884.350281,398.052246 
	C878.507263,390.763611 873.327454,384.302246 867.752258,377.347717 
	C863.011780,383.049164 859.118896,387.731232 855.123291,392.536804 
	C857.844177,395.902222 860.320312,398.994507 862.835388,402.054901 
	C863.457336,402.811768 864.205505,403.464966 864.952576,404.082184 
z"/>
<path fill="#0D374F" opacity="1.000000" stroke="none" 
	d="
M734.962097,378.284668 
	C735.912537,378.098114 736.908203,377.630035 737.805603,377.774078 
	C741.530762,378.371979 750.020630,390.835358 749.093689,394.478363 
	C748.814331,395.576080 747.522278,396.383850 746.832214,397.416626 
	C745.678833,399.142670 744.099487,400.818573 743.655579,402.736847 
	C742.627380,407.180939 737.051147,411.510803 732.820496,410.064270 
	C729.273254,408.851410 726.001282,406.801178 722.670837,405.004150 
	C721.520813,404.383636 720.651611,402.879913 719.500549,402.684448 
	C713.284546,401.628876 714.371582,397.876709 716.724304,394.470123 
	C720.377686,389.180298 724.512024,384.207245 728.684692,379.306122 
	C729.406677,378.458069 731.326721,378.630035 732.838562,378.787720 
	C728.000732,385.212128 723.017761,391.179596 717.412048,397.892914 
	C723.039551,401.317566 728.053345,404.464355 733.200989,407.374481 
	C733.811523,407.719666 735.524475,407.073181 736.096436,406.372253 
	C739.751892,401.892273 743.231140,397.268433 746.855408,392.579254 
	C742.812622,387.720184 738.887329,383.002411 734.962097,378.284668 
z"/>
<path fill="#3E9CC2" opacity="1.000000" stroke="none" 
	d="
M734.660156,378.288757 
	C738.887329,383.002411 742.812622,387.720184 746.855408,392.579254 
	C743.231140,397.268433 739.751892,401.892273 736.096436,406.372253 
	C735.524475,407.073181 733.811523,407.719666 733.200989,407.374481 
	C728.053345,404.464355 723.039551,401.317566 717.412048,397.892914 
	C723.017761,391.179596 728.000732,385.212128 733.096436,378.954529 
	C733.592163,378.540558 733.975159,378.416687 734.660156,378.288757 
M735.298340,383.489197 
	C732.646912,384.220581 724.445129,393.317078 724.190674,395.846985 
	C724.142151,396.329163 724.065247,397.092560 724.323181,397.277557 
	C726.918091,399.138489 729.393799,401.412415 732.303162,402.481689 
	C733.718018,403.001648 736.260803,401.578644 737.779663,400.383148 
	C739.403625,399.104950 740.770081,397.207977 741.591187,395.298279 
	C742.194885,393.894318 742.355042,391.663177 741.626648,390.455994 
	C740.122803,387.963501 737.893555,385.908661 735.298340,383.489197 
z"/>
<path fill="#0D374F" opacity="1.000000" stroke="none" 
	d="
M635.060913,516.872314 
	C633.145752,517.696289 631.261169,518.603516 629.307495,519.322937 
	C626.917297,520.203125 624.430725,521.696594 622.052979,521.578308 
	C613.517944,521.153381 610.619873,516.178467 614.651001,508.619354 
	C615.601685,506.836609 619.087036,505.070557 621.027283,505.417358 
	C625.631348,506.240448 630.008240,508.334351 634.753479,510.409607 
	C635.040283,512.893860 635.050598,514.883057 635.060913,516.872314 
M621.646423,508.054718 
	C617.427368,508.669220 615.964417,511.394897 616.838989,515.188843 
	C617.615601,518.557861 620.624329,519.748596 623.454651,518.682556 
	C625.321655,517.979370 627.434692,515.645813 627.799133,513.730469 
	C628.476624,510.170135 625.879578,508.403503 621.646423,508.054718 
z"/>
<path fill="#1B6A8F" opacity="1.000000" stroke="none" 
	d="
M705.311707,563.902344 
	C704.420593,559.953064 705.550537,556.883301 709.258789,556.430176 
	C711.625305,556.141052 715.251648,557.035400 716.428101,558.717590 
	C717.589539,560.378113 717.189270,564.156982 716.036560,566.192322 
	C713.774170,570.187012 708.518799,569.032227 705.311707,563.902344 
z"/>
<path fill="#1B6A8F" opacity="1.000000" stroke="none" 
	d="
M897.003174,560.323853 
	C897.048828,560.999390 897.062683,561.332092 897.053467,561.664124 
	C896.944275,565.594055 894.972534,567.918579 891.031433,568.244873 
	C887.786011,568.513550 885.454163,566.997253 884.813904,563.759949 
	C884.109924,560.200684 885.627930,557.451599 889.064453,556.264343 
	C892.712036,555.004089 895.625427,555.988586 897.003174,560.323853 
z"/>
<path fill="#0D374F" opacity="1.000000" stroke="none" 
	d="
M748.556519,598.127197 
	C748.950989,593.089294 752.358887,592.413452 756.000977,592.214417 
	C759.204041,592.039490 761.941711,592.918518 763.106323,596.327148 
	C764.370117,600.026672 764.242737,603.586243 761.259888,606.431091 
	C758.454773,609.106262 751.272888,606.899048 749.482056,602.827515 
	C748.899780,601.503601 748.833923,599.952637 748.556519,598.127197 
M761.911865,600.217651 
	C762.153259,596.887512 760.651978,594.330139 757.407104,594.201538 
	C755.503235,594.126038 752.596497,595.508850 751.838501,597.063416 
	C751.077820,598.623596 751.792419,601.698547 752.983032,603.245728 
	C755.318970,606.281250 758.782959,605.196045 761.911865,600.217651 
z"/>
<path fill="#10496A" opacity="1.000000" stroke="none" 
	d="
M635.235596,517.050720 
	C635.050598,514.883057 635.040283,512.893860 635.077515,510.578735 
	C635.586426,509.916779 636.047913,509.580658 637.185303,509.119049 
	C639.875305,508.987885 641.889404,508.982208 644.035767,509.317322 
	C645.295227,512.315247 646.422424,514.972351 647.549622,517.629517 
	C644.015198,517.738464 640.480835,517.847412 636.536987,517.940308 
	C635.884766,517.696228 635.645752,517.464539 635.235596,517.050720 
z"/>
<path fill="#0D374F" opacity="1.000000" stroke="none" 
	d="
M960.611206,414.828247 
	C960.053711,412.531189 959.746277,409.970612 959.515503,406.745880 
	C959.447754,405.726257 959.303284,405.370819 959.158813,405.015350 
	C958.716064,400.313049 958.273254,395.610779 958.255981,390.583649 
	C961.072021,390.118988 963.462463,389.979126 965.852905,389.839294 
	C965.852905,389.839294 965.976807,389.973969 966.039429,390.042297 
	C960.895630,395.296326 960.215576,401.463776 961.719116,408.352661 
	C962.137512,410.269623 961.184875,412.485809 960.611206,414.828247 
z"/>
<path fill="#0D374F" opacity="1.000000" stroke="none" 
	d="
M643.903564,508.976532 
	C641.889404,508.982208 639.875305,508.987885 637.429871,508.973633 
	C641.191528,504.819824 640.885681,499.771881 640.159241,494.511383 
	C639.899353,492.629333 640.481018,490.631104 641.046997,488.332825 
	C641.415405,487.979767 641.849731,488.030243 641.923828,488.445557 
	C642.633179,495.566101 643.268372,502.271301 643.903564,508.976532 
z"/>
<path fill="#0D374F" opacity="1.000000" stroke="none" 
	d="
M898.105835,367.589294 
	C898.078796,367.586639 898.132874,367.591949 898.105835,367.589294 
z"/>
<path fill="#10496A" opacity="1.000000" stroke="none" 
	d="
M658.066040,545.786865 
	C658.072815,545.767761 658.188843,545.886353 658.180847,545.879028 
	C658.172852,545.871643 658.059326,545.805908 658.066040,545.786865 
z"/>
<path fill="#10496A" opacity="1.000000" stroke="none" 
	d="
M966.251709,434.869507 
	C966.256836,434.685516 966.291992,434.439117 966.320312,434.076111 
	C966.410156,434.251526 966.399597,434.534088 966.251709,434.869507 
z"/>
<path fill="#10496A" opacity="1.000000" stroke="none" 
	d="
M641.849731,488.030243 
	C641.849731,488.030243 641.415405,487.979767 641.198425,487.950867 
	C640.915344,487.207062 640.849243,486.492157 640.748108,485.419617 
	C640.713135,485.062012 641.108215,484.997192 641.448364,485.350250 
	C641.808899,486.478943 641.829346,487.254608 641.849731,488.030243 
z"/>
<path fill="#2AAADA" opacity="1.000000" stroke="none" 
	d="
M878.984741,484.003082 
	C878.758545,484.072662 878.532043,484.125885 878.305481,484.179077 
	C878.583862,484.289581 878.862183,484.400116 879.044800,484.250610 
	C878.949036,483.990631 878.984436,483.986725 878.984741,484.003082 
z"/>
<path fill="#10496A" opacity="1.000000" stroke="none" 
	d="
M641.778687,412.752747 
	C641.565063,412.738373 641.557495,412.479675 641.749695,412.109497 
	C641.842529,412.172119 641.854248,412.342224 641.778687,412.752747 
z"/>
<path fill="#10496A" opacity="1.000000" stroke="none" 
	d="
M965.975098,389.537170 
	C963.462463,389.979126 961.072021,390.118988 958.343445,390.133942 
	C956.614136,387.014771 955.222900,384.020477 953.741699,380.690308 
	C955.809204,380.251892 957.969177,380.026093 960.123718,380.070190 
	C966.320312,380.196960 968.243835,383.200104 965.975098,389.537170 
z"/>
<path fill="#10496A" opacity="1.000000" stroke="none" 
	d="
M952.853210,379.378906 
	C953.016846,379.362885 953.275146,379.615723 953.680908,380.100067 
	C953.534912,380.103638 953.241333,379.875702 952.853210,379.378906 
z"/>
<path fill="#10496A" opacity="1.000000" stroke="none" 
	d="
M959.139343,405.324036 
	C959.303284,405.370819 959.447754,405.726257 959.678955,406.356720 
	C959.550415,406.298737 959.335144,405.965729 959.139343,405.324036 
z"/>
<path fill="#2AAADB" opacity="1.000000" stroke="none" 
	d="
M814.129150,283.250916 
	C814.123962,289.549774 815.339722,295.706024 813.872498,301.137543 
	C809.927856,315.739716 813.086609,330.458344 811.812195,345.041473 
	C811.396606,349.797729 813.160339,351.300934 817.899109,352.441650 
	C827.030579,354.639832 835.831848,358.209229 845.635132,361.500427 
	C842.410706,367.482483 839.622864,372.654480 836.847290,377.803772 
	C826.009338,373.903687 815.660278,369.980103 805.152832,366.540527 
	C802.569519,365.694885 799.251404,365.737030 796.646118,366.559265 
	C787.297302,369.509644 778.063843,372.848755 768.886353,376.305450 
	C765.915894,377.424286 764.257996,376.887390 762.906494,374.094299 
	C761.039612,370.236206 758.953308,366.484344 756.350464,361.523376 
	C766.505798,358.226593 775.972168,354.798462 785.660828,352.198700 
	C789.100281,351.275818 790.359863,350.220398 790.334595,346.753571 
	C790.240967,333.938354 791.784607,320.907227 789.901062,308.380035 
	C788.624512,299.890381 788.299500,291.543488 787.810486,283.097168 
	C787.600891,279.477173 788.707764,277.958008 792.534485,278.131866 
	C798.182251,278.388519 803.854492,278.336945 809.507874,278.154510 
	C812.944458,278.043549 814.517944,279.304504 814.129150,283.250916 
z"/>
<path fill="#17587A" opacity="1.000000" stroke="none" 
	d="
M757.624756,315.340942 
	C760.535889,317.569000 761.115295,320.137939 759.321594,322.912598 
	C757.497070,325.735077 754.519592,327.277588 751.725159,325.231110 
	C750.055420,324.008301 748.557678,320.649445 749.041077,318.784332 
	C750.040283,314.928955 753.275085,313.503326 757.624756,315.340942 
z"/>
<path fill="#17587A" opacity="1.000000" stroke="none" 
	d="
M842.342896,320.768066 
	C843.588806,318.468170 844.495911,315.793488 846.303833,314.856293 
	C847.614258,314.176971 850.715332,315.247711 851.922180,316.551971 
	C853.130188,317.857574 853.799377,320.733337 853.188782,322.347260 
	C852.584167,323.945007 849.706787,326.105835 848.501038,325.747742 
	C846.209656,325.067261 844.399780,322.765778 842.342896,320.768066 
z"/>
<path fill="#2AAADA" opacity="1.000000" stroke="none" 
	d="
M843.723633,536.739746 
	C839.530334,538.320618 835.389709,540.000488 831.147644,541.365112 
	C826.093201,542.990967 820.998657,544.551086 815.828918,545.735779 
	C813.100037,546.361145 811.852417,547.359497 811.872192,550.299927 
	C811.960876,563.448547 810.713196,576.740906 812.293091,589.695251 
	C813.269470,597.700317 813.790771,605.635620 814.214172,613.641663 
	C814.422363,617.578979 812.924194,618.971497 809.035583,618.826782 
	C803.385132,618.616577 797.718140,618.761963 792.060486,618.874146 
	C789.264648,618.929565 787.656616,618.129761 787.747070,614.949402 
	C787.917542,608.961121 786.554504,602.570984 788.196228,597.052063 
	C792.579468,582.316833 789.106018,567.435730 790.479553,552.713928 
	C790.883606,548.383057 789.518433,546.570312 784.866333,545.383423 
	C775.469421,542.985962 766.395813,539.321106 756.784424,536.040894 
	C758.182861,533.202759 759.012268,531.420105 759.925842,529.681824 
	C764.983887,520.058533 764.955933,520.156921 775.367249,523.993286 
	C782.851257,526.751038 790.395996,529.370300 798.020203,531.703125 
	C800.055481,532.325867 802.647461,532.179016 804.700562,531.512695 
	C814.022461,528.487244 823.300720,525.302917 832.471252,521.848206 
	C836.060120,520.496155 838.144104,521.207214 839.508423,524.679810 
	C841.013977,528.511902 842.592468,532.315247 843.976562,536.411743 
	C843.813843,536.692444 843.731445,536.699097 843.723633,536.739746 
z"/>
<path fill="#17587A" opacity="1.000000" stroke="none" 
	d="
M849.483154,583.519287 
	C843.085571,583.210999 839.766541,579.225830 842.604980,575.450439 
	C843.872559,573.764465 846.726257,572.147766 848.628357,572.382080 
	C850.484131,572.610474 852.802612,574.943665 853.558716,576.882812 
	C854.728577,579.883057 852.804871,582.192932 849.483154,583.519287 
z"/>
<path fill="#17587A" opacity="1.000000" stroke="none" 
	d="
M748.980164,580.839050 
	C747.406067,577.244751 748.097656,574.282654 751.268921,572.922363 
	C752.858704,572.240479 755.657898,572.668640 757.098999,573.713501 
	C759.913574,575.753967 761.100830,578.918762 758.206726,581.845154 
	C755.154480,584.931519 751.964783,584.386047 748.980164,580.839050 
z"/>
<path fill="#2AAADB" opacity="1.000000" stroke="none" 
	d="
M953.673950,517.822449 
	C948.166687,525.935730 942.741577,534.106750 937.101746,542.126831 
	C935.435425,544.496399 935.927917,545.980286 937.964172,547.551697 
	C940.044373,549.156921 942.051086,550.857361 944.627197,552.953247 
	C940.361328,558.503906 936.475464,563.866272 932.163330,568.860657 
	C931.467896,569.666260 928.395142,569.495422 927.233643,568.654236 
	C916.863586,561.144165 906.675964,553.382324 896.237061,545.439209 
	C896.039429,545.183777 896.235779,545.063538 896.255493,544.947327 
	C901.219055,538.208557 906.307922,531.687439 911.044678,524.919983 
	C913.356445,521.617126 915.463440,520.867981 918.577271,523.678772 
	C919.534729,524.543091 920.826599,525.036865 922.647888,526.097961 
	C928.087830,516.743713 936.740417,509.764923 936.525879,497.211731 
	C936.342590,486.485535 938.562073,475.700287 940.049744,464.987122 
	C940.228271,463.701508 942.404663,461.850922 943.785095,461.728394 
	C948.413635,461.317596 953.108093,461.728271 957.763733,461.520508 
	C961.451355,461.355927 962.390076,463.061737 962.039001,466.357513 
	C960.804443,477.947235 959.647766,489.545319 958.471191,501.141205 
	C958.236206,503.457123 958.043823,505.777344 957.710571,508.842682 
	C956.284180,512.333984 954.979065,515.078247 953.673950,517.822449 
z"/>
<path fill="#17587A" opacity="1.000000" stroke="none" 
	d="
M980.656067,508.286194 
	C985.474243,511.238708 986.488037,515.098633 983.061707,517.347168 
	C981.524292,518.356079 978.685425,518.809875 977.186462,518.045715 
	C975.700867,517.288330 974.307922,514.643677 974.386719,512.894897 
	C974.530457,509.703979 976.900452,508.005219 980.656067,508.286194 
z"/>
<path fill="#10496A" opacity="1.000000" stroke="none" 
	d="
M954.147278,517.867554 
	C954.979065,515.078247 956.284180,512.333984 957.772278,509.289795 
	C959.260803,509.056488 960.905457,508.650299 961.799072,509.291260 
	C963.502563,510.513062 964.777405,512.332336 966.230225,513.903564 
	C964.650391,515.249329 963.264038,517.189758 961.439514,517.783325 
	C959.371338,518.456055 956.910645,517.922058 954.147278,517.867554 
z"/>
<path fill="#12222F" opacity="1.000000" stroke="none" 
	d="
M915.503662,565.493713 
	C915.513672,565.519775 915.493591,565.467651 915.503662,565.493713 
z"/>
<path fill="#17587A" opacity="1.000000" stroke="none" 
	d="
M980.687622,390.868561 
	C975.371765,390.392944 973.426270,388.452393 974.178955,384.639801 
	C974.935364,380.808319 977.554871,379.194550 981.110474,380.292969 
	C982.648010,380.767944 984.367188,382.671265 984.805054,384.256775 
	C985.634399,387.260223 984.403076,389.799927 980.687622,390.868561 
z"/>
<path fill="#12222F" opacity="1.000000" stroke="none" 
	d="
M940.841614,355.110291 
	C940.849731,354.959503 940.911377,354.869690 940.972961,354.779907 
	C941.042542,354.859039 941.112122,354.938171 941.181702,355.017334 
	C941.086182,355.068634 940.990601,355.119965 940.841614,355.110291 
z"/>
<path fill="#12222F" opacity="1.000000" stroke="none" 
	d="
M924.024292,381.833160 
	C924.048523,381.834625 924.000122,381.831665 924.024292,381.833160 
z"/>
<path fill="#2AAADB" opacity="1.000000" stroke="none" 
	d="
M641.923889,488.445557 
	C641.829346,487.254608 641.808899,486.478943 641.648071,485.338379 
	C640.971069,478.672272 640.514038,472.362915 639.864502,466.073425 
	C639.534424,462.876984 640.603943,461.429443 643.939148,461.561279 
	C649.415955,461.777832 656.494629,459.790741 659.912170,462.499634 
	C663.034912,464.974854 662.409119,472.418884 663.059509,477.719269 
	C664.112061,486.297455 664.786926,494.921570 665.789734,503.506622 
	C665.993408,505.250305 666.688354,507.060303 667.598999,508.573578 
	C669.913757,512.419983 672.735596,515.975708 674.878418,519.907288 
	C677.483459,524.686890 680.068604,527.550720 685.235718,522.678223 
	C685.877380,522.073120 688.658203,522.509949 689.326599,523.352905 
	C694.867676,530.341064 700.144836,537.538513 705.979248,545.308594 
	C699.747009,550.005859 693.984192,554.391357 688.174988,558.714478 
	C683.501953,562.192017 678.841675,565.696350 674.014771,568.950012 
	C672.948608,569.668640 670.422852,570.058533 669.894836,569.449829 
	C665.476379,564.356323 661.367615,558.994141 657.079590,553.605103 
	C660.621948,550.426575 663.545044,547.803833 666.570190,545.089355 
	C660.244141,535.787109 654.180786,526.871216 647.833557,517.792419 
	C646.422424,514.972351 645.295227,512.315247 644.035767,509.317322 
	C643.268372,502.271301 642.633179,495.566101 641.923889,488.445557 
z"/>
<path fill="#1B6A8F" opacity="1.000000" stroke="none" 
	d="
M627.248779,388.139038 
	C624.539490,389.030273 621.945557,390.162231 619.512329,389.884674 
	C618.391968,389.756866 616.689392,386.760956 616.870239,385.260742 
	C617.085693,383.473633 618.726135,381.379456 620.343689,380.399048 
	C621.535706,379.676514 624.620911,379.908875 625.209961,380.803711 
	C626.505310,382.771332 626.753967,385.428070 627.248779,388.139038 
z"/>
<path fill="#25ACDF" opacity="1.000000" stroke="none" 
	d="
M726.792664,507.187500 
	C723.389648,502.335571 723.663391,500.338501 727.866638,497.548187 
	C733.156311,494.036713 735.908997,494.287415 738.672546,498.864807 
	C740.693359,502.211945 743.723511,505.136475 740.387146,509.873230 
	C736.663147,515.160339 732.445496,515.781677 728.753845,510.483002 
	C728.094543,509.536682 727.579895,508.489502 726.792664,507.187500 
z"/>
<path fill="#25ACDF" opacity="1.000000" stroke="none" 
	d="
M872.214355,510.895508 
	C867.193420,516.670837 864.071289,515.895874 860.941711,508.466309 
	C859.609131,505.302643 863.114014,495.890686 866.370300,495.949036 
	C869.890137,496.012115 873.446716,498.432037 876.767334,500.230072 
	C877.238831,500.485382 876.806213,503.193085 876.197144,504.485291 
	C875.184448,506.633820 873.689575,508.555115 872.214355,510.895508 
z"/>
<path fill="#25ACDF" opacity="1.000000" stroke="none" 
	d="
M714.293945,482.523132 
	C709.314392,478.059875 709.828674,472.126617 709.988525,466.706879 
	C710.027283,465.393890 714.481506,463.679169 717.111206,463.123657 
	C719.763245,462.563385 723.117554,462.585693 723.912292,466.390717 
	C724.590454,469.637665 725.096436,472.960541 725.203064,476.265167 
	C725.240112,477.414215 724.120483,479.167694 723.064087,479.673370 
	C720.401489,480.947815 717.474304,481.669281 714.293945,482.523132 
z"/>
<path fill="#25ACDF" opacity="1.000000" stroke="none" 
	d="
M977.279907,444.149719 
	C981.454468,440.062317 986.311157,439.568787 991.441650,439.933197 
	C994.856079,440.175720 995.972168,441.896210 995.594971,445.247070 
	C995.263489,448.191223 995.235413,451.217346 995.503357,454.168213 
	C995.792786,457.355591 994.659180,458.750214 991.480103,459.030029 
	C984.463867,459.647644 978.194763,456.543610 975.661987,451.403107 
	C974.233887,448.504578 974.606140,446.353638 977.279907,444.149719 
z"/>
<path fill="#25ACDF" opacity="1.000000" stroke="none" 
	d="
M892.078796,427.067596 
	C892.158752,431.241272 891.658997,434.508301 886.899780,434.987122 
	C881.484314,435.531982 879.007935,433.940765 877.698425,428.533173 
	C876.974670,425.544556 874.621460,422.525299 878.685547,419.733917 
	C887.155396,413.916595 890.855530,415.722046 892.078796,427.067596 
z"/>
<path fill="#3E9CC2" opacity="1.000000" stroke="none" 
	d="
M864.895691,404.165833 
	C864.205505,403.464966 863.457336,402.811768 862.835388,402.054901 
	C860.320312,398.994507 857.844177,395.902222 855.123291,392.536804 
	C859.118896,387.731232 863.011780,383.049164 867.752258,377.347717 
	C873.327454,384.302246 878.507263,390.763611 884.350281,398.052246 
	C878.611938,401.553833 873.792236,404.671692 868.741028,407.353577 
	C868.108582,407.689362 866.253601,405.722717 865.333801,404.454315 
	C878.303589,403.145081 880.620850,398.935364 874.156433,388.727631 
	C869.991028,382.150146 866.710083,382.154144 861.647583,388.237061 
	C858.915649,391.519714 857.564819,393.857269 861.889648,397.117462 
	C863.657898,398.450439 863.938354,401.757080 864.895691,404.165833 
z"/>
<path fill="#25ACDF" opacity="1.000000" stroke="none" 
	d="
M735.630493,383.581482 
	C737.893555,385.908661 740.122803,387.963501 741.626648,390.455994 
	C742.355042,391.663177 742.194885,393.894318 741.591187,395.298279 
	C740.770081,397.207977 739.403625,399.104950 737.779663,400.383148 
	C736.260803,401.578644 733.718018,403.001648 732.303162,402.481689 
	C729.393799,401.412415 726.918091,399.138489 724.323181,397.277557 
	C724.065247,397.092560 724.142151,396.329163 724.190674,395.846985 
	C724.445129,393.317078 732.646912,384.220581 735.630493,383.581482 
z"/>
<path fill="#17587A" opacity="1.000000" stroke="none" 
	d="
M622.038574,508.050110 
	C625.879578,508.403503 628.476624,510.170135 627.799133,513.730469 
	C627.434692,515.645813 625.321655,517.979370 623.454651,518.682556 
	C620.624329,519.748596 617.615601,518.557861 616.838989,515.188843 
	C615.964417,511.394897 617.427368,508.669220 622.038574,508.050110 
z"/>
<path fill="#1B6A8F" opacity="1.000000" stroke="none" 
	d="
M761.825500,600.598938 
	C758.782959,605.196045 755.318970,606.281250 752.983032,603.245728 
	C751.792419,601.698547 751.077820,598.623596 751.838501,597.063416 
	C752.596497,595.508850 755.503235,594.126038 757.407104,594.201538 
	C760.651978,594.330139 762.153259,596.887512 761.825500,600.598938 
z"/>
<path fill="#25ACDF" opacity="1.000000" stroke="none" 
	d="
M864.924133,404.123993 
	C863.938354,401.757080 863.657898,398.450439 861.889648,397.117462 
	C857.564819,393.857269 858.915649,391.519714 861.647583,388.237061 
	C866.710083,382.154144 869.991028,382.150146 874.156433,388.727631 
	C880.620850,398.935364 878.303589,403.145081 865.282227,404.105530 
	C864.861877,404.125305 864.952576,404.082184 864.924133,404.123993 
z"/>
</svg>