<svg version="1.1" id="Layer_1" xmlns="http://www.w3.org/2000/svg" xmlns:xlink="http://www.w3.org/1999/xlink" x="0px" y="0px"
	 width="100%" viewBox="0 0 845 845" enable-background="new 0 0 845 845" xml:space="preserve">
<path fill="#11212E" opacity="1.000000" stroke="none" 
	d="
M365.000000,846.000000 
	C243.333344,846.000000 122.166695,846.000000 1.000033,846.000000 
	C1.000022,564.333374 1.000022,282.666748 1.000011,1.000108 
	C282.666595,1.000072 564.333191,1.000072 845.999817,1.000036 
	C845.999878,282.666534 845.999878,564.333069 845.999939,845.999817 
	C685.833313,846.000000 525.666687,846.000000 365.000000,846.000000 
M588.494690,482.834808 
	C588.008789,482.542267 587.522888,482.249725 586.906250,481.185486 
	C582.669250,467.907196 585.844360,454.867493 588.397888,441.873444 
	C589.519897,436.163971 587.938599,433.384308 581.959351,433.102936 
	C577.484070,432.892303 572.983337,433.214935 568.509216,432.992401 
	C560.475220,432.592743 557.178772,439.397522 557.281860,445.754456 
	C557.353699,450.185638 556.743408,454.625977 556.771301,459.060120 
	C556.817688,466.438263 557.131775,473.814697 557.307556,481.632111 
	C557.307556,481.632111 557.132812,482.037018 556.743652,482.394836 
	C556.660767,482.730713 556.577942,483.066589 556.194641,483.971313 
	C555.135986,485.308899 554.077393,486.646484 552.470032,487.696381 
	C550.388428,488.547424 548.306824,489.398438 546.225952,490.251282 
	C542.088867,481.446625 537.240601,478.639130 531.278259,482.085327 
	C528.049866,483.215546 524.743225,484.164886 521.612366,485.520355 
	C517.404114,487.342255 516.108337,490.766388 518.019836,494.838196 
	C519.810913,498.653595 522.200378,502.188110 524.051453,506.547638 
	C522.710999,508.528168 521.094849,510.385742 520.135864,512.536377 
	C519.581543,513.779480 520.086792,515.495117 519.964050,517.498535 
	C519.722656,517.742920 519.481262,517.987244 518.594788,518.229858 
	C514.592773,519.199890 514.439453,521.198608 517.338440,523.637573 
	C519.234009,525.232422 521.463562,526.422546 523.460144,527.906189 
	C531.455200,533.847290 539.419922,539.829163 547.390930,545.802551 
	C550.463989,548.105469 553.938843,549.352478 556.755188,546.090088 
	C560.509888,541.740723 563.802490,536.958069 566.974670,532.151062 
	C569.498962,528.325684 569.301575,524.582947 565.175537,521.709717 
	C562.877869,520.109680 562.342224,518.428528 564.193970,515.902954 
	C568.255127,510.363861 571.901062,504.515839 576.061829,499.057129 
	C577.226013,497.529816 579.546143,496.821228 581.422119,495.915161 
	C583.605103,494.860748 585.882690,494.001984 588.894409,493.078247 
	C591.857361,494.019562 594.904785,494.757996 597.764038,495.948456 
	C602.375305,497.868317 607.687561,497.176300 610.091553,494.025848 
	C612.580872,490.763550 612.541931,484.986877 610.010010,481.919159 
	C607.250549,478.575745 602.594299,477.917999 597.887634,479.935089 
	C595.006226,481.169952 591.971802,482.047821 588.494690,482.834808 
M225.176331,412.146576 
	C224.208755,413.642914 222.496078,415.096893 222.408188,416.643219 
	C222.099503,422.074036 222.158310,427.550079 222.540710,432.976349 
	C222.622437,434.135803 224.648834,435.158173 226.240479,436.804199 
	C232.679337,440.386414 239.941483,440.543030 245.663177,437.073029 
	C250.195984,434.324036 253.031418,428.542023 256.085541,423.764771 
	C256.789581,422.663574 255.804733,419.775482 254.723511,418.392822 
	C252.700607,415.805969 250.234085,413.458893 247.601151,411.478668 
	C242.228668,407.437958 230.140213,407.720917 225.176331,412.146576 
M589.190613,356.231842 
	C588.729675,355.857239 588.268677,355.482666 587.596069,354.488220 
	C585.868164,353.938690 584.130249,353.418579 582.415161,352.831635 
	C580.625610,352.219147 578.143188,352.073029 577.201416,350.804260 
	C572.455872,344.410980 568.018555,337.778992 563.732117,331.065277 
	C563.068665,330.026184 563.129944,327.547394 563.905945,326.725281 
	C568.833008,321.505188 569.230103,315.921387 564.978821,310.500549 
	C561.790588,306.435150 558.216553,302.151306 553.843994,299.684845 
	C549.615234,297.299469 546.870544,302.036652 544.146484,304.863770 
	C544.032776,304.981812 543.879883,305.062561 543.743591,305.158295 
	C534.961243,311.329346 526.165466,317.481476 517.401672,323.678741 
	C512.990601,326.797974 512.983459,330.719086 517.177917,334.365448 
	C519.057861,335.999786 520.690125,337.915863 522.523499,339.607910 
	C524.855896,341.760498 524.805420,343.539276 522.497803,345.884430 
	C520.089111,348.332336 517.990723,351.174744 516.194336,354.112305 
	C514.200073,357.373444 515.190002,360.622528 518.509888,362.124725 
	C522.714050,364.026978 527.274780,366.143646 531.717468,366.225464 
	C535.891479,366.302307 540.617126,364.631439 544.186584,362.319336 
	C548.841919,359.303711 548.969543,359.070099 552.615662,363.541260 
	C556.346313,368.116089 555.031860,373.259796 555.559021,378.276550 
	C556.584839,388.038361 558.019287,397.756592 559.141357,407.509338 
	C559.495483,410.587402 560.794312,412.486664 564.669373,413.276245 
	C567.088684,413.678192 569.545593,414.558655 571.918579,414.371857 
	C575.633850,414.079376 579.292419,413.065338 583.648193,412.125214 
	C584.706421,410.150879 586.749939,408.124908 586.649658,406.211304 
	C586.249878,398.581726 585.456177,390.944733 584.285645,383.391479 
	C583.109497,375.801941 582.140503,368.531219 590.491455,363.735809 
	C593.223633,364.926788 595.919373,366.965332 598.697632,367.084747 
	C601.857849,367.220551 605.958130,366.533295 608.020752,364.528137 
	C609.683655,362.911530 610.173462,358.003876 608.901611,356.017212 
	C607.526550,353.869232 603.402466,352.265808 600.658813,352.505096 
	C596.907532,352.832306 593.327515,355.123413 589.190613,356.231842 
M257.574921,491.288849 
	C258.709076,491.881287 259.843231,492.473694 261.340546,493.648468 
	C264.495605,495.362640 268.490326,496.375244 270.630707,498.937134 
	C275.071930,504.253021 278.692871,510.293610 282.253448,516.273010 
	C282.973297,517.481934 282.595490,520.587646 281.593933,521.367004 
	C276.823700,525.079285 277.732056,529.126160 280.370544,533.256287 
	C282.945099,537.286316 285.954712,541.035583 288.673737,544.976746 
	C291.570404,549.175415 294.614532,549.747070 298.605438,546.650513 
	C300.832184,544.922791 302.995880,543.113037 305.237396,541.405151 
	C312.761047,535.672546 320.353180,530.028748 327.819641,524.223022 
	C330.514252,522.127686 331.236816,519.594299 329.021545,516.405945 
	C326.949615,513.423889 325.183136,510.188721 323.658752,506.890930 
	C323.176422,505.847443 323.602356,504.105835 324.138977,502.922363 
	C325.683044,499.516907 327.672791,496.309357 329.148438,492.878296 
	C330.374451,490.027588 329.188934,487.839874 326.594879,486.116058 
	C322.138550,483.154663 317.412140,481.460968 311.241364,482.094391 
	C308.829010,483.106201 306.416626,484.118011 303.485291,485.516266 
	C302.461548,487.323242 301.437775,489.130188 300.082031,491.523071 
	C294.254364,486.242889 292.036163,479.841309 291.121429,472.834717 
	C289.681122,461.801971 288.228333,450.768799 286.997803,439.711670 
	C286.518799,435.407654 284.153290,433.407196 280.191681,433.230194 
	C275.209076,433.007599 270.198181,432.925049 265.221924,433.195068 
	C260.605072,433.445648 258.463959,436.133118 258.945190,440.877106 
	C260.082642,452.089630 261.383240,463.285919 262.660339,474.483917 
	C263.265472,479.789948 262.204254,481.720428 256.860107,482.212860 
	C253.910599,482.484650 250.752625,481.461182 247.807846,480.609436 
	C242.227142,478.995361 238.282440,480.024811 236.812653,484.155457 
	C235.514648,487.803345 235.542801,491.554749 238.788498,494.252167 
	C241.993607,496.915863 245.570328,497.481445 249.377853,495.030090 
	C251.862671,493.430328 254.568527,492.173981 257.574921,491.288849 
M437.452087,592.470947 
	C438.189880,591.036194 439.580536,589.590454 439.556427,588.168579 
	C439.427307,580.540894 438.919861,572.920349 438.592102,565.295227 
	C438.065430,553.042175 437.465393,540.789673 437.240540,528.530579 
	C437.217316,527.264832 440.148865,524.639709 440.653992,524.878418 
	C444.316925,526.609619 449.025574,527.057007 449.708344,532.784607 
	C450.187012,536.799988 451.627563,540.889954 453.499329,544.500427 
	C455.665314,548.678345 458.820374,552.336670 461.461182,556.277405 
	C463.729645,559.662354 467.170746,561.874023 470.768250,560.535156 
	C473.991272,559.335815 477.188599,556.556091 479.051208,553.619751 
	C481.082947,550.416931 478.700653,547.386292 475.970673,545.026489 
	C474.614441,543.854187 472.903137,542.429504 472.565247,540.858154 
	C471.182739,534.428589 467.432587,531.023621 461.215118,528.968018 
	C459.132385,528.279480 457.602264,524.235535 457.017548,521.471863 
	C456.758881,520.249084 459.403931,518.319763 460.865967,516.845154 
	C463.579285,514.108337 467.642822,511.939026 468.865509,508.678864 
	C470.635834,503.958405 468.297180,499.079987 464.336823,495.799103 
	C460.334351,492.483307 455.818237,491.811493 450.822845,494.249268 
	C447.429779,495.905151 443.674835,496.828094 440.065338,498.029480 
	C436.307892,499.280121 432.228607,499.933075 428.842926,501.832703 
	C425.083252,503.942139 421.793304,504.128357 417.963989,502.544678 
	C410.441528,499.433502 402.867950,496.440216 395.262970,493.535889 
	C386.843201,490.320374 383.828674,492.379578 378.599487,504.627197 
	C376.359497,509.873657 378.029266,512.632324 385.569763,515.905945 
	C388.441101,517.152527 391.307495,518.494446 390.771759,522.253540 
	C390.261017,525.837402 388.217621,527.856934 384.363831,528.859802 
	C380.277344,529.923218 376.450745,531.993347 375.023071,536.842529 
	C374.168640,539.744629 372.825958,542.697937 370.986298,545.073364 
	C367.440948,549.651367 367.232361,555.899658 371.077820,559.009338 
	C374.984589,562.168579 380.585205,561.203003 384.268707,556.804626 
	C389.861176,550.126831 395.003418,543.266113 396.826050,534.410889 
	C397.647736,530.418701 399.692657,526.985535 403.867126,525.308228 
	C407.558167,523.825195 409.611786,524.936462 410.038361,528.957153 
	C410.178314,530.276611 409.992889,531.629761 410.120117,532.951660 
	C411.839569,550.816528 407.708557,568.319885 406.853271,586.025269 
	C406.503326,593.269653 409.394653,596.689880 416.602356,596.817261 
	C421.924347,596.911377 427.277985,596.974976 432.559937,596.460571 
	C434.064392,596.314148 435.367401,594.098816 436.839813,592.842834 
	C436.839813,592.842834 436.812134,592.770264 437.452087,592.470947 
M407.854187,253.243988 
	C407.883759,261.300781 406.493805,269.683685 408.253326,277.343079 
	C411.422089,291.137146 409.397766,304.858643 409.888153,318.588318 
	C409.942688,320.115143 408.295959,322.576447 406.912262,323.042389 
	C405.441315,323.537720 402.600037,322.734741 401.672394,321.505859 
	C399.627075,318.796356 397.447998,315.587036 397.029968,312.360596 
	C395.678101,301.927246 387.887177,295.610352 382.331909,287.899292 
	C380.371765,285.178436 377.159210,284.117767 373.930817,286.409912 
	C368.401031,290.336029 367.501434,296.544189 371.551117,302.122437 
	C372.527374,303.467163 374.226105,304.748352 374.353149,306.169556 
	C374.931305,312.638092 379.032257,314.788055 384.558685,316.715759 
	C387.328644,317.681915 389.726898,321.290405 390.966248,324.258057 
	C391.433289,325.376495 388.302551,328.210358 386.523499,329.970703 
	C385.523590,330.960022 383.989594,331.747467 382.601105,331.940033 
	C379.067017,332.430267 377.837708,334.706207 377.532806,337.764893 
	C376.872437,344.390167 380.989594,348.942535 384.700165,353.611115 
	C385.121704,354.141449 386.321320,354.512787 386.980591,354.325531 
	C396.443054,351.638123 406.041840,349.290588 415.235992,345.863708 
	C419.224091,344.377228 422.733276,342.241486 427.002716,343.903198 
	C433.176086,346.305908 439.161377,349.256805 445.451355,351.273651 
	C450.092224,352.761688 455.884186,355.050690 459.712585,353.469757 
	C463.688416,351.827972 467.064972,346.364227 468.656067,341.850189 
	C471.323669,334.282135 470.569580,334.213745 463.186981,331.186584 
	C460.424469,330.053833 458.076569,327.910034 455.539612,326.227203 
	C457.606659,323.123199 459.512573,319.890930 461.826721,316.983643 
	C462.654053,315.944244 464.626373,315.902039 465.796204,315.029510 
	C467.600159,313.683960 469.460846,312.231781 470.765015,310.437744 
	C473.298401,306.952789 475.363831,303.131653 477.804840,299.574493 
	C480.521149,295.616089 479.755127,291.074646 475.497589,287.266968 
	C472.194885,284.313232 468.223877,284.309814 464.917694,287.938843 
	C462.505188,290.586945 461.447479,294.810669 458.675659,296.721832 
	C452.119629,301.242188 451.270599,308.165131 449.113220,314.750519 
	C448.298798,317.236755 446.594452,319.831696 444.554871,321.434052 
	C440.136566,324.905243 437.260254,323.295563 436.998169,317.514648 
	C436.840302,314.032593 436.794861,310.524261 437.027527,307.049744 
	C437.705902,296.918060 434.358490,286.357971 440.176056,276.748474 
	C440.493683,276.223785 440.519409,275.450745 440.493347,274.800842 
	C440.260223,268.984436 440.168732,263.153900 439.671326,257.358826 
	C439.155884,251.353378 436.875366,249.751862 430.971130,250.327118 
	C429.529266,250.467590 428.030792,249.871109 426.556000,249.856918 
	C420.333923,249.797043 413.932251,248.682770 407.854187,253.243988 
M292.114136,375.798615 
	C291.393158,370.219543 293.002319,365.262238 296.166443,360.732910 
	C297.914124,358.231140 299.663177,358.117798 301.798645,360.471313 
	C303.442017,362.282471 305.322113,363.951080 307.331879,365.344147 
	C313.695831,369.755371 319.502167,365.926605 325.195526,363.616058 
	C330.955719,361.278412 332.384277,356.929779 328.405304,352.133636 
	C322.917999,345.519379 323.901672,339.603577 328.158508,333.099304 
	C331.330872,328.252136 330.515350,324.482208 325.895264,321.057220 
	C316.686707,314.230713 307.408691,307.497955 298.158905,300.727081 
	C295.255524,298.601807 292.295532,298.915680 290.063019,301.426697 
	C286.598816,305.322998 283.471741,309.528351 280.330261,313.699493 
	C277.718872,317.166748 277.547211,320.602203 280.582428,324.116730 
	C282.805786,326.691193 283.533234,329.685394 281.443726,332.837982 
	C278.318207,337.553650 275.408112,342.429077 272.017181,346.944244 
	C270.506989,348.955109 268.221710,351.305359 265.987183,351.673218 
	C259.943634,352.668243 254.133179,356.221863 247.371460,352.289337 
	C245.198730,351.025726 239.587158,353.455139 237.076248,355.818085 
	C235.548111,357.256195 236.046783,362.192719 237.228683,364.848541 
	C238.969193,368.759521 243.141098,369.363281 247.185516,368.539978 
	C248.435074,368.285614 249.645813,367.527924 250.718475,366.777802 
	C253.542343,364.802948 256.186218,364.867676 259.009430,366.858459 
	C261.855896,368.865723 263.214874,371.206360 262.686279,374.881805 
	C261.174683,385.392273 259.910858,395.938873 258.603088,406.477936 
	C257.932312,411.883209 259.799988,414.324707 265.354462,414.700378 
	C269.995575,415.014343 274.674805,414.919312 279.331970,414.800873 
	C285.174225,414.652313 287.284576,412.429626 287.829254,406.603455 
	C288.276764,401.816406 288.825104,397.032959 289.525909,392.276947 
	C290.298309,387.035278 291.295593,381.826721 292.114136,375.798615 
M597.896057,416.345520 
	C591.301636,423.504211 591.159485,423.630493 597.711182,431.004333 
	C599.668701,433.207489 602.469360,435.364380 605.231628,435.979034 
	C609.040771,436.826660 613.212769,436.480835 617.159729,436.032867 
	C618.533447,435.877014 620.708496,433.964935 620.790344,432.739532 
	C621.189392,426.768158 621.094910,420.755371 620.939697,414.763306 
	C620.912109,413.697266 620.019897,412.112396 619.105774,411.699524 
	C613.680115,409.249084 602.293945,411.653625 597.896057,416.345520 
M517.672852,400.600067 
	C517.407654,399.464935 517.158325,398.325836 516.874756,397.195282 
	C513.633423,384.273010 514.307739,385.988678 503.407562,389.752411 
	C494.761078,392.737976 494.760101,392.735138 496.810120,402.152039 
	C498.902039,411.761353 498.902039,411.761414 508.676697,411.912689 
	C519.328430,412.077545 519.328430,412.077515 517.672852,400.600067 
M351.691711,394.512421 
	C351.404327,393.933655 351.253723,393.003296 350.808533,392.830109 
	C345.875336,390.910797 340.959320,388.882629 335.875610,387.471161 
	C334.891144,387.197815 332.368347,389.222778 331.986847,390.587708 
	C330.430359,396.156372 329.388336,401.872009 328.240936,407.550507 
	C327.632812,410.560333 329.028564,411.817291 332.048096,411.747345 
	C335.858459,411.659088 339.679932,411.639771 343.484589,411.830414 
	C347.095978,412.011414 348.980804,410.741241 349.413147,406.921234 
	C349.858795,402.983490 350.899811,399.113129 351.691711,394.512421 
M332.271027,457.623962 
	C332.980469,460.205048 334.458130,461.109833 337.094543,460.084656 
	C339.871155,459.004974 342.736359,458.155609 345.540009,457.142426 
	C352.861420,454.496735 352.823608,454.491882 350.746826,446.821289 
	C350.055939,444.269348 349.901978,441.523010 348.887115,439.126160 
	C348.277832,437.687164 346.564301,435.885010 345.199219,435.750885 
	C340.935516,435.331970 336.601349,435.658447 332.294800,435.638336 
	C329.297760,435.624359 327.928528,437.061584 328.499542,439.989349 
	C329.607117,445.668091 330.849152,451.320587 332.271027,457.623962 
M504.877686,435.610840 
	C500.278503,434.841370 497.723511,436.386230 497.318176,441.420715 
	C497.068268,444.525024 495.549530,447.524841 495.278259,450.630768 
	C495.147766,452.124847 496.178345,454.567261 497.388641,455.174866 
	C501.224548,457.100525 505.418610,458.299896 509.423950,459.905334 
	C512.291565,461.054718 513.901062,459.982513 514.627747,457.237000 
	C515.646729,453.387360 516.755676,449.547058 517.491821,445.639771 
	C519.389526,435.566711 519.316162,435.552185 509.238037,435.583984 
	C508.074677,435.587646 506.911377,435.604309 504.877686,435.610840 
M364.918640,491.489807 
	C367.084259,488.555695 369.507568,485.768555 371.302307,482.622803 
	C372.147308,481.141724 372.617554,478.424377 371.820587,477.211334 
	C368.852264,472.693359 365.285278,468.569031 361.948547,464.292603 
	C359.750366,461.475342 357.076233,461.033813 354.051300,462.801453 
	C349.906036,465.223846 345.728119,467.603333 341.705475,470.218536 
	C338.749084,472.140533 337.281128,474.968445 339.270111,478.314880 
	C341.771820,482.524017 344.609863,486.535492 347.352173,490.598907 
	C351.848938,497.262085 358.814392,497.851654 364.918640,491.489807 
M483.717255,354.212158 
	C481.002838,357.765656 477.946899,361.123413 475.742218,364.969116 
	C474.861023,366.506256 475.125061,369.595306 476.137421,371.152588 
	C479.021271,375.588715 482.429077,379.713104 485.919952,383.707367 
	C486.907898,384.837830 489.354645,386.069702 490.336365,385.598083 
	C495.399078,383.166046 500.501465,380.602417 505.011810,377.296021 
	C509.370209,374.101044 509.270233,369.684967 505.851624,365.534332 
	C503.748413,362.980804 501.744141,360.341003 499.788208,357.671967 
	C494.380341,350.292603 490.628326,349.322906 483.717255,354.212158 
M479.000702,473.575897 
	C475.751862,477.377991 474.651459,481.650238 477.755829,485.827026 
	C480.193909,489.107269 483.419983,491.804657 486.317383,494.739868 
	C488.537964,496.989471 490.827606,496.796234 493.515320,495.323792 
	C501.103149,491.166809 504.697815,483.897980 507.977966,476.564392 
	C508.602417,475.168243 507.079346,472.047974 505.642212,470.660431 
	C503.057953,468.165344 499.810150,466.348022 496.799957,464.305939 
	C492.355988,461.291321 488.240692,461.181793 484.765503,465.847595 
	C482.992554,468.228027 481.236755,470.621246 479.000702,473.575897 
M366.479279,375.054779 
	C372.957367,366.871246 373.650940,364.904297 366.938782,359.242340 
	C366.086884,358.523682 365.681580,357.296082 364.992004,356.361359 
	C360.541809,350.328918 355.127655,349.665436 349.893799,354.860565 
	C346.624237,358.105927 343.542969,361.621887 340.866272,365.366028 
	C336.016968,372.149292 336.910553,375.410492 343.912506,379.231171 
	C345.499237,380.096924 346.910583,381.306366 348.336456,382.440826 
	C354.448151,387.303467 360.628540,386.046509 364.214996,379.178314 
	C364.829895,378.000732 365.435699,376.818390 366.479279,375.054779 
M336.407410,542.623962 
	C337.659027,540.153137 339.553864,537.765747 339.889648,535.176270 
	C340.056274,533.890869 337.538788,531.291199 335.912048,530.980530 
	C333.809509,530.579102 330.773651,531.225586 329.282471,532.632263 
	C328.005463,533.836975 327.280823,537.746094 328.178619,538.697388 
	C330.062347,540.693420 333.173553,541.531006 336.407410,542.623962 
M375.455933,579.029297 
	C380.822144,580.999573 384.858398,579.666931 384.941162,575.350281 
	C384.986603,572.981384 383.598419,569.452942 381.781647,568.502686 
	C380.007294,567.574707 376.218567,568.494812 374.469391,569.971802 
	C371.544434,572.441711 372.091003,575.835083 375.455933,579.029297 
M521.699280,537.205322 
	C521.902100,533.802612 521.255981,530.566589 517.602356,529.547180 
	C513.867188,528.505005 509.360321,528.019775 507.261414,531.960510 
	C505.925568,534.468628 505.777710,538.463318 506.831177,541.098083 
	C507.566528,542.937195 511.180847,544.437500 513.612183,544.606384 
	C517.846924,544.900513 520.852783,542.517761 521.699280,537.205322 
z"/>
<path fill="#2AA9D9" opacity="1.000000" stroke="none" 
	d="
M519.239868,518.231567 
	C519.481262,517.987244 519.722656,517.742920 520.332703,517.102051 
	C523.640076,512.663696 526.578796,508.621765 529.805298,504.412842 
	C532.363708,501.426239 534.634216,498.606628 537.236511,495.916626 
	C539.015808,496.861572 540.463257,497.676910 542.105042,498.750671 
	C544.971436,501.196472 546.305176,499.687164 547.530396,496.975342 
	C549.522705,493.826111 551.270752,490.905121 553.018799,487.984100 
	C554.077393,486.646484 555.135986,485.308899 556.557129,483.519470 
	C556.990662,482.724121 557.061768,482.380585 557.132812,482.037018 
	C557.132812,482.037018 557.307556,481.632111 557.624695,481.172241 
	C558.242371,476.463501 558.542908,472.214661 559.010803,467.682922 
	C559.186035,466.546295 559.193909,465.692535 559.309387,464.460571 
	C559.584534,463.049591 559.752197,462.016815 560.099976,460.676025 
	C560.343323,459.199951 560.406494,458.031891 560.569946,456.483765 
	C560.738953,455.060059 560.807739,454.016510 561.045227,452.658325 
	C561.238098,451.174530 561.262268,450.005341 561.378540,448.425110 
	C561.607605,446.334167 561.744629,444.654236 562.052612,442.637085 
	C562.545227,440.262848 562.866760,438.225830 563.643250,436.143372 
	C570.780396,436.118866 577.462585,436.139832 584.174988,436.595245 
	C584.328613,439.400543 584.452026,441.771393 584.495850,444.543823 
	C584.326660,446.306305 584.237000,447.667175 583.978088,449.301941 
	C583.636414,450.417206 583.463928,451.258575 583.185425,452.535156 
	C582.223816,462.589478 581.368225,472.208557 580.347046,482.200470 
	C578.755005,486.028168 577.328491,489.483063 575.652588,493.157837 
	C570.953918,499.993103 566.516907,506.616821 562.051575,513.221436 
	C557.724670,519.621338 557.601990,519.752808 563.568176,524.433777 
	C566.278076,526.559875 566.648926,528.331177 564.509583,530.981812 
	C561.589905,534.599426 558.714539,538.269775 556.085815,542.099915 
	C553.954895,545.204895 551.961365,545.070679 549.147766,542.978210 
	C540.102356,536.251160 530.867371,529.778015 521.865784,522.994202 
	C520.544495,521.998413 520.093506,519.847839 519.239868,518.231567 
z"/>
<path fill="#0D3952" opacity="1.000000" stroke="none" 
	d="
M408.093018,252.958527 
	C413.932251,248.682770 420.333923,249.797043 426.556000,249.856918 
	C428.030792,249.871109 429.529266,250.467590 430.971130,250.327118 
	C436.875366,249.751862 439.155884,251.353378 439.671326,257.358826 
	C440.168732,263.153900 440.260223,268.984436 440.493347,274.800842 
	C440.519409,275.450745 440.493683,276.223785 440.176056,276.748474 
	C434.358490,286.357971 437.705902,296.918060 437.027527,307.049744 
	C436.794861,310.524261 436.840302,314.032593 436.998169,317.514648 
	C437.260254,323.295563 440.136566,324.905243 444.554871,321.434052 
	C446.594452,319.831696 448.298798,317.236755 449.113220,314.750519 
	C451.270599,308.165131 452.119629,301.242188 458.675659,296.721832 
	C461.447479,294.810669 462.505188,290.586945 464.917694,287.938843 
	C468.223877,284.309814 472.194885,284.313232 475.497589,287.266968 
	C479.755127,291.074646 480.521149,295.616089 477.804840,299.574493 
	C475.363831,303.131653 473.298401,306.952789 470.765015,310.437744 
	C469.460846,312.231781 467.600159,313.683960 465.796204,315.029510 
	C464.626373,315.902039 462.654053,315.944244 461.826721,316.983643 
	C459.512573,319.890930 457.606659,323.123199 455.539612,326.227203 
	C458.076569,327.910034 460.424469,330.053833 463.186981,331.186584 
	C470.569580,334.213745 471.323669,334.282135 468.656067,341.850189 
	C467.064972,346.364227 463.688416,351.827972 459.712585,353.469757 
	C455.884186,355.050690 450.092224,352.761688 445.451355,351.273651 
	C439.161377,349.256805 433.176086,346.305908 427.002716,343.903198 
	C422.733276,342.241486 419.224091,344.377228 415.235992,345.863708 
	C406.041840,349.290588 396.443054,351.638123 386.980591,354.325531 
	C386.321320,354.512787 385.121704,354.141449 384.700165,353.611115 
	C380.989594,348.942535 376.872437,344.390167 377.532806,337.764893 
	C377.837708,334.706207 379.067017,332.430267 382.601105,331.940033 
	C383.989594,331.747467 385.523590,330.960022 386.523499,329.970703 
	C388.302551,328.210358 391.433289,325.376495 390.966248,324.258057 
	C389.726898,321.290405 387.328644,317.681915 384.558685,316.715759 
	C379.032257,314.788055 374.931305,312.638092 374.353149,306.169556 
	C374.226105,304.748352 372.527374,303.467163 371.551117,302.122437 
	C367.501434,296.544189 368.401031,290.336029 373.930817,286.409912 
	C377.159210,284.117767 380.371765,285.178436 382.331909,287.899292 
	C387.887177,295.610352 395.678101,301.927246 397.029968,312.360596 
	C397.447998,315.587036 399.627075,318.796356 401.672394,321.505859 
	C402.600037,322.734741 405.441315,323.537720 406.912262,323.042389 
	C408.295959,322.576447 409.942688,320.115143 409.888153,318.588318 
	C409.397766,304.858643 411.422089,291.137146 408.253326,277.343079 
	C406.493805,269.683685 407.883759,261.300781 408.093018,252.958527 
M384.565887,346.859222 
	C386.070160,351.260254 388.511078,351.929718 392.934845,350.133331 
	C401.558258,346.631653 410.421600,343.668427 419.327667,340.947205 
	C421.956604,340.143951 425.271881,340.234772 427.911743,341.064362 
	C437.124817,343.959595 446.144958,347.464935 455.330078,350.456940 
	C456.834381,350.946960 459.698639,350.639343 460.395264,349.633942 
	C463.097107,345.734436 465.177338,341.404205 468.122528,336.091583 
	C458.263062,332.768890 449.462128,329.298706 440.371460,326.950104 
	C435.762787,325.759430 433.786926,324.155304 434.195435,319.378113 
	C435.446686,304.747009 432.369293,289.987305 436.373749,275.333099 
	C437.940735,269.598816 436.569000,263.072968 436.621124,256.908356 
	C436.646912,253.858078 435.057495,252.819016 432.251465,252.837524 
	C426.752991,252.873749 421.246796,252.991791 415.757446,252.756851 
	C411.720886,252.584091 410.088043,253.965317 410.224640,258.180573 
	C410.500732,266.698364 411.342468,275.059357 412.550079,283.541931 
	C414.270386,295.626251 412.891327,308.141449 413.005585,320.471008 
	C413.040619,324.252502 411.718475,325.706482 407.836853,326.748901 
	C398.320435,329.304535 389.051117,332.780273 379.053375,336.094269 
	C381.218079,340.353729 382.709686,343.288635 384.565887,346.859222 
M475.379089,297.578796 
	C476.687653,293.853088 475.809448,290.630249 471.967316,289.587524 
	C470.256744,289.123352 466.418274,290.574677 466.229462,291.634705 
	C465.807678,294.002289 466.371948,297.204254 467.812164,299.091125 
	C469.996490,301.952881 472.820068,300.678528 475.379089,297.578796 
M376.487579,289.201172 
	C374.753601,291.092010 372.053253,292.789124 371.621887,294.941071 
	C371.329163,296.401306 373.925873,299.436371 375.780823,300.021057 
	C377.305176,300.501587 380.202667,298.885651 381.492462,297.356293 
	C383.816498,294.600464 381.980469,291.482849 376.487579,289.201172 
z"/>
<path fill="#0D3952" opacity="1.000000" stroke="none" 
	d="
M436.762756,592.832275 
	C435.367401,594.098816 434.064392,596.314148 432.559937,596.460571 
	C427.277985,596.974976 421.924347,596.911377 416.602356,596.817261 
	C409.394653,596.689880 406.503326,593.269653 406.853271,586.025269 
	C407.708557,568.319885 411.839569,550.816528 410.120117,532.951660 
	C409.992889,531.629761 410.178314,530.276611 410.038361,528.957153 
	C409.611786,524.936462 407.558167,523.825195 403.867126,525.308228 
	C399.692657,526.985535 397.647736,530.418701 396.826050,534.410889 
	C395.003418,543.266113 389.861176,550.126831 384.268707,556.804626 
	C380.585205,561.203003 374.984589,562.168579 371.077820,559.009338 
	C367.232361,555.899658 367.440948,549.651367 370.986298,545.073364 
	C372.825958,542.697937 374.168640,539.744629 375.023071,536.842529 
	C376.450745,531.993347 380.277344,529.923218 384.363831,528.859802 
	C388.217621,527.856934 390.261017,525.837402 390.771759,522.253540 
	C391.307495,518.494446 388.441101,517.152527 385.569763,515.905945 
	C378.029266,512.632324 376.359497,509.873657 378.599487,504.627197 
	C383.828674,492.379578 386.843201,490.320374 395.262970,493.535889 
	C402.867950,496.440216 410.441528,499.433502 417.963989,502.544678 
	C421.793304,504.128357 425.083252,503.942139 428.842926,501.832703 
	C432.228607,499.933075 436.307892,499.280121 440.065338,498.029480 
	C443.674835,496.828094 447.429779,495.905151 450.822845,494.249268 
	C455.818237,491.811493 460.334351,492.483307 464.336823,495.799103 
	C468.297180,499.079987 470.635834,503.958405 468.865509,508.678864 
	C467.642822,511.939026 463.579285,514.108337 460.865967,516.845154 
	C459.403931,518.319763 456.758881,520.249084 457.017548,521.471863 
	C457.602264,524.235535 459.132385,528.279480 461.215118,528.968018 
	C467.432587,531.023621 471.182739,534.428589 472.565247,540.858154 
	C472.903137,542.429504 474.614441,543.854187 475.970673,545.026489 
	C478.700653,547.386292 481.082947,550.416931 479.051208,553.619751 
	C477.188599,556.556091 473.991272,559.335815 470.768250,560.535156 
	C467.170746,561.874023 463.729645,559.662354 461.461182,556.277405 
	C458.820374,552.336670 455.665314,548.678345 453.499329,544.500427 
	C451.627563,540.889954 450.187012,536.799988 449.708344,532.784607 
	C449.025574,527.057007 444.316925,526.609619 440.653992,524.878418 
	C440.148865,524.639709 437.217316,527.264832 437.240540,528.530579 
	C437.465393,540.789673 438.065430,553.042175 438.592102,565.295227 
	C438.919861,572.920349 439.427307,580.540894 439.556427,588.168579 
	C439.580536,589.590454 438.189880,591.036194 437.098999,592.170654 
	C436.989868,581.967346 436.047333,572.237000 434.695312,562.369141 
	C433.150513,551.094421 434.628662,539.433105 434.265839,527.956360 
	C434.102051,522.774780 435.967804,520.923523 440.881592,519.623962 
	C449.917847,517.234131 458.675171,513.789673 468.061188,510.611237 
	C465.554993,505.846832 463.558838,502.398438 461.899292,498.795074 
	C460.383118,495.502960 458.282135,495.063171 455.056976,496.239594 
	C445.830841,499.605042 436.583160,502.936981 427.214905,505.869995 
	C424.776428,506.633423 421.669983,506.508972 419.207275,505.728790 
	C409.689270,502.713470 400.344635,499.152039 390.834351,496.110046 
	C389.430176,495.660919 386.656708,496.373047 385.936188,497.475494 
	C383.514679,501.180756 381.734894,505.305359 379.489746,509.699646 
	C390.378265,515.294556 401.184631,519.302490 412.807007,521.139771 
	C412.860931,521.094482 412.806610,521.224976 412.792725,521.679565 
	C411.797729,538.686584 415.201050,555.364624 410.505890,571.879822 
	C408.974182,577.267578 410.235718,583.435242 410.114532,589.244019 
	C410.051483,592.268433 411.513947,593.396362 414.371460,593.321655 
	C421.834412,593.126526 429.298889,592.991333 436.762756,592.832275 
M474.517059,549.010071 
	C472.286560,548.634033 469.010803,547.190002 468.059570,548.121033 
	C466.453949,549.692505 465.344482,553.042847 465.925598,555.111633 
	C466.288513,556.403625 470.445557,557.788818 472.350983,557.236877 
	C475.853882,556.222290 476.737183,553.084961 474.517059,549.010071 
M371.126007,553.262817 
	C372.418457,557.292969 375.139801,559.229858 378.961151,557.049377 
	C380.482880,556.181091 381.991364,552.966980 381.500610,551.484741 
	C380.892914,549.649414 377.799713,547.037598 376.501129,547.393250 
	C374.381989,547.973572 372.846130,550.683777 371.126007,553.262817 
z"/>
<path fill="#0D3952" opacity="1.000000" stroke="none" 
	d="
M292.154541,376.201172 
	C291.295593,381.826721 290.298309,387.035278 289.525909,392.276947 
	C288.825104,397.032959 288.276764,401.816406 287.829254,406.603455 
	C287.284576,412.429626 285.174225,414.652313 279.331970,414.800873 
	C274.674805,414.919312 269.995575,415.014343 265.354462,414.700378 
	C259.799988,414.324707 257.932312,411.883209 258.603088,406.477936 
	C259.910858,395.938873 261.174683,385.392273 262.686279,374.881805 
	C263.214874,371.206360 261.855896,368.865723 259.009430,366.858459 
	C256.186218,364.867676 253.542343,364.802948 250.718475,366.777802 
	C249.645813,367.527924 248.435074,368.285614 247.185516,368.539978 
	C243.141098,369.363281 238.969193,368.759521 237.228683,364.848541 
	C236.046783,362.192719 235.548111,357.256195 237.076248,355.818085 
	C239.587158,353.455139 245.198730,351.025726 247.371460,352.289337 
	C254.133179,356.221863 259.943634,352.668243 265.987183,351.673218 
	C268.221710,351.305359 270.506989,348.955109 272.017181,346.944244 
	C275.408112,342.429077 278.318207,337.553650 281.443726,332.837982 
	C283.533234,329.685394 282.805786,326.691193 280.582428,324.116730 
	C277.547211,320.602203 277.718872,317.166748 280.330261,313.699493 
	C283.471741,309.528351 286.598816,305.322998 290.063019,301.426697 
	C292.295532,298.915680 295.255524,298.601807 298.158905,300.727081 
	C307.408691,307.497955 316.686707,314.230713 325.895264,321.057220 
	C330.515350,324.482208 331.330872,328.252136 328.158508,333.099304 
	C323.901672,339.603577 322.917999,345.519379 328.405304,352.133636 
	C332.384277,356.929779 330.955719,361.278412 325.195526,363.616058 
	C319.502167,365.926605 313.695831,369.755371 307.331879,365.344147 
	C305.322113,363.951080 303.442017,362.282471 301.798645,360.471313 
	C299.663177,358.117798 297.914124,358.231140 296.166443,360.732910 
	C293.002319,365.262238 291.393158,370.219543 292.154541,376.201172 
M292.214203,361.326721 
	C294.266724,358.092743 296.549042,354.978394 298.311432,351.593353 
	C300.347900,347.681915 302.577087,346.377228 306.350525,349.523132 
	C309.067108,351.787933 311.312286,351.169952 313.396790,348.232330 
	C317.444000,342.528870 321.619629,336.903625 326.006287,331.458893 
	C328.546173,328.306366 327.862000,326.371216 324.793335,324.207184 
	C317.308075,318.928528 309.993378,313.408844 302.568054,308.044281 
	C293.147736,301.238464 293.129852,301.263214 285.981262,310.737427 
	C279.778839,318.957642 279.778839,318.957642 287.123138,326.848511 
	C287.245209,327.784729 287.367279,328.720978 287.424744,329.860748 
	C287.424744,329.860748 287.243683,329.974030 286.808136,330.414795 
	C286.597595,330.768677 286.387054,331.122589 285.920685,332.041779 
	C284.708588,333.737579 283.496460,335.433350 281.840576,337.554291 
	C281.625458,337.904175 281.410339,338.254028 281.032898,339.234802 
	C277.920166,344.125916 274.807465,349.017029 270.907410,353.979889 
	C268.124207,354.432831 265.282043,354.665558 262.571747,355.390961 
	C258.614563,356.450043 257.038361,361.245850 260.230804,362.800262 
	C264.917664,365.082336 265.095764,369.010529 265.979553,373.729340 
	C265.715240,375.474579 265.450928,377.219818 264.928314,379.316345 
	C264.936493,379.870544 264.944702,380.424713 264.973480,381.835938 
	C264.720917,383.525696 264.468353,385.215454 263.951050,387.185852 
	C263.957733,387.785980 263.964417,388.386078 264.005371,389.777802 
	C263.726654,391.838867 263.447906,393.899933 262.922668,396.323822 
	C262.951599,396.882629 262.980530,397.441467 263.026489,398.775787 
	C262.774323,400.829712 262.522125,402.883606 261.930023,405.459412 
	C261.974579,406.636230 262.019165,407.813080 262.124237,409.544006 
	C262.115692,409.729614 262.107147,409.915222 262.082977,410.316589 
	C262.082977,410.316589 262.300293,410.658844 263.283600,410.976135 
	C268.898346,411.048309 274.515869,411.037933 280.126801,411.224487 
	C283.334473,411.331207 284.388794,409.847076 284.630432,406.813995 
	C285.049561,401.552032 285.850739,396.320496 286.883087,390.691895 
	C286.964905,389.474457 287.046722,388.257019 287.143372,386.235016 
	C287.659760,380.514221 288.176117,374.793457 289.013428,368.408539 
	C289.107819,367.679077 289.202240,366.949615 289.406830,365.758209 
	C289.527893,365.459442 289.706787,365.200592 290.486389,364.659210 
	C290.981995,363.762329 291.477570,362.865479 292.214203,361.326721 
M249.232803,363.688507 
	C249.295120,361.272736 250.067871,358.533630 249.167801,356.555847 
	C248.576447,355.256409 245.382599,354.219940 243.698730,354.598419 
	C242.016617,354.976501 239.938583,357.076050 239.554962,358.766144 
	C239.173416,360.447235 240.203064,363.679932 241.473251,364.223236 
	C243.506516,365.092987 246.249298,364.304138 249.232803,363.688507 
z"/>
<path fill="#0A344C" opacity="1.000000" stroke="none" 
	d="
M312.004059,482.079834 
	C317.412140,481.460968 322.138550,483.154663 326.594879,486.116058 
	C329.188934,487.839874 330.374451,490.027588 329.148438,492.878296 
	C327.672791,496.309357 325.683044,499.516907 324.138977,502.922363 
	C323.602356,504.105835 323.176422,505.847443 323.658752,506.890930 
	C325.183136,510.188721 326.949615,513.423889 329.021545,516.405945 
	C331.236816,519.594299 330.514252,522.127686 327.819641,524.223022 
	C320.353180,530.028748 312.761047,535.672546 305.237396,541.405151 
	C302.995880,543.113037 300.832184,544.922791 298.605438,546.650513 
	C294.614532,549.747070 291.570404,549.175415 288.673737,544.976746 
	C285.954712,541.035583 282.945099,537.286316 280.370544,533.256287 
	C277.732056,529.126160 276.823700,525.079285 281.593933,521.367004 
	C282.595490,520.587646 282.973297,517.481934 282.253448,516.273010 
	C278.692871,510.293610 275.071930,504.253021 270.630707,498.937134 
	C268.490326,496.375244 264.495605,495.362640 261.626862,493.322205 
	C264.756073,492.884003 267.598938,492.772003 270.680786,492.890503 
	C276.933105,501.672058 282.946472,510.223145 288.879883,519.049072 
	C288.703766,519.693176 288.607635,520.062439 288.202759,520.563110 
	C286.494843,521.865356 285.211761,523.225464 283.673309,524.169128 
	C279.972839,526.439026 279.677124,528.852478 282.543793,532.139404 
	C285.593170,535.635864 288.131592,539.587646 291.277740,542.984314 
	C292.226776,544.008911 295.092346,544.737915 296.005341,544.089355 
	C306.011658,536.981750 315.781494,529.542297 325.672485,522.270508 
	C328.199585,520.412537 327.890991,518.747986 326.148376,516.496216 
	C322.291077,511.511932 318.648865,506.361389 314.908661,501.286285 
	C309.975739,494.592926 309.630554,494.566772 302.794617,500.252380 
	C301.893616,500.128021 301.382385,500.028809 300.796814,499.605438 
	C297.476257,494.265808 294.105255,489.324860 291.044708,484.198517 
	C289.805450,482.122742 288.759705,479.703735 288.460144,477.335388 
	C287.376831,468.770020 286.746796,460.148315 285.747620,451.570953 
	C285.159821,446.524933 285.877533,439.590149 282.939026,437.036469 
	C279.917999,434.411163 273.148529,436.262695 268.048615,435.819214 
	C263.148743,435.393219 261.588135,437.289490 262.126526,442.117584 
	C263.646454,455.748260 264.870300,469.411957 265.813293,483.138489 
	C261.088196,484.005402 256.130157,484.108246 257.175385,490.763794 
	C254.568527,492.173981 251.862671,493.430328 249.377853,495.030090 
	C245.570328,497.481445 241.993607,496.915863 238.788498,494.252167 
	C235.542801,491.554749 235.514648,487.803345 236.812653,484.155457 
	C238.282440,480.024811 242.227142,478.995361 247.807846,480.609436 
	C250.752625,481.461182 253.910599,482.484650 256.860107,482.212860 
	C262.204254,481.720428 263.265472,479.789948 262.660339,474.483917 
	C261.383240,463.285919 260.082642,452.089630 258.945190,440.877106 
	C258.463959,436.133118 260.605072,433.445648 265.221924,433.195068 
	C270.198181,432.925049 275.209076,433.007599 280.191681,433.230194 
	C284.153290,433.407196 286.518799,435.407654 286.997803,439.711670 
	C288.228333,450.768799 289.681122,461.801971 291.121429,472.834717 
	C292.036163,479.841309 294.254364,486.242889 300.082031,491.523071 
	C301.437775,489.130188 302.461548,487.323242 303.905273,485.516876 
	C306.884888,484.371613 309.444458,483.225739 312.004059,482.079834 
M244.487274,482.275238 
	C242.729248,484.133331 240.318436,485.741608 239.473755,487.949188 
	C239.014343,489.149841 240.838028,492.279022 242.315323,492.892303 
	C244.066528,493.619354 247.020767,493.259521 248.629013,492.162231 
	C252.605347,489.449097 250.891922,484.815796 244.487274,482.275238 
M305.119690,493.559296 
	C304.661499,493.439270 304.203308,493.319214 303.745148,493.199158 
	C303.725586,493.626678 303.706024,494.054230 303.686462,494.481750 
	C304.152008,494.308655 304.617523,494.135559 305.119690,493.559296 
z"/>
<path fill="#0D3952" opacity="1.000000" stroke="none" 
	d="
M563.941345,412.920197 
	C560.794312,412.486664 559.495483,410.587402 559.141357,407.509338 
	C558.019287,397.756592 556.584839,388.038361 555.559021,378.276550 
	C555.031860,373.259796 556.346313,368.116089 552.615662,363.541260 
	C548.969543,359.070099 548.841919,359.303711 544.186584,362.319336 
	C540.617126,364.631439 535.891479,366.302307 531.717468,366.225464 
	C527.274780,366.143646 522.714050,364.026978 518.509888,362.124725 
	C515.190002,360.622528 514.200073,357.373444 516.194336,354.112305 
	C517.990723,351.174744 520.089111,348.332336 522.497803,345.884430 
	C524.805420,343.539276 524.855896,341.760498 522.523499,339.607910 
	C520.690125,337.915863 519.057861,335.999786 517.177917,334.365448 
	C512.983459,330.719086 512.990601,326.797974 517.401672,323.678741 
	C526.165466,317.481476 534.961243,311.329346 543.743591,305.158295 
	C543.879883,305.062561 544.032776,304.981812 544.146484,304.863770 
	C546.870544,302.036652 549.615234,297.299469 553.843994,299.684845 
	C558.216553,302.151306 561.790588,306.435150 564.978821,310.500549 
	C569.230103,315.921387 568.833008,321.505188 563.905945,326.725281 
	C563.129944,327.547394 563.068665,330.026184 563.732117,331.065277 
	C568.018555,337.778992 572.455872,344.410980 577.201416,350.804260 
	C578.143188,352.073029 580.625610,352.219147 582.415161,352.831635 
	C584.130249,353.418579 585.868164,353.938690 587.254517,354.785522 
	C583.459106,355.146545 580.005249,355.210327 576.293823,355.066956 
	C571.317078,347.822510 566.583008,340.795105 561.883423,333.744781 
	C557.845886,327.687653 557.742432,327.534912 563.307312,322.769379 
	C566.373901,320.143250 566.650513,317.900940 564.074280,314.827057 
	C561.088562,311.264587 558.556152,307.313782 555.468201,303.851501 
	C554.707703,302.998810 552.043457,302.663330 551.122681,303.315674 
	C541.087158,310.425079 531.239990,317.799774 521.303040,325.049438 
	C518.968262,326.752808 518.550232,328.333771 520.481934,330.784180 
	C524.802490,336.264862 529.008362,341.848267 532.995422,347.574738 
	C535.229675,350.783752 537.455078,351.764801 540.707275,349.166595 
	C543.725342,346.755432 545.991760,347.438416 547.980835,350.720184 
	C550.993408,355.690582 554.264832,360.504150 557.419067,365.771667 
	C557.714050,367.128387 558.016235,368.097748 558.382874,369.512604 
	C558.605957,373.981659 558.764587,378.005280 558.831543,382.198975 
	C558.912231,382.943848 559.084473,383.518616 559.381470,384.473694 
	C559.655029,385.908325 559.803772,386.962677 559.838440,388.231934 
	C559.927856,389.329376 560.131348,390.211823 560.440430,391.495178 
	C560.680786,393.269714 560.815491,394.643433 560.853394,396.183594 
	C560.898865,396.933502 561.041260,397.516998 561.291443,398.528870 
	C561.569336,401.312439 561.739441,403.667664 561.795532,406.263550 
	C561.831360,407.339935 561.981201,408.175720 562.254517,409.305298 
	C562.922119,410.234833 563.466187,410.870514 564.012512,411.742706 
	C563.991394,412.292999 563.966919,412.606659 563.941345,412.920197 
z"/>
<path fill="#3993BA" opacity="1.000000" stroke="none" 
	d="
M598.138245,416.093842 
	C602.293945,411.653625 613.680115,409.249084 619.105774,411.699524 
	C620.019897,412.112396 620.912109,413.697266 620.939697,414.763306 
	C621.094910,420.755371 621.189392,426.768158 620.790344,432.739532 
	C620.708496,433.964935 618.533447,435.877014 617.159729,436.032867 
	C613.212769,436.480835 609.040771,436.826660 605.231628,435.979034 
	C602.469360,435.364380 599.668701,433.207489 597.711182,431.004333 
	C591.159485,423.630493 591.301636,423.504211 598.138245,416.093842 
M600.134155,418.593536 
	C596.523193,422.234528 596.529175,425.561981 600.384705,429.252502 
	C603.809692,432.530823 611.204407,435.052917 615.395020,432.700165 
	C621.186646,429.448547 616.475281,423.528290 617.804993,418.965576 
	C618.140564,417.813934 615.996216,414.613037 615.044006,414.634949 
	C610.070251,414.749573 604.555725,413.356384 600.134155,418.593536 
z"/>
<path fill="#0A344C" opacity="1.000000" stroke="none" 
	d="
M518.917358,518.230713 
	C520.093506,519.847839 520.544495,521.998413 521.865784,522.994202 
	C530.867371,529.778015 540.102356,536.251160 549.147766,542.978210 
	C551.961365,545.070679 553.954895,545.204895 556.085815,542.099915 
	C558.714539,538.269775 561.589905,534.599426 564.509583,530.981812 
	C566.648926,528.331177 566.278076,526.559875 563.568176,524.433777 
	C557.601990,519.752808 557.724670,519.621338 562.051575,513.221436 
	C566.516907,506.616821 570.953918,499.993103 576.045654,493.130371 
	C579.777832,492.911102 582.867554,492.939148 586.291382,492.972229 
	C587.070374,492.976929 587.515381,492.976593 588.000000,492.996887 
	C588.039673,493.017517 588.119202,493.058319 588.119202,493.058319 
	C585.882690,494.001984 583.605103,494.860748 581.422119,495.915161 
	C579.546143,496.821228 577.226013,497.529816 576.061829,499.057129 
	C571.901062,504.515839 568.255127,510.363861 564.193970,515.902954 
	C562.342224,518.428528 562.877869,520.109680 565.175537,521.709717 
	C569.301575,524.582947 569.498962,528.325684 566.974670,532.151062 
	C563.802490,536.958069 560.509888,541.740723 556.755188,546.090088 
	C553.938843,549.352478 550.463989,548.105469 547.390930,545.802551 
	C539.419922,539.829163 531.455200,533.847290 523.460144,527.906189 
	C521.463562,526.422546 519.234009,525.232422 517.338440,523.637573 
	C514.439453,521.198608 514.592773,519.199890 518.917358,518.230713 
z"/>
<path fill="#3993BA" opacity="1.000000" stroke="none" 
	d="
M517.746338,401.001190 
	C519.328430,412.077515 519.328430,412.077545 508.676697,411.912689 
	C498.902039,411.761414 498.902039,411.761353 496.810120,402.152039 
	C494.760101,392.735138 494.761078,392.737976 503.407562,389.752411 
	C514.307739,385.988678 513.633423,384.273010 516.874756,397.195282 
	C517.158325,398.325836 517.407654,399.464935 517.746338,401.001190 
M499.242188,397.545135 
	C499.696838,399.479218 500.428375,401.395660 500.552765,403.350739 
	C500.889740,408.647766 504.279877,409.323120 508.527405,409.103516 
	C511.771240,408.935822 515.220703,408.177887 514.740784,404.377167 
	C514.189514,400.011414 512.234131,395.822540 510.868286,391.563385 
	C510.841705,391.480499 510.523956,391.395477 510.408234,391.450562 
	C506.700409,393.216217 503.000763,394.999115 499.242188,397.545135 
z"/>
<path fill="#3993BA" opacity="1.000000" stroke="none" 
	d="
M351.686035,394.862854 
	C350.899811,399.113129 349.858795,402.983490 349.413147,406.921234 
	C348.980804,410.741241 347.095978,412.011414 343.484589,411.830414 
	C339.679932,411.639771 335.858459,411.659088 332.048096,411.747345 
	C329.028564,411.817291 327.632812,410.560333 328.240936,407.550507 
	C329.388336,401.872009 330.430359,396.156372 331.986847,390.587708 
	C332.368347,389.222778 334.891144,387.197815 335.875610,387.471161 
	C340.959320,388.882629 345.875336,390.910797 350.808533,392.830109 
	C351.253723,393.003296 351.404327,393.933655 351.686035,394.862854 
M333.511841,396.280060 
	C333.006592,398.717834 332.153503,401.150848 332.120117,403.595062 
	C332.098419,405.185486 332.809662,407.444153 333.988281,408.276184 
	C338.547211,411.494659 345.731476,408.413971 346.964569,403.009430 
	C348.619171,395.757477 348.389771,395.546234 340.695343,392.365417 
	C337.011353,390.842468 334.571564,391.198639 333.511841,396.280060 
z"/>
<path fill="#092D43" opacity="1.000000" stroke="none" 
	d="
M558.843506,467.965790 
	C558.542908,472.214661 558.242371,476.463501 557.637512,480.952118 
	C557.131775,473.814697 556.817688,466.438263 556.771301,459.060120 
	C556.743408,454.625977 557.353699,450.185638 557.281860,445.754456 
	C557.178772,439.397522 560.475220,432.592743 568.509216,432.992401 
	C572.983337,433.214935 577.484070,432.892303 581.959351,433.102936 
	C587.938599,433.384308 589.519897,436.163971 588.397888,441.873444 
	C585.844360,454.867493 582.669250,467.907196 586.543457,481.582886 
	C584.758240,482.023956 583.335876,482.067688 581.682617,482.049042 
	C581.148865,481.873352 580.835815,481.820374 580.512573,481.827667 
	C581.368225,472.208557 582.223816,462.589478 583.415771,452.412354 
	C583.883789,450.912231 584.015564,449.970123 584.147278,449.028046 
	C584.237000,447.667175 584.326660,446.306305 584.703857,444.277649 
	C584.709106,441.126831 584.426941,438.643799 584.144775,436.160797 
	C577.462585,436.139832 570.780396,436.118866 563.348206,436.305237 
	C562.359314,438.666504 562.120422,440.820435 561.881592,442.974335 
	C561.744629,444.654236 561.607605,446.334167 561.199707,448.634583 
	C560.911377,450.494385 560.893921,451.733673 560.876465,452.972931 
	C560.807739,454.016510 560.738953,455.060059 560.367249,456.675232 
	C560.016174,458.492584 559.967957,459.738342 559.919800,460.984070 
	C559.752197,462.016815 559.584534,463.049591 559.142700,464.638672 
	C558.860107,466.118591 558.851807,467.042206 558.843506,467.965790 
z"/>
<path fill="#3993BA" opacity="1.000000" stroke="none" 
	d="
M332.153259,457.303955 
	C330.849152,451.320587 329.607117,445.668091 328.499542,439.989349 
	C327.928528,437.061584 329.297760,435.624359 332.294800,435.638336 
	C336.601349,435.658447 340.935516,435.331970 345.199219,435.750885 
	C346.564301,435.885010 348.277832,437.687164 348.887115,439.126160 
	C349.901978,441.523010 350.055939,444.269348 350.746826,446.821289 
	C352.823608,454.491882 352.861420,454.496735 345.540009,457.142426 
	C342.736359,458.155609 339.871155,459.004974 337.094543,460.084656 
	C334.458130,461.109833 332.980469,460.205048 332.153259,457.303955 
M346.674988,453.062469 
	C346.790344,449.878387 347.344116,446.634766 346.921692,443.523712 
	C346.229553,438.425507 343.135468,436.985077 336.757111,438.003387 
	C331.942657,438.772034 331.666809,442.006378 332.358490,445.812531 
	C334.670837,458.536591 335.429504,458.380371 346.674988,453.062469 
z"/>
<path fill="#0D3952" opacity="1.000000" stroke="none" 
	d="
M524.326477,505.846252 
	C522.200378,502.188110 519.810913,498.653595 518.019836,494.838196 
	C516.108337,490.766388 517.404114,487.342255 521.612366,485.520355 
	C524.743225,484.164886 528.049866,483.215546 532.041199,482.161743 
	C541.103821,484.199310 541.157837,484.273010 539.555908,491.989807 
	C537.108582,493.402008 535.046936,494.799500 532.816284,496.463562 
	C531.428772,498.816620 530.210388,500.903076 528.694702,503.102509 
	C527.040466,504.092407 525.683472,504.969330 524.326477,505.846252 
z"/>
<path fill="#3993BA" opacity="1.000000" stroke="none" 
	d="
M505.312866,435.612915 
	C506.911377,435.604309 508.074677,435.587646 509.238037,435.583984 
	C519.316162,435.552185 519.389526,435.566711 517.491821,445.639771 
	C516.755676,449.547058 515.646729,453.387360 514.627747,457.237000 
	C513.901062,459.982513 512.291565,461.054718 509.423950,459.905334 
	C505.418610,458.299896 501.224548,457.100525 497.388641,455.174866 
	C496.178345,454.567261 495.147766,452.124847 495.278259,450.630768 
	C495.549530,447.524841 497.068268,444.525024 497.318176,441.420715 
	C497.723511,436.386230 500.278503,434.841370 505.312866,435.612915 
M499.712402,452.838806 
	C501.820892,453.829620 503.901306,454.886597 506.044373,455.795990 
	C509.388000,457.214844 512.517517,457.389435 513.289734,452.879425 
	C515.169922,441.898529 515.839294,439.299988 510.823517,438.088257 
	C510.501923,438.010590 510.163422,438.003174 509.832947,437.961823 
	C501.311523,436.895782 496.736053,443.064209 499.712402,452.838806 
z"/>
<path fill="#0A344C" opacity="1.000000" stroke="none" 
	d="
M364.705322,491.787811 
	C358.814392,497.851654 351.848938,497.262085 347.352173,490.598907 
	C344.609863,486.535492 341.771820,482.524017 339.270111,478.314880 
	C337.281128,474.968445 338.749084,472.140533 341.705475,470.218536 
	C345.728119,467.603333 349.906036,465.223846 354.051300,462.801453 
	C357.076233,461.033813 359.750366,461.475342 361.948547,464.292603 
	C365.285278,468.569031 368.852264,472.693359 371.820587,477.211334 
	C372.617554,478.424377 372.147308,481.141724 371.302307,482.622803 
	C369.507568,485.768555 367.084259,488.555695 364.705322,491.787811 
M343.500031,479.048370 
	C347.033447,483.415833 350.577026,487.775146 354.096039,492.154175 
	C355.895660,494.393616 357.683105,494.181000 359.440247,492.160950 
	C361.940369,489.286713 364.227997,486.203400 366.926666,483.533051 
	C369.473633,481.012817 369.520752,478.981232 367.090332,476.386566 
	C363.712677,472.780670 360.915894,466.360352 357.262543,465.892578 
	C353.244995,465.378113 348.607941,470.382294 344.107391,472.725952 
	C340.995361,474.346558 340.958435,476.111969 343.500031,479.048370 
z"/>
<path fill="#0D3952" opacity="1.000000" stroke="none" 
	d="
M483.985474,353.979004 
	C490.628326,349.322906 494.380341,350.292603 499.788208,357.671967 
	C501.744141,360.341003 503.748413,362.980804 505.851624,365.534332 
	C509.270233,369.684967 509.370209,374.101044 505.011810,377.296021 
	C500.501465,380.602417 495.399078,383.166046 490.336365,385.598083 
	C489.354645,386.069702 486.907898,384.837830 485.919952,383.707367 
	C482.429077,379.713104 479.021271,375.588715 476.137421,371.152588 
	C475.125061,369.595306 474.861023,366.506256 475.742218,364.969116 
	C477.946899,361.123413 481.002838,357.765656 483.985474,353.979004 
M496.905029,359.618713 
	C494.963593,357.187836 493.022156,354.756927 490.529144,351.635376 
	C485.873474,357.200684 482.245270,361.440765 478.775146,365.806458 
	C478.333374,366.362244 478.337128,367.872375 478.778534,368.435272 
	C482.434998,373.097931 486.243225,377.641632 490.005524,382.221313 
	C494.303253,379.797150 498.601196,377.373383 502.897949,374.947540 
	C503.041931,374.866241 503.167480,374.751984 503.312408,374.672791 
	C505.529755,373.460724 505.918304,371.920715 504.353424,369.833405 
	C501.968262,366.651855 499.677002,363.399933 496.905029,359.618713 
z"/>
<path fill="#0A344C" opacity="1.000000" stroke="none" 
	d="
M479.236938,473.292297 
	C481.236755,470.621246 482.992554,468.228027 484.765503,465.847595 
	C488.240692,461.181793 492.355988,461.291321 496.799957,464.305939 
	C499.810150,466.348022 503.057953,468.165344 505.642212,470.660431 
	C507.079346,472.047974 508.602417,475.168243 507.977966,476.564392 
	C504.697815,483.897980 501.103149,491.166809 493.515320,495.323792 
	C490.827606,496.796234 488.537964,496.989471 486.317383,494.739868 
	C483.419983,491.804657 480.193909,489.107269 477.755829,485.827026 
	C474.651459,481.650238 475.751862,477.377991 479.236938,473.292297 
M481.347321,485.216034 
	C483.311646,487.482025 485.311279,489.718658 487.229645,492.022919 
	C488.918579,494.051575 490.535858,494.705688 492.462921,492.282990 
	C496.193024,487.593628 500.004150,482.968781 503.746887,478.289307 
	C505.569031,476.011108 505.336548,474.181732 502.650726,472.607452 
	C499.348206,470.671631 496.116852,468.590912 493.000427,466.368530 
	C490.533905,464.609558 488.926178,465.043579 487.263641,467.492950 
	C485.208801,470.520386 483.191742,473.722717 480.520325,476.146210 
	C476.840149,479.484924 477.823334,481.974060 481.347321,485.216034 
z"/>
<path fill="#0A344C" opacity="1.000000" stroke="none" 
	d="
M366.262512,375.346497 
	C365.435699,376.818390 364.829895,378.000732 364.214996,379.178314 
	C360.628540,386.046509 354.448151,387.303467 348.336456,382.440826 
	C346.910583,381.306366 345.499237,380.096924 343.912506,379.231171 
	C336.910553,375.410492 336.016968,372.149292 340.866272,365.366028 
	C343.542969,361.621887 346.624237,358.105927 349.893799,354.860565 
	C355.127655,349.665436 360.541809,350.328918 364.992004,356.361359 
	C365.681580,357.296082 366.086884,358.523682 366.938782,359.242340 
	C373.650940,364.904297 372.957367,366.871246 366.262512,375.346497 
M358.373230,381.080902 
	C361.496704,377.195374 364.721649,373.384277 367.667419,369.368408 
	C368.345734,368.443726 368.697388,366.312897 368.124451,365.595093 
	C364.637299,361.226166 360.839539,357.105255 356.411438,352.066345 
	C351.257233,358.641083 346.628784,364.451324 342.154327,370.377869 
	C341.626526,371.076996 341.547302,373.137085 341.929047,373.346436 
	C347.153992,376.211823 352.496704,378.862457 358.373230,381.080902 
z"/>
<path fill="#12506E" opacity="1.000000" stroke="none" 
	d="
M576.551453,355.274109 
	C580.005249,355.210327 583.459106,355.146545 587.360352,355.095428 
	C588.268677,355.482666 588.729675,355.857239 589.470703,356.770813 
	C589.740173,359.353668 589.729614,361.397614 589.718994,363.441528 
	C582.140503,368.531219 583.109497,375.801941 584.285645,383.391479 
	C585.456177,390.944733 586.249878,398.581726 586.649658,406.211304 
	C586.749939,408.124908 584.706421,410.150879 583.286682,411.988525 
	C582.930542,411.683105 582.935913,411.514343 583.165771,410.976685 
	C583.522400,407.980103 583.979065,405.321198 583.729980,402.730133 
	C582.696594,391.980408 581.662964,381.221863 580.189880,370.527100 
	C579.479980,365.373505 577.794922,360.354218 576.551453,355.274109 
z"/>
<path fill="#0A344C" opacity="1.000000" stroke="none" 
	d="
M225.720520,411.708313 
	C230.140213,407.720917 242.228668,407.437958 247.601151,411.478668 
	C250.234085,413.458893 252.700607,415.805969 254.723511,418.392822 
	C255.804733,419.775482 256.789581,422.663574 256.085541,423.764771 
	C253.031418,428.542023 250.195984,434.324036 245.663177,437.073029 
	C239.941483,440.543030 232.679337,440.386414 226.158844,436.366638 
	C226.077194,435.929108 226.375824,435.615234 226.818481,435.638245 
	C231.085800,435.734467 234.910324,435.857178 238.735153,435.867828 
	C243.123993,435.880066 252.712280,428.514374 253.756332,424.400787 
	C253.836121,424.086456 254.012039,423.590485 253.874100,423.456909 
	C249.805908,419.517395 246.302490,414.225006 241.426376,412.121124 
	C237.150940,410.276428 231.329086,412.015869 226.072815,412.056213 
	C225.955322,411.940308 225.720520,411.708313 225.720520,411.708313 
z"/>
<path fill="#092D43" opacity="1.000000" stroke="none" 
	d="
M589.006104,483.085999 
	C591.971802,482.047821 595.006226,481.169952 597.887634,479.935089 
	C602.594299,477.917999 607.250549,478.575745 610.010010,481.919159 
	C612.541931,484.986877 612.580872,490.763550 610.091553,494.025848 
	C607.687561,497.176300 602.375305,497.868317 597.764038,495.948456 
	C594.904785,494.757996 591.857361,494.019562 588.506836,493.068298 
	C588.119202,493.058319 588.039673,493.017517 588.196289,492.718262 
	C590.910767,489.471771 591.179749,486.364349 589.006104,483.085999 
M605.849060,483.612061 
	C603.277283,483.626801 599.804749,482.647217 598.384888,483.933502 
	C596.939697,485.242645 596.540710,489.208984 597.431641,491.247955 
	C598.821106,494.427765 602.279785,494.576141 605.134949,492.705750 
	C608.548096,490.469879 608.751282,487.418823 605.849060,483.612061 
z"/>
<path fill="#1E6689" opacity="1.000000" stroke="none" 
	d="
M336.094116,542.734070 
	C333.173553,541.531006 330.062347,540.693420 328.178619,538.697388 
	C327.280823,537.746094 328.005463,533.836975 329.282471,532.632263 
	C330.773651,531.225586 333.809509,530.579102 335.912048,530.980530 
	C337.538788,531.291199 340.056274,533.890869 339.889648,535.176270 
	C339.553864,537.765747 337.659027,540.153137 336.094116,542.734070 
z"/>
<path fill="#1E6689" opacity="1.000000" stroke="none" 
	d="
M375.174561,578.814331 
	C372.091003,575.835083 371.544434,572.441711 374.469391,569.971802 
	C376.218567,568.494812 380.007294,567.574707 381.781647,568.502686 
	C383.598419,569.452942 384.986603,572.981384 384.941162,575.350281 
	C384.858398,579.666931 380.822144,580.999573 375.174561,578.814331 
z"/>
<path fill="#0D3952" opacity="1.000000" stroke="none" 
	d="
M590.105225,363.588684 
	C589.729614,361.397614 589.740173,359.353668 589.712402,356.941223 
	C593.327515,355.123413 596.907532,352.832306 600.658813,352.505096 
	C603.402466,352.265808 607.526550,353.869232 608.901611,356.017212 
	C610.173462,358.003876 609.683655,362.911530 608.020752,364.528137 
	C605.958130,366.533295 601.857849,367.220551 598.697632,367.084747 
	C595.919373,366.965332 593.223633,364.926788 590.105225,363.588684 
M607.653198,359.638550 
	C605.760864,357.863953 604.099304,355.600586 601.866821,354.546631 
	C600.925842,354.102417 598.181213,355.833832 597.304138,357.233002 
	C595.325684,360.389130 596.292603,363.347809 599.661255,365.082184 
	C603.000671,366.801544 605.888977,365.008423 607.653198,359.638550 
z"/>
<path fill="#0A344C" opacity="1.000000" stroke="none" 
	d="
M521.638000,537.593079 
	C520.852783,542.517761 517.846924,544.900513 513.612183,544.606384 
	C511.180847,544.437500 507.566528,542.937195 506.831177,541.098083 
	C505.777710,538.463318 505.925568,534.468628 507.261414,531.960510 
	C509.360321,528.019775 513.867188,528.505005 517.602356,529.547180 
	C521.255981,530.566589 521.902100,533.802612 521.638000,537.593079 
M518.529358,538.856262 
	C519.272522,533.384766 516.297058,529.713928 512.221191,531.476868 
	C510.408234,532.260925 508.460693,534.468994 508.097870,536.328125 
	C507.801453,537.846863 509.616791,541.161316 510.763092,541.289429 
	C513.136108,541.554749 515.686890,540.229614 518.529358,538.856262 
z"/>
<path fill="#092D43" opacity="1.000000" stroke="none" 
	d="
M539.941650,491.975098 
	C541.157837,484.273010 541.103821,484.199310 532.442261,482.149048 
	C537.240601,478.639130 542.088867,481.446625 546.225586,490.250366 
	C548.306824,489.398438 550.388428,488.547424 552.744385,487.840240 
	C551.270752,490.905121 549.522705,493.826111 547.092285,496.968903 
	C544.955261,497.166901 543.500549,497.143097 541.954712,496.783020 
	C541.223022,494.956207 540.582336,493.465668 539.941650,491.975098 
z"/>
<path fill="#12506E" opacity="1.000000" stroke="none" 
	d="
M270.441833,492.660034 
	C267.598938,492.772003 264.756073,492.884003 261.445282,493.031036 
	C259.843231,492.473694 258.709076,491.881287 257.375153,491.026306 
	C256.130157,484.108246 261.088196,484.005402 265.931824,483.390411 
	C266.756012,484.417419 267.064117,485.268372 267.478516,486.445526 
	C268.064758,487.539215 268.544678,488.306732 269.091980,489.387054 
	C269.586853,490.686584 270.014343,491.673309 270.441833,492.660034 
z"/>
<path fill="#0A344C" opacity="1.000000" stroke="none" 
	d="
M225.928268,436.086426 
	C224.648834,435.158173 222.622437,434.135803 222.540710,432.976349 
	C222.158310,427.550079 222.099503,422.074036 222.408188,416.643219 
	C222.496078,415.096893 224.208755,413.642914 225.448425,411.927429 
	C225.720520,411.708313 225.955322,411.940308 226.085358,412.513336 
	C226.268875,420.595978 226.322342,428.105621 226.375824,435.615234 
	C226.375824,435.615234 226.077194,435.929108 225.928268,436.086426 
z"/>
<path fill="#092D43" opacity="1.000000" stroke="none" 
	d="
M582.941223,411.345581 
	C582.935913,411.514343 582.930542,411.683105 582.950073,412.104431 
	C579.292419,413.065338 575.633850,414.079376 571.918579,414.371857 
	C569.545593,414.558655 567.088684,413.678192 564.305359,413.098206 
	C563.966919,412.606659 563.991394,412.292999 564.475220,411.670197 
	C570.937500,411.355957 576.939331,411.350769 582.941223,411.345581 
z"/>
<path fill="#0A344C" opacity="1.000000" stroke="none" 
	d="
M524.188965,506.196960 
	C525.683472,504.969330 527.040466,504.092407 528.815308,503.503662 
	C529.327942,504.054535 529.422668,504.317169 529.517456,504.579834 
	C526.578796,508.621765 523.640076,512.663696 520.408325,516.851807 
	C520.086792,515.495117 519.581543,513.779480 520.135864,512.536377 
	C521.094849,510.385742 522.710999,508.528168 524.188965,506.196960 
z"/>
<path fill="#0D3952" opacity="1.000000" stroke="none" 
	d="
M588.750366,482.960419 
	C591.179749,486.364349 590.910767,489.471771 588.156677,492.697632 
	C587.515381,492.976593 587.070374,492.976929 586.397461,492.596985 
	C588.492065,487.272644 585.535645,484.551849 581.913513,482.111420 
	C583.335876,482.067688 584.758240,482.023956 586.608765,481.968719 
	C587.522888,482.249725 588.008789,482.542267 588.750366,482.960419 
z"/>
<path fill="#092D43" opacity="1.000000" stroke="none" 
	d="
M311.622711,482.087097 
	C309.444458,483.225739 306.884888,484.371613 304.164795,485.323669 
	C306.416626,484.118011 308.829010,483.106201 311.622711,482.087097 
z"/>
<path fill="#12506E" opacity="1.000000" stroke="none" 
	d="
M556.938232,482.215942 
	C557.061768,482.380585 556.990662,482.724121 556.707336,483.235046 
	C556.577942,483.066589 556.660767,482.730713 556.938232,482.215942 
z"/>
<path fill="#12506E" opacity="1.000000" stroke="none" 
	d="
M581.682617,482.049042 
	C585.535645,484.551849 588.492065,487.272644 586.063477,492.591980 
	C582.867554,492.939148 579.777832,492.911102 576.295044,492.910461 
	C577.328491,489.483063 578.755005,486.028168 580.347046,482.200470 
	C580.835815,481.820374 581.148865,481.873352 581.682617,482.049042 
z"/>
<path fill="#0A344C" opacity="1.000000" stroke="none" 
	d="
M539.555908,491.989807 
	C540.582336,493.465668 541.223022,494.956207 541.910278,497.124664 
	C541.941467,498.032471 541.926086,498.262390 541.910767,498.492279 
	C540.463257,497.676910 539.015808,496.861572 536.975159,495.819519 
	C535.249817,495.794220 534.117554,495.995575 532.985352,496.196960 
	C535.046936,494.799500 537.108582,493.402008 539.555908,491.989807 
z"/>
<path fill="#12506E" opacity="1.000000" stroke="none" 
	d="
M532.816284,496.463562 
	C534.117554,495.995575 535.249817,495.794220 536.643372,495.689941 
	C534.634216,498.606628 532.363708,501.426239 529.805298,504.412842 
	C529.422668,504.317169 529.327942,504.054535 529.112610,503.390686 
	C530.210388,500.903076 531.428772,498.816620 532.816284,496.463562 
z"/>
<path fill="#12506E" opacity="1.000000" stroke="none" 
	d="
M584.174988,436.595245 
	C584.426941,438.643799 584.709106,441.126831 584.783325,443.876038 
	C584.452026,441.771393 584.328613,439.400543 584.174988,436.595245 
z"/>
<path fill="#12506E" opacity="1.000000" stroke="none" 
	d="
M542.105042,498.750671 
	C541.926086,498.262390 541.941467,498.032471 542.001282,497.460938 
	C543.500549,497.143097 544.955261,497.166901 546.848145,497.197144 
	C546.305176,499.687164 544.971436,501.196472 542.105042,498.750671 
z"/>
<path fill="#12506E" opacity="1.000000" stroke="none" 
	d="
M562.052612,442.637085 
	C562.120422,440.820435 562.359314,438.666504 562.893250,436.350708 
	C562.866760,438.225830 562.545227,440.262848 562.052612,442.637085 
z"/>
<path fill="#12506E" opacity="1.000000" stroke="none" 
	d="
M561.045227,452.658325 
	C560.893921,451.733673 560.911377,450.494385 561.107666,449.045654 
	C561.262268,450.005341 561.238098,451.174530 561.045227,452.658325 
z"/>
<path fill="#12506E" opacity="1.000000" stroke="none" 
	d="
M560.099976,460.676025 
	C559.967957,459.738342 560.016174,458.492584 560.266968,457.055359 
	C560.406494,458.031891 560.343323,459.199951 560.099976,460.676025 
z"/>
<path fill="#12506E" opacity="1.000000" stroke="none" 
	d="
M583.978088,449.301941 
	C584.015564,449.970123 583.883789,450.912231 583.521729,451.977142 
	C583.463928,451.258575 583.636414,450.417206 583.978088,449.301941 
z"/>
<path fill="#12506E" opacity="1.000000" stroke="none" 
	d="
M559.010864,467.682922 
	C558.851807,467.042206 558.860107,466.118591 559.035156,465.016907 
	C559.193909,465.692535 559.186035,466.546295 559.010864,467.682922 
z"/>
<path fill="#2BA9DA" opacity="1.000000" stroke="none" 
	d="
M384.383575,346.541382 
	C382.709686,343.288635 381.218079,340.353729 379.053375,336.094269 
	C389.051117,332.780273 398.320435,329.304535 407.836853,326.748901 
	C411.718475,325.706482 413.040619,324.252502 413.005585,320.471008 
	C412.891327,308.141449 414.270386,295.626251 412.550079,283.541931 
	C411.342468,275.059357 410.500732,266.698364 410.224640,258.180573 
	C410.088043,253.965317 411.720886,252.584091 415.757446,252.756851 
	C421.246796,252.991791 426.752991,252.873749 432.251465,252.837524 
	C435.057495,252.819016 436.646912,253.858078 436.621124,256.908356 
	C436.569000,263.072968 437.940735,269.598816 436.373749,275.333099 
	C432.369293,289.987305 435.446686,304.747009 434.195435,319.378113 
	C433.786926,324.155304 435.762787,325.759430 440.371460,326.950104 
	C449.462128,329.298706 458.263062,332.768890 468.122528,336.091583 
	C465.177338,341.404205 463.097107,345.734436 460.395264,349.633942 
	C459.698639,350.639343 456.834381,350.946960 455.330078,350.456940 
	C446.144958,347.464935 437.124817,343.959595 427.911743,341.064362 
	C425.271881,340.234772 421.956604,340.143951 419.327667,340.947205 
	C410.421600,343.668427 401.558258,346.631653 392.934845,350.133331 
	C388.511078,351.929718 386.070160,351.260254 384.383575,346.541382 
z"/>
<path fill="#19587A" opacity="1.000000" stroke="none" 
	d="
M475.177429,297.902557 
	C472.820068,300.678528 469.996490,301.952881 467.812164,299.091125 
	C466.371948,297.204254 465.807678,294.002289 466.229462,291.634705 
	C466.418274,290.574677 470.256744,289.123352 471.967316,289.587524 
	C475.809448,290.630249 476.687653,293.853088 475.177429,297.902557 
z"/>
<path fill="#19587A" opacity="1.000000" stroke="none" 
	d="
M376.857483,289.220703 
	C381.980469,291.482849 383.816498,294.600464 381.492462,297.356293 
	C380.202667,298.885651 377.305176,300.501587 375.780823,300.021057 
	C373.925873,299.436371 371.329163,296.401306 371.621887,294.941071 
	C372.053253,292.789124 374.753601,291.092010 376.857483,289.220703 
z"/>
<path fill="#399BC2" opacity="1.000000" stroke="none" 
	d="
M436.801270,592.837524 
	C429.298889,592.991333 421.834412,593.126526 414.371460,593.321655 
	C411.513947,593.396362 410.051483,592.268433 410.114532,589.244019 
	C410.235718,583.435242 408.974182,577.267578 410.505890,571.879822 
	C415.201050,555.364624 411.797729,538.686584 413.104004,521.823059 
	C414.146729,523.302124 415.374573,525.060730 415.487427,526.888245 
	C415.844940,532.676025 416.132477,538.508789 415.810638,544.288818 
	C415.256561,554.240784 414.646271,564.224121 413.291046,574.088806 
	C411.252655,588.925720 412.261841,590.408875 426.940857,590.078430 
	C427.107452,590.074707 427.274200,590.076721 427.440735,590.071350 
	C433.147919,589.887390 434.253510,589.050476 433.989197,583.213379 
	C433.651733,575.759766 432.483490,568.343445 432.154724,560.889832 
	C431.714600,550.910706 431.747833,540.910950 431.556000,530.920532 
	C431.362396,520.838135 433.273712,519.085754 442.899689,516.764160 
	C448.950531,515.304810 454.673828,512.334656 460.356049,509.645172 
	C461.336670,509.181030 462.078369,506.537079 461.720703,505.231384 
	C460.599304,501.137665 457.727386,499.091278 453.365845,500.410522 
	C446.843414,502.383270 440.267365,504.256073 433.917084,506.699036 
	C427.402466,509.205200 421.198547,509.782654 414.555115,507.093170 
	C408.251007,504.541077 401.734375,502.451294 395.185577,500.603210 
	C393.128235,500.022675 390.397461,500.325775 388.467194,501.251190 
	C386.781647,502.059235 385.019775,504.193451 384.749634,505.964203 
	C384.558502,507.217133 386.505096,509.555817 388.006744,510.175446 
	C394.407837,512.816772 401.049835,514.869385 407.488831,517.426636 
	C409.434265,518.199341 411.008698,519.906189 412.753113,521.185120 
	C401.184631,519.302490 390.378265,515.294556 379.489746,509.699646 
	C381.734894,505.305359 383.514679,501.180756 385.936188,497.475494 
	C386.656708,496.373047 389.430176,495.660919 390.834351,496.110046 
	C400.344635,499.152039 409.689270,502.713470 419.207275,505.728790 
	C421.669983,506.508972 424.776428,506.633423 427.214905,505.869995 
	C436.583160,502.936981 445.830841,499.605042 455.056976,496.239594 
	C458.282135,495.063171 460.383118,495.502960 461.899292,498.795074 
	C463.558838,502.398438 465.554993,505.846832 468.061188,510.611237 
	C458.675171,513.789673 449.917847,517.234131 440.881592,519.623962 
	C435.967804,520.923523 434.102051,522.774780 434.265839,527.956360 
	C434.628662,539.433105 433.150513,551.094421 434.695312,562.369141 
	C436.047333,572.237000 436.989868,581.967346 436.778992,592.320312 
	C436.812134,592.770264 436.839813,592.842834 436.801270,592.837524 
z"/>
<path fill="#1E6689" opacity="1.000000" stroke="none" 
	d="
M474.751831,549.312195 
	C476.737183,553.084961 475.853882,556.222290 472.350983,557.236877 
	C470.445557,557.788818 466.288513,556.403625 465.925598,555.111633 
	C465.344482,553.042847 466.453949,549.692505 468.059570,548.121033 
	C469.010803,547.190002 472.286560,548.634033 474.751831,549.312195 
z"/>
<path fill="#19587A" opacity="1.000000" stroke="none" 
	d="
M371.095093,552.879089 
	C372.846130,550.683777 374.381989,547.973572 376.501129,547.393250 
	C377.799713,547.037598 380.892914,549.649414 381.500610,551.484741 
	C381.991364,552.966980 380.482880,556.181091 378.961151,557.049377 
	C375.139801,559.229858 372.418457,557.292969 371.095093,552.879089 
z"/>
<path fill="#2AA9DA" opacity="1.000000" stroke="none" 
	d="
M262.098602,410.100830 
	C262.107147,409.915222 262.115692,409.729614 262.225769,409.001221 
	C262.308167,407.284790 262.289062,406.111176 262.269928,404.937531 
	C262.522125,402.883606 262.774323,400.829712 263.137085,398.207092 
	C263.221527,397.079254 263.195343,396.520111 263.169159,395.960999 
	C263.447906,393.899933 263.726654,391.838867 264.109558,389.140137 
	C264.214417,387.970062 264.215088,387.437622 264.215759,386.905212 
	C264.468353,385.215454 264.720917,383.525696 265.088013,381.232941 
	C265.197205,380.074982 265.191925,379.520020 265.186646,378.965057 
	C265.450928,377.219818 265.715240,375.474579 266.117584,372.983521 
	C266.888672,365.777710 267.366302,359.271576 271.694763,353.908173 
	C274.807465,349.017029 277.920166,344.125916 281.370514,338.732635 
	C281.900208,337.863373 282.092285,337.496246 282.284363,337.129150 
	C283.496460,335.433350 284.708588,333.737579 286.305359,331.570618 
	C286.874573,330.724274 287.059113,330.349152 287.243652,329.974030 
	C287.243683,329.974030 287.424744,329.860748 287.689331,329.561096 
	C287.657593,328.143677 287.361267,327.025940 287.064941,325.908173 
	C279.778839,318.957642 279.778839,318.957642 285.981262,310.737427 
	C293.129852,301.263214 293.147736,301.238464 302.568054,308.044281 
	C309.993378,313.408844 317.308075,318.928528 324.793335,324.207184 
	C327.862000,326.371216 328.546173,328.306366 326.006287,331.458893 
	C321.619629,336.903625 317.444000,342.528870 313.396790,348.232330 
	C311.312286,351.169952 309.067108,351.787933 306.350525,349.523132 
	C302.577087,346.377228 300.347900,347.681915 298.311432,351.593353 
	C296.549042,354.978394 294.266724,358.092743 291.831329,361.817780 
	C290.946808,363.199768 290.445160,364.090729 289.943481,364.981689 
	C289.706787,365.200592 289.527893,365.459442 289.164307,366.174866 
	C288.845337,367.418549 288.768921,368.245605 288.692505,369.072662 
	C288.176117,374.793457 287.659760,380.514221 286.962341,386.938843 
	C286.684753,388.787170 286.588226,389.931671 286.491699,391.076202 
	C285.850739,396.320496 285.049561,401.552032 284.630432,406.813995 
	C284.388794,409.847076 283.334473,411.331207 280.126801,411.224487 
	C274.515869,411.037933 268.898346,411.048309 262.837463,410.710693 
	C262.391296,410.445282 262.098602,410.100830 262.098602,410.100830 
z"/>
<path fill="#1E6689" opacity="1.000000" stroke="none" 
	d="
M248.962494,363.952423 
	C246.249298,364.304138 243.506516,365.092987 241.473251,364.223236 
	C240.203064,363.679932 239.173416,360.447235 239.554962,358.766144 
	C239.938583,357.076050 242.016617,354.976501 243.698730,354.598419 
	C245.382599,354.219940 248.576447,355.256409 249.167801,356.555847 
	C250.067871,358.533630 249.295120,361.272736 248.962494,363.952423 
z"/>
<path fill="#12506E" opacity="1.000000" stroke="none" 
	d="
M271.301086,353.944031 
	C267.366302,359.271576 266.888672,365.777710 266.099548,372.602478 
	C265.095764,369.010529 264.917664,365.082336 260.230804,362.800262 
	C257.038361,361.245850 258.614563,356.450043 262.571747,355.390961 
	C265.282043,354.665558 268.124207,354.432831 271.301086,353.944031 
z"/>
<path fill="#12506E" opacity="1.000000" stroke="none" 
	d="
M286.687408,390.884033 
	C286.588226,389.931671 286.684753,388.787170 286.954895,387.341125 
	C287.046722,388.257019 286.964905,389.474457 286.687408,390.884033 
z"/>
<path fill="#12506E" opacity="1.000000" stroke="none" 
	d="
M262.099976,405.198486 
	C262.289062,406.111176 262.308167,407.284790 262.195496,408.724182 
	C262.019165,407.813080 261.974579,406.636230 262.099976,405.198486 
z"/>
<path fill="#12506E" opacity="1.000000" stroke="none" 
	d="
M287.094055,326.378357 
	C287.361267,327.025940 287.657593,328.143677 287.721619,329.459320 
	C287.367279,328.720978 287.245209,327.784729 287.094055,326.378357 
z"/>
<path fill="#12506E" opacity="1.000000" stroke="none" 
	d="
M290.214935,364.820435 
	C290.445160,364.090729 290.946808,363.199768 291.710815,362.138733 
	C291.477570,362.865479 290.981995,363.762329 290.214935,364.820435 
z"/>
<path fill="#12506E" opacity="1.000000" stroke="none" 
	d="
M264.083405,387.045532 
	C264.215088,387.437622 264.214417,387.970062 264.092407,388.744324 
	C263.964417,388.386078 263.957733,387.785980 264.083405,387.045532 
z"/>
<path fill="#12506E" opacity="1.000000" stroke="none" 
	d="
M263.045898,396.142395 
	C263.195343,396.520111 263.221527,397.079254 263.128601,397.819336 
	C262.980530,397.441467 262.951599,396.882629 263.045898,396.142395 
z"/>
<path fill="#12506E" opacity="1.000000" stroke="none" 
	d="
M265.057465,379.140686 
	C265.191925,379.520020 265.197205,380.074982 265.077698,380.804443 
	C264.944702,380.424713 264.936493,379.870544 265.057465,379.140686 
z"/>
<path fill="#12506E" opacity="1.000000" stroke="none" 
	d="
M288.852966,368.740601 
	C288.768921,368.245605 288.845337,367.418549 289.109192,366.405823 
	C289.202240,366.949615 289.107819,367.679077 288.852966,368.740601 
z"/>
<path fill="#12506E" opacity="1.000000" stroke="none" 
	d="
M282.062469,337.341736 
	C282.092285,337.496246 281.900208,337.863373 281.451660,338.417175 
	C281.410339,338.254028 281.625458,337.904175 282.062469,337.341736 
z"/>
<path fill="#12506E" opacity="1.000000" stroke="none" 
	d="
M287.025879,330.194397 
	C287.059113,330.349152 286.874573,330.724274 286.433258,331.287964 
	C286.387054,331.122589 286.597595,330.768677 287.025879,330.194397 
z"/>
<path fill="#12506E" opacity="1.000000" stroke="none" 
	d="
M262.090790,410.208710 
	C262.098602,410.100830 262.391296,410.445282 262.345795,410.552063 
	C262.300293,410.658844 262.082977,410.316589 262.090790,410.208710 
z"/>
<path fill="#27ADE0" opacity="1.000000" stroke="none" 
	d="
M269.024567,489.074249 
	C268.544678,488.306732 268.064758,487.539215 267.688629,486.175293 
	C267.845276,482.137299 268.213898,478.665588 267.889008,475.260010 
	C267.069061,466.663483 265.452637,458.119354 265.050354,449.512421 
	C264.526947,438.313995 263.279114,437.391449 277.748749,438.012970 
	C277.914551,438.020111 278.139740,437.980591 278.235931,438.070801 
	C279.784363,439.523315 282.453613,440.844543 282.668182,442.483582 
	C284.111389,453.508331 285.192474,464.588654 286.075653,475.676086 
	C286.871490,485.667450 293.020538,492.616669 299.035797,499.695892 
	C299.330780,500.042969 300.245209,499.863739 300.871185,499.929565 
	C301.382385,500.028809 301.893616,500.128021 303.105103,500.386536 
	C310.582916,499.592926 314.732880,502.973541 317.588562,508.719574 
	C318.391663,510.335571 319.722198,511.681976 320.735199,513.202393 
	C324.416626,518.727844 324.240204,520.392944 318.989258,524.336304 
	C312.884277,528.921021 306.465607,533.099792 300.492676,537.844482 
	C296.591461,540.943420 293.590546,541.560181 289.834869,537.581238 
	C284.181366,531.591492 283.506348,529.472839 286.845886,524.453308 
	C287.634491,523.268066 287.968445,521.780334 288.511536,520.431702 
	C288.607635,520.062439 288.703766,519.693176 289.000458,518.798462 
	C288.910248,517.011597 288.950287,515.527893 288.276093,514.523926 
	C283.118073,506.843018 277.870056,499.220673 272.514130,491.676575 
	C271.714844,490.550781 270.205444,489.929138 269.024567,489.074249 
z"/>
<path fill="#3993BA" opacity="1.000000" stroke="none" 
	d="
M300.796814,499.605408 
	C300.245209,499.863739 299.330780,500.042969 299.035797,499.695892 
	C293.020538,492.616669 286.871490,485.667450 286.075653,475.676086 
	C285.192474,464.588654 284.111389,453.508331 282.668182,442.483582 
	C282.453613,440.844543 279.784363,439.523315 278.235931,438.070801 
	C278.139740,437.980591 277.914551,438.020111 277.748749,438.012970 
	C263.279114,437.391449 264.526947,438.313995 265.050354,449.512421 
	C265.452637,458.119354 267.069061,466.663483 267.889008,475.260010 
	C268.213898,478.665588 267.845276,482.137299 267.582336,485.849121 
	C267.064117,485.268372 266.756012,484.417419 266.329346,483.314514 
	C264.870300,469.411957 263.646454,455.748260 262.126526,442.117584 
	C261.588135,437.289490 263.148743,435.393219 268.048615,435.819214 
	C273.148529,436.262695 279.917999,434.411163 282.939026,437.036469 
	C285.877533,439.590149 285.159821,446.524933 285.747620,451.570953 
	C286.746796,460.148315 287.376831,468.770020 288.460144,477.335388 
	C288.759705,479.703735 289.805450,482.122742 291.044708,484.198517 
	C294.105255,489.324860 297.476257,494.265808 300.796814,499.605408 
z"/>
<path fill="#3993BA" opacity="1.000000" stroke="none" 
	d="
M288.202789,520.563110 
	C287.968445,521.780334 287.634491,523.268066 286.845886,524.453308 
	C283.506348,529.472839 284.181366,531.591492 289.834869,537.581238 
	C293.590546,541.560181 296.591461,540.943420 300.492676,537.844482 
	C306.465607,533.099792 312.884277,528.921021 318.989258,524.336304 
	C324.240204,520.392944 324.416626,518.727844 320.735199,513.202393 
	C319.722198,511.681976 318.391663,510.335571 317.588562,508.719574 
	C314.732880,502.973541 310.582916,499.592926 303.494934,500.411713 
	C309.630554,494.566772 309.975739,494.592926 314.908661,501.286285 
	C318.648865,506.361389 322.291077,511.511932 326.148376,516.496216 
	C327.890991,518.747986 328.199585,520.412537 325.672485,522.270508 
	C315.781494,529.542297 306.011658,536.981750 296.005341,544.089355 
	C295.092346,544.737915 292.226776,544.008911 291.277740,542.984314 
	C288.131592,539.587646 285.593170,535.635864 282.543793,532.139404 
	C279.677124,528.852478 279.972839,526.439026 283.673309,524.169128 
	C285.211761,523.225464 286.494843,521.865356 288.202789,520.563110 
z"/>
<path fill="#19587A" opacity="1.000000" stroke="none" 
	d="
M244.858002,482.295837 
	C250.891922,484.815796 252.605347,489.449097 248.629013,492.162231 
	C247.020767,493.259521 244.066528,493.619354 242.315323,492.892303 
	C240.838028,492.279022 239.014343,489.149841 239.473755,487.949188 
	C240.318436,485.741608 242.729248,484.133331 244.858002,482.295837 
z"/>
<path fill="#3993BA" opacity="1.000000" stroke="none" 
	d="
M269.091980,489.387054 
	C270.205444,489.929138 271.714844,490.550781 272.514130,491.676575 
	C277.870056,499.220673 283.118073,506.843018 288.276093,514.523926 
	C288.950287,515.527893 288.910248,517.011597 289.080444,518.523682 
	C282.946472,510.223145 276.933105,501.672058 270.680786,492.890503 
	C270.014343,491.673309 269.586853,490.686584 269.091980,489.387054 
z"/>
<path fill="#092D43" opacity="1.000000" stroke="none" 
	d="
M305.101379,493.760864 
	C304.617523,494.135559 304.152008,494.308655 303.686462,494.481750 
	C303.706024,494.054230 303.725586,493.626678 303.745117,493.199158 
	C304.203308,493.319214 304.661499,493.439270 305.101379,493.760864 
z"/>
<path fill="#2AA9DA" opacity="1.000000" stroke="none" 
	d="
M583.165771,410.976685 
	C576.939331,411.350769 570.937500,411.355957 564.472900,411.433655 
	C563.466187,410.870514 562.922119,410.234833 562.349731,409.063782 
	C562.184021,407.693237 562.046753,406.858063 561.909546,406.022888 
	C561.739441,403.667664 561.569336,401.312439 561.372681,398.266785 
	C561.214111,397.056610 561.082214,396.536865 560.950317,396.017120 
	C560.815491,394.643433 560.680786,393.269714 560.511841,391.183533 
	C560.302612,389.653046 560.127563,388.835022 559.952515,388.016998 
	C559.803772,386.962677 559.655029,385.908325 559.440430,384.208649 
	C559.224121,383.051819 559.073669,382.540344 558.923218,382.028870 
	C558.764587,378.005280 558.605957,373.981659 558.483948,369.241943 
	C558.155701,367.478668 557.790955,366.431519 557.426208,365.384369 
	C554.264832,360.504150 550.993408,355.690582 547.980835,350.720184 
	C545.991760,347.438416 543.725342,346.755432 540.707275,349.166595 
	C537.455078,351.764801 535.229675,350.783752 532.995422,347.574738 
	C529.008362,341.848267 524.802490,336.264862 520.481934,330.784180 
	C518.550232,328.333771 518.968262,326.752808 521.303040,325.049438 
	C531.239990,317.799774 541.087158,310.425079 551.122681,303.315674 
	C552.043457,302.663330 554.707703,302.998810 555.468201,303.851501 
	C558.556152,307.313782 561.088562,311.264587 564.074280,314.827057 
	C566.650513,317.900940 566.373901,320.143250 563.307312,322.769379 
	C557.742432,327.534912 557.845886,327.687653 561.883423,333.744781 
	C566.583008,340.795105 571.317078,347.822510 576.293823,355.066956 
	C577.794922,360.354218 579.479980,365.373505 580.189880,370.527100 
	C581.662964,381.221863 582.696594,391.980408 583.729980,402.730133 
	C583.979065,405.321198 583.522400,407.980103 583.165771,410.976685 
z"/>
<path fill="#12506E" opacity="1.000000" stroke="none" 
	d="
M559.838440,388.231934 
	C560.127563,388.835022 560.302612,389.653046 560.406250,390.782684 
	C560.131348,390.211823 559.927856,389.329376 559.838440,388.231934 
z"/>
<path fill="#12506E" opacity="1.000000" stroke="none" 
	d="
M557.419067,365.771667 
	C557.790955,366.431519 558.155701,367.478668 558.419434,368.796478 
	C558.016235,368.097748 557.714050,367.128387 557.419067,365.771667 
z"/>
<path fill="#12506E" opacity="1.000000" stroke="none" 
	d="
M561.795532,406.263550 
	C562.046753,406.858063 562.184021,407.693237 562.226135,408.769958 
	C561.981201,408.175720 561.831360,407.339935 561.795532,406.263550 
z"/>
<path fill="#12506E" opacity="1.000000" stroke="none" 
	d="
M558.831604,382.198975 
	C559.073669,382.540344 559.224121,383.051819 559.315674,383.828369 
	C559.084473,383.518616 558.912231,382.943848 558.831604,382.198975 
z"/>
<path fill="#12506E" opacity="1.000000" stroke="none" 
	d="
M560.853394,396.183594 
	C561.082214,396.536865 561.214111,397.056610 561.264893,397.838440 
	C561.041260,397.516998 560.898865,396.933502 560.853394,396.183594 
z"/>
<path fill="#27ADE0" opacity="1.000000" stroke="none" 
	d="
M600.367249,418.297485 
	C604.555725,413.356384 610.070251,414.749573 615.044006,414.634949 
	C615.996216,414.613037 618.140564,417.813934 617.804993,418.965576 
	C616.475281,423.528290 621.186646,429.448547 615.395020,432.700165 
	C611.204407,435.052917 603.809692,432.530823 600.384705,429.252502 
	C596.529175,425.561981 596.523193,422.234528 600.367249,418.297485 
z"/>
<path fill="#26ADE0" opacity="1.000000" stroke="none" 
	d="
M499.271057,397.162292 
	C503.000763,394.999115 506.700409,393.216217 510.408234,391.450562 
	C510.523956,391.395477 510.841705,391.480499 510.868286,391.563385 
	C512.234131,395.822540 514.189514,400.011414 514.740784,404.377167 
	C515.220703,408.177887 511.771240,408.935822 508.527405,409.103516 
	C504.279877,409.323120 500.889740,408.647766 500.552765,403.350739 
	C500.428375,401.395660 499.696838,399.479218 499.271057,397.162292 
z"/>
<path fill="#26ADE0" opacity="1.000000" stroke="none" 
	d="
M333.608215,395.894836 
	C334.571564,391.198639 337.011353,390.842468 340.695343,392.365417 
	C348.389771,395.546234 348.619171,395.757477 346.964569,403.009430 
	C345.731476,408.413971 338.547211,411.494659 333.988281,408.276184 
	C332.809662,407.444153 332.098419,405.185486 332.120117,403.595062 
	C332.153503,401.150848 333.006592,398.717834 333.608215,395.894836 
z"/>
<path fill="#27ADE0" opacity="1.000000" stroke="none" 
	d="
M346.366272,453.292419 
	C335.429504,458.380371 334.670837,458.536591 332.358490,445.812531 
	C331.666809,442.006378 331.942657,438.772034 336.757111,438.003387 
	C343.135468,436.985077 346.229553,438.425507 346.921692,443.523712 
	C347.344116,446.634766 346.790344,449.878387 346.366272,453.292419 
z"/>
<path fill="#27ADE0" opacity="1.000000" stroke="none" 
	d="
M499.437378,452.593231 
	C496.736053,443.064209 501.311523,436.895782 509.832947,437.961823 
	C510.163422,438.003174 510.501923,438.010590 510.823517,438.088257 
	C515.839294,439.299988 515.169922,441.898529 513.289734,452.879425 
	C512.517517,457.389435 509.388000,457.214844 506.044373,455.795990 
	C503.901306,454.886597 501.820892,453.829620 499.437378,452.593231 
z"/>
<path fill="#3993BA" opacity="1.000000" stroke="none" 
	d="
M343.318298,478.745422 
	C340.958435,476.111969 340.995361,474.346558 344.107391,472.725952 
	C348.607941,470.382294 353.244995,465.378113 357.262543,465.892578 
	C360.915894,466.360352 363.712677,472.780670 367.090332,476.386566 
	C369.520752,478.981232 369.473633,481.012817 366.926666,483.533051 
	C364.227997,486.203400 361.940369,489.286713 359.440247,492.160950 
	C357.683105,494.181000 355.895660,494.393616 354.096039,492.154175 
	C350.577026,487.775146 347.033447,483.415833 343.318298,478.745422 
M356.210815,470.161255 
	C353.166077,471.678101 349.856323,472.858398 347.239960,474.919159 
	C346.466461,475.528320 346.946045,479.336304 348.068909,480.441193 
	C351.317291,483.637604 352.612335,490.042694 358.540527,489.127777 
	C363.489288,488.364014 366.073853,479.450104 362.864929,475.539337 
	C361.217377,473.531403 358.934692,472.044617 356.210815,470.161255 
z"/>
<path fill="#399BC2" opacity="1.000000" stroke="none" 
	d="
M497.125458,359.898285 
	C499.677002,363.399933 501.968262,366.651855 504.353424,369.833405 
	C505.918304,371.920715 505.529755,373.460724 503.312408,374.672791 
	C503.167480,374.751984 503.041931,374.866241 502.897949,374.947540 
	C498.601196,377.373383 494.303253,379.797150 490.005524,382.221313 
	C486.243225,377.641632 482.434998,373.097931 478.778534,368.435272 
	C478.337128,367.872375 478.333374,366.362244 478.775146,365.806458 
	C482.245270,361.440765 485.873474,357.200684 490.529144,351.635376 
	C493.022156,354.756927 494.963593,357.187836 497.125458,359.898285 
M484.301300,370.418884 
	C485.247131,371.976074 485.957245,373.768158 487.207153,375.022339 
	C488.384674,376.203918 490.610229,377.897491 491.539062,377.484833 
	C494.589050,376.129852 497.759094,374.332886 499.825531,371.831970 
	C500.634827,370.852539 499.102570,367.248993 497.845642,365.369598 
	C492.047150,356.699432 488.299469,356.756195 483.055695,365.553345 
	C482.478363,366.521881 483.530212,368.461578 484.301300,370.418884 
z"/>
<path fill="#399BC2" opacity="1.000000" stroke="none" 
	d="
M481.130127,484.946899 
	C477.823334,481.974060 476.840149,479.484924 480.520325,476.146210 
	C483.191742,473.722717 485.208801,470.520386 487.263641,467.492950 
	C488.926178,465.043579 490.533905,464.609558 493.000427,466.368530 
	C496.116852,468.590912 499.348206,470.671631 502.650726,472.607452 
	C505.336548,474.181732 505.569031,476.011108 503.746887,478.289307 
	C500.004150,482.968781 496.193024,487.593628 492.462921,492.282990 
	C490.535858,494.705688 488.918579,494.051575 487.229645,492.022919 
	C485.311279,489.718658 483.311646,487.482025 481.130127,484.946899 
M490.036804,470.443176 
	C487.725189,473.193970 484.821411,475.668152 483.352478,478.812653 
	C482.621216,480.378052 484.122131,483.430786 485.357391,485.325623 
	C486.297607,486.767853 489.583069,488.553528 489.826355,488.296265 
	C493.353668,484.566345 496.646790,480.592346 499.669556,476.439209 
	C500.011139,475.969849 498.667114,473.551849 497.588745,472.924805 
	C495.507416,471.714569 493.057556,471.138062 490.036804,470.443176 
z"/>
<path fill="#399BC2" opacity="1.000000" stroke="none" 
	d="
M358.091827,381.323425 
	C352.496704,378.862457 347.153992,376.211823 341.929047,373.346436 
	C341.547302,373.137085 341.626526,371.076996 342.154327,370.377869 
	C346.628784,364.451324 351.257233,358.641083 356.411438,352.066345 
	C360.839539,357.105255 364.637299,361.226166 368.124451,365.595093 
	C368.697388,366.312897 368.345734,368.443726 367.667419,369.368408 
	C364.721649,373.384277 361.496704,377.195374 358.091827,381.323425 
M362.673309,362.876038 
	C360.419647,359.988800 358.430511,356.338623 353.913666,359.652954 
	C348.496826,363.627686 345.427551,369.879944 347.423462,372.799133 
	C349.714691,376.150269 355.084625,378.048859 357.770782,376.457489 
	C363.251343,373.210724 365.442017,367.876617 362.673309,362.876038 
z"/>
<path fill="#399BC2" opacity="1.000000" stroke="none" 
	d="
M226.818481,435.638245 
	C226.322342,428.105621 226.268875,420.595978 226.202850,412.629272 
	C231.329086,412.015869 237.150940,410.276428 241.426376,412.121124 
	C246.302490,414.225006 249.805908,419.517395 253.874100,423.456909 
	C254.012039,423.590485 253.836121,424.086456 253.756332,424.400787 
	C252.712280,428.514374 243.123993,435.880066 238.735153,435.867828 
	C234.910324,435.857178 231.085800,435.734467 226.818481,435.638245 
M236.871582,414.572418 
	C236.216476,414.463409 235.563049,414.342834 234.905960,414.247375 
	C231.613815,413.769104 229.126923,414.670471 229.038940,418.431915 
	C228.783630,429.348145 228.399017,432.401672 232.745895,432.822601 
	C235.518600,433.091064 238.862991,433.598450 241.045486,432.378540 
	C244.312225,430.552612 247.616959,427.709259 249.200302,424.466156 
	C249.878311,423.077423 246.657974,419.160156 244.479233,417.204956 
	C242.811996,415.708801 239.998276,415.490295 236.871582,414.572418 
z"/>
<path fill="#19587A" opacity="1.000000" stroke="none" 
	d="
M606.121094,483.885345 
	C608.751282,487.418823 608.548096,490.469879 605.134949,492.705750 
	C602.279785,494.576141 598.821106,494.427765 597.431641,491.247955 
	C596.540710,489.208984 596.939697,485.242645 598.384888,483.933502 
	C599.804749,482.647217 603.277283,483.626801 606.121094,483.885345 
z"/>
<path fill="#19587A" opacity="1.000000" stroke="none" 
	d="
M607.653320,360.009277 
	C605.888977,365.008423 603.000671,366.801544 599.661255,365.082184 
	C596.292603,363.347809 595.325684,360.389130 597.304138,357.233002 
	C598.181213,355.833832 600.925842,354.102417 601.866821,354.546631 
	C604.099304,355.600586 605.760864,357.863953 607.653320,360.009277 
z"/>
<path fill="#1E6689" opacity="1.000000" stroke="none" 
	d="
M518.346985,539.207397 
	C515.686890,540.229614 513.136108,541.554749 510.763092,541.289429 
	C509.616791,541.161316 507.801453,537.846863 508.097870,536.328125 
	C508.460693,534.468994 510.408234,532.260925 512.221191,531.476868 
	C516.297058,529.713928 519.272522,533.384766 518.346985,539.207397 
z"/>
<path fill="#26ADE0" opacity="1.000000" stroke="none" 
	d="
M412.807007,521.139771 
	C411.008698,519.906189 409.434265,518.199341 407.488831,517.426636 
	C401.049835,514.869385 394.407837,512.816772 388.006744,510.175446 
	C386.505096,509.555817 384.558502,507.217133 384.749634,505.964203 
	C385.019775,504.193451 386.781647,502.059235 388.467194,501.251190 
	C390.397461,500.325775 393.128235,500.022675 395.185577,500.603210 
	C401.734375,502.451294 408.251007,504.541077 414.555115,507.093170 
	C421.198547,509.782654 427.402466,509.205200 433.917084,506.699036 
	C440.267365,504.256073 446.843414,502.383270 453.365845,500.410522 
	C457.727386,499.091278 460.599304,501.137665 461.720703,505.231384 
	C462.078369,506.537079 461.336670,509.181030 460.356049,509.645172 
	C454.673828,512.334656 448.950531,515.304810 442.899689,516.764160 
	C433.273712,519.085754 431.362396,520.838135 431.556000,530.920532 
	C431.747833,540.910950 431.714600,550.910706 432.154724,560.889832 
	C432.483490,568.343445 433.651733,575.759766 433.989197,583.213379 
	C434.253510,589.050476 433.147919,589.887390 427.440735,590.071350 
	C427.274200,590.076721 427.107452,590.074707 426.940857,590.078430 
	C412.261841,590.408875 411.252655,588.925720 413.291046,574.088806 
	C414.646271,564.224121 415.256561,554.240784 415.810638,544.288818 
	C416.132477,538.508789 415.844940,532.676025 415.487427,526.888245 
	C415.374573,525.060730 414.146729,523.302124 413.117889,521.368469 
	C412.806610,521.224976 412.860931,521.094482 412.807007,521.139771 
z"/>
<path fill="#27ADE0" opacity="1.000000" stroke="none" 
	d="
M356.574921,470.241821 
	C358.934692,472.044617 361.217377,473.531403 362.864929,475.539337 
	C366.073853,479.450104 363.489288,488.364014 358.540527,489.127777 
	C352.612335,490.042694 351.317291,483.637604 348.068909,480.441193 
	C346.946045,479.336304 346.466461,475.528320 347.239960,474.919159 
	C349.856323,472.858398 353.166077,471.678101 356.574921,470.241821 
z"/>
<path fill="#26ADE0" opacity="1.000000" stroke="none" 
	d="
M484.063904,370.184875 
	C483.530212,368.461578 482.478363,366.521881 483.055695,365.553345 
	C488.299469,356.756195 492.047150,356.699432 497.845642,365.369598 
	C499.102570,367.248993 500.634827,370.852539 499.825531,371.831970 
	C497.759094,374.332886 494.589050,376.129852 491.539062,377.484833 
	C490.610229,377.897491 488.384674,376.203918 487.207153,375.022339 
	C485.957245,373.768158 485.247131,371.976074 484.063904,370.184875 
z"/>
<path fill="#26ADE0" opacity="1.000000" stroke="none" 
	d="
M490.398651,470.370972 
	C493.057556,471.138062 495.507416,471.714569 497.588745,472.924805 
	C498.667114,473.551849 500.011139,475.969849 499.669556,476.439209 
	C496.646790,480.592346 493.353668,484.566345 489.826355,488.296265 
	C489.583069,488.553528 486.297607,486.767853 485.357391,485.325623 
	C484.122131,483.430786 482.621216,480.378052 483.352478,478.812653 
	C484.821411,475.668152 487.725189,473.193970 490.398651,470.370972 
z"/>
<path fill="#27ADE0" opacity="1.000000" stroke="none" 
	d="
M362.890076,363.170288 
	C365.442017,367.876617 363.251343,373.210724 357.770782,376.457489 
	C355.084625,378.048859 349.714691,376.150269 347.423462,372.799133 
	C345.427551,369.879944 348.496826,363.627686 353.913666,359.652954 
	C358.430511,356.338623 360.419647,359.988800 362.890076,363.170288 
z"/>
<path fill="#26ADE0" opacity="1.000000" stroke="none" 
	d="
M237.283051,414.637939 
	C239.998276,415.490295 242.811996,415.708801 244.479233,417.204956 
	C246.657974,419.160156 249.878311,423.077423 249.200302,424.466156 
	C247.616959,427.709259 244.312225,430.552612 241.045486,432.378540 
	C238.862991,433.598450 235.518600,433.091064 232.745895,432.822601 
	C228.399017,432.401672 228.783630,429.348145 229.038940,418.431915 
	C229.126923,414.670471 231.613815,413.769104 234.905960,414.247375 
	C235.563049,414.342834 236.216476,414.463409 237.283051,414.637939 
z"/>
</svg>